<?xml version="1.0" encoding="utf-8"?>
<!-- Generator: Adobe Illustrator 23.0.1, SVG Export Plug-In . SVG Version: 6.00 Build 0)  -->
<svg version="1.1" id="Ebene_1" xmlns="http://www.w3.org/2000/svg" xmlns:xlink="http://www.w3.org/1999/xlink" x="0px" y="0px"
	 viewBox="0 0 650 650" style="enable-background:new 0 0 650 650;" xml:space="preserve">
<style type="text/css">
	.st0***REMOVED***fill:#FF0000;***REMOVED***
	.st1***REMOVED***fill:#EA1A00;***REMOVED***
	.st2***REMOVED***fill:#FFFFFF;***REMOVED***
	.st3***REMOVED***fill:#D40000;***REMOVED***
	.st4***REMOVED***fill:#5F376E;***REMOVED***
	.st5***REMOVED***fill:#333333;***REMOVED***
	.st6***REMOVED***fill:#13B02A;***REMOVED***
	.st7***REMOVED***fill:#7D009C;***REMOVED***
	.st8***REMOVED***fill:#3DC4A0;***REMOVED***
	.st9***REMOVED***fill:#405D91;***REMOVED***
	.st10***REMOVED***fill:#EDBF2F;***REMOVED***
	.st11***REMOVED***fill:#EAEAEA;***REMOVED***
</style>
<path class="st6" d="M325,0L325,0C145.5,0,0,145.5,0,325v0c0,179.5,145.5,325,325,325h0c179.5,0,325-145.5,325-325v0
	C650,145.5,504.5,0,325,0z"/>
<g>
	<path class="st2" d="M122,187.8H8.9c0-13.8,1.2-27.4,3.7-40.9c2.4-13.5,6.1-27.4,11-41.6h418.9c0,13.8-1.2,27.3-3.7,40.6
		c-2.4,13.3-6.1,27.3-11,41.9H219.9l-69.2,396.1c-18.2,2.7-34.8,4-49.9,4c-16,0-32-1.3-47.9-4L122,187.8z"/>
	<path class="st2" d="M255.3,234.4c17.7-2.7,35.7-4,53.9-4c15.5,0,31.7,1.3,48.6,4l17.1,247l164.4-376.1c16-2.7,32.8-4,50.6-4
		c17.3,0,34.4,1.3,51.3,4l-227,478.6c-20,2.7-39.5,4-58.6,4c-8.9,0-17.5-0.3-26-1c-8.4-0.7-17.8-1.7-28-3L255.3,234.4z"/>
</g>
</svg>
