<?xml version="1.0" encoding="utf-8"?>
<!-- Generator: Adobe Illustrator 23.0.1, SVG Export Plug-In . SVG Version: 6.00 Build 0)  -->
<svg version="1.1" id="Ebene_1" xmlns="http://www.w3.org/2000/svg" xmlns:xlink="http://www.w3.org/1999/xlink" x="0px" y="0px"
	 viewBox="0 0 650 650" style="enable-background:new 0 0 650 650;" xml:space="preserve">
<style type="text/css">
	.st0{fill:#FF0000;}
	.st1{fill:#EA1A00;}
	.st2{fill:#FFFFFF;}
	.st3{fill:#D40000;}
	.st4{fill:#5F376E;}
	.st5{fill:#333333;}
	.st6{fill:#13B02A;}
	.st7{fill:#7D009C;}
	.st8{fill:#3DC4A0;}
	.st9{fill:#405D91;}
	.st10{fill:#EDBF2F;}
	.st11{fill:#EAEAEA;}
</style>
<path class="st9" d="M325,650L325,650C145.5,650,0,504.5,0,325v0C0,145.5,145.5,0,325,0h0c179.5,0,325,145.5,325,325v0
	C650,504.5,504.5,650,325,650z"/>
<path class="st2" d="M143.1,464.5c-37.1,0-67.1-15.8-90.4-43l28.8-44.2c19.3,20.5,41.4,30.8,58.4,30.8c20.5,0,33.1-12.6,33.1-36.3
	V238.4H78v-52.9h157.8v187.8C235.9,431.3,200.3,464.5,143.1,464.5z"/>
<path class="st2" d="M476.7,464.5c-37.1,0-67.1-15.8-90.4-43l28.8-44.2c19.3,20.5,41.4,30.8,58.4,30.8c20.5,0,33.1-12.6,33.1-36.3
	V238.4h-95.1v-52.9h157.8v187.8C569.4,431.3,533.9,464.5,476.7,464.5z"/>
<g>
	<polygon class="st10" points="277.7,66.1 192,320.2 287.3,320.2 188.8,583.9 449.3,272.6 357.2,272.6 477.9,66.1 	"/>
</g>
<polygon class="st9" points="235.9,185.5 235.9,314.1 263.6,262.7 263.6,100.6 "/>
</svg>
