<?xml version="1.0" encoding="utf-8"?>
<!-- Generator: Adobe Illustrator 23.0.1, SVG Export Plug-In . SVG Version: 6.00 Build 0)  -->
<svg version="1.1" id="Ebene_1" xmlns="http://www.w3.org/2000/svg" xmlns:xlink="http://www.w3.org/1999/xlink" x="0px" y="0px"
	 viewBox="0 0 650 650" style="enable-background:new 0 0 650 650;" xml:space="preserve">
<style type="text/css">
	.st0***REMOVED***fill:#FF0000;***REMOVED***
	.st1***REMOVED***fill:#EA1A00;***REMOVED***
	.st2***REMOVED***fill:#FFFFFF;***REMOVED***
	.st3***REMOVED***fill:#D40000;***REMOVED***
	.st4***REMOVED***fill:#5F376E;***REMOVED***
	.st5***REMOVED***fill:#333333;***REMOVED***
	.st6***REMOVED***fill:#13B02A;***REMOVED***
	.st7***REMOVED***fill:#7D009C;***REMOVED***
	.st8***REMOVED***fill:#3DC4A0;***REMOVED***
	.st9***REMOVED***fill:#405D91;***REMOVED***
	.st10***REMOVED***fill:#EDBF2F;***REMOVED***
	.st11***REMOVED***fill:#EAEAEA;***REMOVED***
</style>
<path class="st3" d="M325,0L325,0C145.5,0,0,145.5,0,325v0c0,179.5,145.5,325,325,325h0c179.5,0,325-145.5,325-325v0
	C650,145.5,504.5,0,325,0z"/>
<path class="st11" d="M314.2,565.7l5.4-103.1c0.3-6.3-4.6-11.6-10.8-11.9c-0.8,0-1.6,0-2.4,0.2l-102.6,18l13.9-38.2
	c1.2-3.1,0.2-6.6-2.4-8.7l-112.4-91l25.3-11.8c3.5-1.7,5.3-5.7,4.1-9.4L110,241.4l64.7,13.7c3.6,0.8,7.3-1.1,8.7-4.5l12.5-29.5
	l50.5,54.2c3,3.1,7.9,3.2,11,0.3c1.9-1.8,2.8-4.5,2.3-7.1l-24.4-125.7l39.1,22.6c3.7,2.2,8.5,0.9,10.6-2.8c0.1-0.1,0.2-0.3,0.2-0.5
	L325,84.3l39.7,77.9c1.9,3.8,6.6,5.4,10.4,3.5c0.2-0.1,0.3-0.2,0.5-0.2l39.1-22.6l-24.4,125.7c-0.8,4.2,1.9,8.3,6.2,9.1
	c2.6,0.5,5.3-0.4,7.1-2.3l50.5-54.2l12.5,29.5c1.5,3.4,5.1,5.3,8.7,4.5l64.7-13.7l-22.2,68.3c-1.2,3.7,0.5,7.8,4.1,9.4l25.3,11.8
	l-112.4,91c-2.6,2.1-3.5,5.6-2.4,8.7l13.9,38.2l-102.6-18c-6.2-1.1-12,3.1-13.1,9.3c-0.1,0.8-0.2,1.6-0.2,2.4l5.4,103.1H314.2z"/>
<g>
	<path class="st5" d="M367,257.9v49.6L245.8,565.7H172l118.1-249.8H187.4l-0.4,43h-61.5v-101H367z"/>
</g>
</svg>
