<?xml version="1.0" encoding="utf-8"?>
<!-- Generator: Adobe Illustrator 23.0.1, SVG Export Plug-In . SVG Version: 6.00 Build 0)  -->
<svg version="1.1"
	 id="svg4423" inkscape:version="0.91 r13725" sodipodi:docname="2H.svg" xmlns:cc="http://creativecommons.org/ns#" xmlns:dc="http://purl.org/dc/elements/1.1/" xmlns:inkscape="http://www.inkscape.org/namespaces/inkscape" xmlns:rdf="http://www.w3.org/1999/02/22-rdf-syntax-ns#" xmlns:sodipodi="http://sodipodi.sourceforge.net/DTD/sodipodi-0.dtd" xmlns:svg="http://www.w3.org/2000/svg"
	 xmlns="http://www.w3.org/2000/svg" xmlns:xlink="http://www.w3.org/1999/xlink" x="0px" y="0px" viewBox="0 0 224.23 312.81"
	 style="enable-background:new 0 0 224.23 312.81;" xml:space="preserve">
<style type="text/css">
	.st0{fill:#FFFFFF;stroke:#000000;stroke-width:0.9967;}
	.st1{fill:#D40000;}
</style>
<sodipodi:namedview  bordercolor="#666666" borderopacity="1.0" fit-margin-bottom="0" fit-margin-left="0" fit-margin-right="0" fit-margin-top="0" id="base" inkscape:current-layer="layer1" inkscape:cx="-11.449893" inkscape:cy="122.30866" inkscape:document-units="px" inkscape:pageopacity="0.0" inkscape:pageshadow="2" inkscape:snap-bbox="true" inkscape:snap-global="true" inkscape:snap-page="true" inkscape:window-height="800" inkscape:window-maximized="0" inkscape:window-width="690" inkscape:window-x="935" inkscape:window-y="42" inkscape:zoom="0.98994948" pagecolor="#ffffff" showgrid="false">
	</sodipodi:namedview>
<g id="layer1" transform="translate(-259.93473,-369.77721)" inkscape:groupmode="layer" inkscape:label="2H">
	<g id="g8900" transform="translate(-1313.6208,198.14981)">
		<g id="g8879" transform="translate(-4683.8753,2918.9368)">
			<path id="rect6347" class="st0" d="M6268.56-2746.81h201.97c5.87,0,10.63,4.76,10.63,10.63v290.55c0,5.87-4.76,10.63-10.63,10.63
				h-201.97c-5.87,0-10.63-4.76-10.63-10.63v-290.55C6257.93-2742.05,6262.69-2746.81,6268.56-2746.81z"/>
		</g>
		<g id="g6564" transform="translate(-0.13622252,4.5315816e-5)">
			<path id="path8628" inkscape:connector-curvature="0" sodipodi:nodetypes="cccccccc" class="st1" d="M1583.27,232.36
				c-1.58-3.47-1.76-9.41,2.97-10.21c3.56-0.46,5.01,1.2,5.3,3.74c0.14,0.74,0.56,0.79,0.69-0.06c0.2-2.61,2.79-4.13,4.81-3.75
				c5.53,0.95,5.2,7.03,3.4,11.16c-2.73,5.48-5.6,8.94-8.24,14.45C1589.16,241.95,1585.69,237.29,1583.27,232.36L1583.27,232.36z"/>
			<g id="g6555">
				<path id="path8650" inkscape:connector-curvature="0" sodipodi:nodetypes="cccccccc" class="st1" d="M1770.99,423.63
					c-1.58,3.47-1.76,9.41,2.97,10.21c3.56,0.46,5.01-1.2,5.3-3.74c0.14-0.74,0.56-0.79,0.69,0.06c0.2,2.61,2.79,4.13,4.81,3.75
					c5.53-0.95,5.2-7.03,3.4-11.16c-2.73-5.48-5.6-8.94-8.24-14.45C1776.88,414.04,1773.41,418.7,1770.99,423.63L1770.99,423.63z"/>
				<g id="g6548">
					<g id="g8574" transform="matrix(0.30106207,0,0,0.30106207,995.9849,969.13578)">
						<path id="path7100" inkscape:connector-curvature="0" sodipodi:nodetypes="csscscccsccccccc" class="st1" d="M1947.7-2492.42
							l0.55-6.71c1.69-20.72,6.23-27.72,31.96-49.34c12.49-10.49,16.59-15.67,17.17-21.68c1.63-14.15-11.13-18.57-19.45-18.65
							c-10.77-0.1-22.95,6.35-17.14,21.3l-12.08,3.55c-2.44-13.95,0.06-27.04,11.38-32.86c15.1-7.57,34.48-4.6,44.25,7.33
							c6.57,8.02,8.06,19.09,4.54,27.75c-10.3,22.16-45.24,31.91-48.13,57.53h38.63v-14.27h11.38v26.26L1947.7-2492.42z"/>
						<path id="path7116" inkscape:connector-curvature="0" sodipodi:nodetypes="csscscccsccccccc" class="st1" d="M2633.97-1766.53
							l-0.55,6.71c-1.69,20.72-6.23,27.72-31.96,49.34c-12.49,10.49-16.59,15.67-17.17,21.68c-1.63,14.15,11.13,18.57,19.45,18.65
							c10.77,0.1,22.95-6.35,17.14-21.3l12.08-3.55c2.44,13.95-0.06,27.04-11.38,32.86c-15.1,7.57-34.48,4.6-44.25-7.33
							c-6.57-8.02-8.06-19.09-4.54-27.75c10.3-22.16,45.24-31.91,48.13-57.53h-38.63v14.27h-11.38v-26.26L2633.97-1766.53z"/>
					</g>
					<path id="path8514" inkscape:connector-curvature="0" sodipodi:nodetypes="ccccsccssc" class="st1" d="M1673.72,200.09
						c7.14-0.47,10.87,5.63,11.6,10.44c0.43,0.76,0.67,0.55,0.84-0.04c0.35-6.17,5.87-11.22,10.99-10.53
						c8.33,0.11,13.39,9.38,11.97,17.22c-1.74,9.58-6.9,15.35-10.81,21.29c-4.42,6.15-10.37,15.04-12.29,19.32
						c0,0-6.05-9.2-13.92-20.03c-5.26-7.24-9.47-15.08-9.87-21.84C1661.78,208.2,1664.95,201.29,1673.72,200.09L1673.72,200.09z"/>
					<path id="path8580" inkscape:connector-curvature="0" sodipodi:nodetypes="ccccsccssc" class="st1" d="M1673.72,456.39
						c7.14,0.47,10.87-5.63,11.6-10.44c0.43-0.76,0.67-0.55,0.84,0.04c0.35,6.17,5.87,11.22,10.99,10.53
						c8.33-0.11,13.39-9.38,11.97-17.22c-1.74-9.58-6.9-15.35-10.81-21.29c-4.42-6.15-10.37-15.04-12.29-19.32
						c0,0-6.05,9.2-13.92,20.03c-5.26,7.24-9.47,15.08-9.87,21.84C1661.78,448.28,1664.95,455.2,1673.72,456.39L1673.72,456.39z"/>
				</g>
			</g>
		</g>
	</g>
</g>
</svg>
