<?xml version="1.0" encoding="utf-8"?>
<!-- Generator: Adobe Illustrator 23.0.1, SVG Export Plug-In . SVG Version: 6.00 Build 0)  -->
<svg version="1.1"
	 id="svg4423" inkscape:version="0.91 r13725" sodipodi:docname="3H.svg" xmlns:cc="http://creativecommons.org/ns#" xmlns:dc="http://purl.org/dc/elements/1.1/" xmlns:inkscape="http://www.inkscape.org/namespaces/inkscape" xmlns:rdf="http://www.w3.org/1999/02/22-rdf-syntax-ns#" xmlns:sodipodi="http://sodipodi.sourceforge.net/DTD/sodipodi-0.dtd" xmlns:svg="http://www.w3.org/2000/svg"
	 xmlns="http://www.w3.org/2000/svg" xmlns:xlink="http://www.w3.org/1999/xlink" x="0px" y="0px" viewBox="0 0 224.23 312.81"
	 style="enable-background:new 0 0 224.23 312.81;" xml:space="preserve">
<style type="text/css">
	.st0***REMOVED***fill:#FFFFFF;stroke:#000000;stroke-width:0.9967;***REMOVED***
	.st1***REMOVED***fill:#D40000;***REMOVED***
</style>
<sodipodi:namedview  bordercolor="#666666" borderopacity="1.0" fit-margin-bottom="0" fit-margin-left="0" fit-margin-right="0" fit-margin-top="0" id="base" inkscape:current-layer="layer1" inkscape:cx="-68.969498" inkscape:cy="66.516244" inkscape:document-units="px" inkscape:pageopacity="0.0" inkscape:pageshadow="2" inkscape:snap-bbox="true" inkscape:snap-global="true" inkscape:snap-page="true" inkscape:window-height="800" inkscape:window-maximized="0" inkscape:window-width="735" inkscape:window-x="1078" inkscape:window-y="117" inkscape:zoom="0.98994948" pagecolor="#ffffff" showgrid="false">
	</sodipodi:namedview>
<g id="layer1" transform="translate(-259.93475,-369.77721)" inkscape:groupmode="layer" inkscape:label="3H" sodipodi:insensitive="true">
	<g id="g8912" transform="translate(-1536.8493,198.14981)">
		<g id="g8784">
			<g id="g8890" transform="translate(-4683.8753,2918.9368)">
				<path id="rect6351" class="st0" d="M6491.79-2746.81h201.97c5.87,0,10.63,4.76,10.63,10.63v290.55
					c0,5.87-4.76,10.63-10.63,10.63h-201.97c-5.87,0-10.63-4.76-10.63-10.63v-290.55
					C6481.16-2742.05,6485.92-2746.81,6491.79-2746.81z"/>
				<g id="g8582" transform="matrix(0.30106207,0,0,0.30106207,5635.595,-1948.9541)">
					<path id="path7102" inkscape:connector-curvature="0" sodipodi:nodetypes="ccccscccccccccccscc" class="st1" d="
						M2836.66-2519.89l8.46-6.11c7.35,11.74,15.56,19.47,28.12,18.14c18.85-1.27,26.65-20.66,22.7-35.28
						c-3.81-13.1-19.42-19.5-31.82-12.5c-2.92,1.65-6.31,3.69-6.31,3.69l-4.41-7.19l29.11-33.86h-31.59v14.02h-12.12v-25.13h61.75
						v8.53c0,0-16.54,16.84-22.01,26.07c13.47,0.49,24.32,8.86,28.21,22.12c2.28,6.97,1.25,22.92-1.72,29.79
						c-4.96,11.46-18.55,20.76-30.96,21.3C2853.24-2494.95,2842.18-2509.29,2836.66-2519.89L2836.66-2519.89z"/>
					<path id="path7118" inkscape:connector-curvature="0" sodipodi:nodetypes="ccccscccccccccccscc" class="st1" d="
						M3522.01-1744.69l-8.46,6.11c-7.35-11.74-15.56-19.47-28.12-18.14c-18.85,1.27-26.65,20.66-22.7,35.28
						c3.81,13.1,19.42,19.5,31.82,12.5c2.92-1.65,6.31-3.38,6.31-3.38l5.23,6.76l-29.92,33.99h31.59v-14.02h12.12v25.13h-61.75
						v-8.53c0,0,16.54-16.84,22.01-26.07c-13.47-0.49-24.32-8.86-28.21-22.12c-2.28-6.97-1.25-22.92,1.72-29.79
						c4.96-11.46,18.55-20.76,30.96-21.3C3505.43-1769.63,3516.49-1755.29,3522.01-1744.69L3522.01-1744.69z"/>
				</g>
			</g>
		</g>
		<path id="path8630" inkscape:connector-curvature="0" sodipodi:nodetypes="cccccccc" class="st1" d="M1807.03,232.79
			c-1.58-3.47-1.76-9.41,2.97-10.21c3.56-0.46,5.01,1.2,5.3,3.74c0.14,0.74,0.56,0.79,0.69-0.06c0.2-2.61,2.79-4.13,4.81-3.75
			c5.53,0.95,5.2,7.03,3.4,11.16c-2.73,5.48-5.6,8.94-8.24,14.45C1812.91,242.38,1809.44,237.72,1807.03,232.79L1807.03,232.79z"/>
		<path id="path8516" inkscape:connector-curvature="0" sodipodi:nodetypes="ccccsccssc" class="st1" d="M1896.78,200.86
			c7.14-0.47,10.87,5.63,11.6,10.44c0.43,0.76,0.67,0.55,0.84-0.04c0.35-6.17,5.87-11.22,10.99-10.53
			c8.33,0.11,13.39,9.38,11.97,17.22c-1.74,9.58-6.9,15.35-10.81,21.29c-4.42,6.15-10.37,15.04-12.29,19.32
			c0,0-6.05-9.2-13.92-20.03c-5.26-7.24-9.47-15.08-9.87-21.84C1884.85,208.97,1888.01,202.06,1896.78,200.86L1896.78,200.86z"/>
		<path id="path8518" inkscape:connector-curvature="0" sodipodi:nodetypes="ccccsccssc" class="st1" d="M1896.85,299.28
			c7.14-0.47,10.87,5.63,11.6,10.44c0.43,0.76,0.67,0.55,0.84-0.04c0.35-6.17,5.87-11.22,10.99-10.53
			c8.33,0.11,13.39,9.38,11.97,17.22c-1.74,9.58-6.9,15.35-10.81,21.29c-4.42,6.15-10.37,15.04-12.29,19.32
			c0,0-6.05-9.2-13.92-20.03c-5.26-7.24-9.47-15.08-9.87-21.84C1884.91,307.4,1888.08,300.48,1896.85,299.28L1896.85,299.28z"/>
		<path id="path8652" inkscape:connector-curvature="0" sodipodi:nodetypes="cccccccc" class="st1" d="M1994.01,424
			c-1.58,3.47-1.76,9.41,2.97,10.21c3.56,0.46,5.01-1.2,5.3-3.74c0.14-0.74,0.56-0.79,0.69,0.06c0.2,2.61,2.79,4.13,4.81,3.75
			c5.53-0.95,5.2-7.03,3.4-11.16c-2.73-5.48-5.6-8.94-8.24-14.45C1999.9,414.41,1996.43,419.07,1994.01,424L1994.01,424z"/>
		<path id="path8582" inkscape:connector-curvature="0" sodipodi:nodetypes="ccccsccssc" class="st1" d="M1896.78,455.46
			c7.14,0.47,10.87-5.63,11.6-10.44c0.43-0.76,0.67-0.55,0.84,0.04c0.35,6.17,5.87,11.22,10.99,10.53
			c8.33-0.11,13.39-9.38,11.97-17.22c-1.74-9.58-6.9-15.35-10.81-21.29c-4.42-6.15-10.37-15.04-12.29-19.32
			c0,0-6.05,9.2-13.92,20.03c-5.26,7.24-9.47,15.08-9.87,21.84C1884.85,447.35,1888.01,454.26,1896.78,455.46L1896.78,455.46z"/>
	</g>
</g>
</svg>
