<?xml version="1.0" encoding="utf-8"?>
<!-- Generator: Adobe Illustrator 23.0.1, SVG Export Plug-In . SVG Version: 6.00 Build 0)  -->
<svg version="1.1"
	 id="svg4423" inkscape:version="0.91 r13725" sodipodi:docname="5H.svg" xmlns:cc="http://creativecommons.org/ns#" xmlns:dc="http://purl.org/dc/elements/1.1/" xmlns:inkscape="http://www.inkscape.org/namespaces/inkscape" xmlns:rdf="http://www.w3.org/1999/02/22-rdf-syntax-ns#" xmlns:sodipodi="http://sodipodi.sourceforge.net/DTD/sodipodi-0.dtd" xmlns:svg="http://www.w3.org/2000/svg"
	 xmlns="http://www.w3.org/2000/svg" xmlns:xlink="http://www.w3.org/1999/xlink" x="0px" y="0px" viewBox="0 0 224.23 312.81"
	 style="enable-background:new 0 0 224.23 312.81;" xml:space="preserve">
<style type="text/css">
	.st0***REMOVED***fill:#FFFFFF;stroke:#000000;stroke-width:0.9967;***REMOVED***
	.st1***REMOVED***fill:#D40000;***REMOVED***
</style>
<sodipodi:namedview  bordercolor="#666666" borderopacity="1.0" fit-margin-bottom="0" fit-margin-left="0" fit-margin-right="0" fit-margin-top="0" id="base" inkscape:current-layer="layer1" inkscape:cx="-60.667741" inkscape:cy="145.18621" inkscape:document-units="px" inkscape:pageopacity="0.0" inkscape:pageshadow="2" inkscape:snap-bbox="true" inkscape:snap-global="true" inkscape:snap-page="true" inkscape:window-height="800" inkscape:window-maximized="0" inkscape:window-width="735" inkscape:window-x="578" inkscape:window-y="17" inkscape:zoom="0.98994948" pagecolor="#ffffff" showgrid="false">
	</sodipodi:namedview>
<g id="layer1" transform="translate(-259.93469,-369.77721)" inkscape:groupmode="layer" inkscape:label="5H">
	<g id="g8939" transform="translate(-1983.3059,198.14981)">
		<g id="g8809">
			<g id="g8915" transform="translate(-4683.8753,2918.9368)">
				<path id="rect6355" class="st0" d="M6938.24-2746.81h201.97c5.87,0,10.63,4.76,10.63,10.63v290.55
					c0,5.87-4.76,10.63-10.63,10.63h-201.97c-5.87,0-10.63-4.76-10.63-10.63v-290.55
					C6927.61-2742.05,6932.37-2746.81,6938.24-2746.81z"/>
				<g id="g8601" transform="matrix(0.30106207,0,0,0.30106207,5562.5812,-1947.8121)">
					<path id="path7106" inkscape:connector-curvature="0" sodipodi:nodetypes="cccssccccccccccc" class="st1" d="M4561.23-2529.25
						l10.7-0.09c2.03,6.46,6.55,13.04,12.68,14.86c17.31,4.07,28.46-5.6,32.13-16.76c4.45-13.53-0.1-32.54-12.02-39.29
						c-9.88-5.6-24.56-0.88-31.3,11.09l-7.5-4.58l4.02-44.58h48.93v10.54h-39.65l-0.62,18.57c8.52-5.99,21.65-5.93,30.18-1.73
						c16.16,7.7,23.66,25.22,20.52,45.87c-4.35,20.54-13.94,32.17-35.6,33.85C4569.63-2501.3,4561.13-2517.85,4561.23-2529.25
						L4561.23-2529.25z"/>
					<path id="path7122" inkscape:connector-curvature="0" sodipodi:nodetypes="cccssccccccccccc" class="st1" d="M5248.36-1742.92
						l-10.7,0.09c-2.03-6.46-6.55-13.04-12.68-14.86c-17.31-4.07-28.46,5.6-32.13,16.76c-4.45,13.53,0.1,32.54,12.02,39.29
						c9.88,5.6,24.56,0.88,31.3-11.09l7.5,4.58l-4.02,44.58h-48.93v-10.54h39.65l0.62-18.57c-8.52,5.99-21.65,5.93-30.18,1.73
						c-16.16-7.7-23.66-25.22-20.52-45.87c4.35-20.54,13.94-32.17,35.6-33.85C5239.96-1770.86,5248.46-1754.32,5248.36-1742.92
						L5248.36-1742.92z"/>
				</g>
			</g>
		</g>
		<path id="path8640" inkscape:connector-curvature="0" sodipodi:nodetypes="cccccccc" class="st1" d="M2253.25,232.72
			c-1.58-3.47-1.76-9.41,2.97-10.21c3.56-0.46,5.01,1.2,5.3,3.74c0.14,0.74,0.56,0.79,0.69-0.06c0.2-2.61,2.79-4.13,4.81-3.75
			c5.53,0.95,5.2,7.03,3.4,11.16c-2.73,5.48-5.6,8.94-8.25,14.45C2259.14,242.31,2255.67,237.65,2253.25,232.72L2253.25,232.72z"/>
		<path id="path8524" inkscape:connector-curvature="0" sodipodi:nodetypes="ccccsccssc" class="st1" d="M2287.79,200.05
			c7.14-0.47,10.87,5.63,11.6,10.44c0.43,0.76,0.67,0.55,0.84-0.04c0.35-6.17,5.88-11.22,10.99-10.53
			c8.33,0.11,13.39,9.38,11.97,17.22c-1.74,9.58-6.9,15.35-10.81,21.29c-4.42,6.15-10.37,15.04-12.29,19.32
			c0,0-6.05-9.2-13.92-20.03c-5.26-7.24-9.47-15.08-9.86-21.84C2275.86,208.16,2279.02,201.24,2287.79,200.05L2287.79,200.05z"/>
		<path id="path8526" inkscape:connector-curvature="0" sodipodi:nodetypes="ccccsccssc" class="st1" d="M2398.48,200.05
			c7.14-0.47,10.87,5.63,11.6,10.44c0.43,0.76,0.67,0.55,0.84-0.04c0.35-6.17,5.88-11.22,10.99-10.53
			c8.33,0.11,13.39,9.38,11.97,17.22c-1.74,9.58-6.9,15.35-10.81,21.29c-4.42,6.15-10.37,15.04-12.29,19.32
			c0,0-6.05-9.2-13.92-20.03c-5.26-7.24-9.47-15.08-9.86-21.84C2386.54,208.16,2389.71,201.24,2398.48,200.05L2398.48,200.05z"/>
		<path id="path8528" inkscape:connector-curvature="0" sodipodi:nodetypes="ccccsccssc" class="st1" d="M2343.3,299.28
			c7.14-0.47,10.87,5.63,11.6,10.44c0.43,0.76,0.67,0.55,0.84-0.04c0.35-6.17,5.88-11.22,10.99-10.53
			c8.33,0.11,13.39,9.38,11.97,17.22c-1.74,9.58-6.9,15.35-10.81,21.29c-4.42,6.15-10.37,15.04-12.29,19.32
			c0,0-6.05-9.2-13.92-20.03c-5.26-7.24-9.47-15.08-9.86-21.84C2331.37,307.4,2334.53,300.48,2343.3,299.28L2343.3,299.28z"/>
		<path id="path8588" inkscape:connector-curvature="0" sodipodi:nodetypes="ccccsccssc" class="st1" d="M2287.79,454.19
			c7.14,0.47,10.87-5.63,11.6-10.44c0.43-0.76,0.67-0.55,0.84,0.04c0.35,6.17,5.88,11.22,10.99,10.53
			c8.33-0.11,13.39-9.38,11.97-17.22c-1.74-9.58-6.9-15.35-10.81-21.29c-4.42-6.15-10.37-15.04-12.29-19.32
			c0,0-6.05,9.2-13.92,20.03c-5.26,7.24-9.47,15.08-9.86,21.84C2275.86,446.08,2279.02,453,2287.79,454.19L2287.79,454.19z"/>
		<path id="path8590" inkscape:connector-curvature="0" sodipodi:nodetypes="ccccsccssc" class="st1" d="M2398.48,454.19
			c7.14,0.47,10.87-5.63,11.6-10.44c0.43-0.76,0.67-0.55,0.84,0.04c0.35,6.17,5.88,11.22,10.99,10.53
			c8.33-0.11,13.39-9.38,11.97-17.22c-1.74-9.58-6.9-15.35-10.81-21.29c-4.42-6.15-10.37-15.04-12.29-19.32
			c0,0-6.05,9.2-13.92,20.03c-5.26,7.24-9.47,15.08-9.86,21.84C2386.54,446.08,2389.71,453,2398.48,454.19L2398.48,454.19z"/>
		<path id="path8656" inkscape:connector-curvature="0" sodipodi:nodetypes="cccccccc" class="st1" d="M2439.96,423.58
			c-1.58,3.47-1.76,9.41,2.97,10.21c3.56,0.46,5.01-1.2,5.3-3.74c0.14-0.74,0.56-0.79,0.69,0.06c0.2,2.61,2.79,4.13,4.81,3.75
			c5.53-0.95,5.2-7.03,3.4-11.16c-2.73-5.48-5.6-8.94-8.25-14.45C2445.85,413.99,2442.38,418.65,2439.96,423.58L2439.96,423.58z"/>
	</g>
</g>
</svg>
