<?xml version="1.0" encoding="utf-8"?>
<!-- Generator: Adobe Illustrator 23.0.1, SVG Export Plug-In . SVG Version: 6.00 Build 0)  -->
<svg version="1.1"
	 id="svg4423" inkscape:version="0.91 r13725" sodipodi:docname="6H.svg" xmlns:cc="http://creativecommons.org/ns#" xmlns:dc="http://purl.org/dc/elements/1.1/" xmlns:inkscape="http://www.inkscape.org/namespaces/inkscape" xmlns:rdf="http://www.w3.org/1999/02/22-rdf-syntax-ns#" xmlns:sodipodi="http://sodipodi.sourceforge.net/DTD/sodipodi-0.dtd" xmlns:svg="http://www.w3.org/2000/svg"
	 xmlns="http://www.w3.org/2000/svg" xmlns:xlink="http://www.w3.org/1999/xlink" x="0px" y="0px" viewBox="0 0 224.23 312.81"
	 style="enable-background:new 0 0 224.23 312.81;" xml:space="preserve">
<style type="text/css">
	.st0***REMOVED***fill:#FFFFFF;stroke:#000000;stroke-width:0.9967;***REMOVED***
	.st1***REMOVED***fill:#D40000;***REMOVED***
</style>
<sodipodi:namedview  bordercolor="#666666" borderopacity="1.0" fit-margin-bottom="0" fit-margin-left="0" fit-margin-right="0" fit-margin-top="0" id="base" inkscape:current-layer="layer1" inkscape:cx="-219.4238" inkscape:cy="231.9308" inkscape:document-units="px" inkscape:pageopacity="0.0" inkscape:pageshadow="2" inkscape:snap-bbox="true" inkscape:snap-global="true" inkscape:snap-page="true" inkscape:window-height="800" inkscape:window-maximized="0" inkscape:window-width="735" inkscape:window-x="1105" inkscape:window-y="41" inkscape:zoom="0.49497474" pagecolor="#ffffff" showgrid="false">
	</sodipodi:namedview>
<g id="layer1" transform="translate(-259.93471,-369.77721)" inkscape:groupmode="layer" inkscape:label="6h">
	<g id="g8954" transform="translate(-2206.5344,198.14981)">
		<g id="g8823">
			<g id="g8929" transform="translate(-4683.8753,2918.9368)">
				<path id="rect6357" class="st0" d="M7161.47-2746.81h201.97c5.87,0,10.63,4.76,10.63,10.63v290.55
					c0,5.87-4.76,10.63-10.63,10.63h-201.97c-5.87,0-10.63-4.76-10.63-10.63v-290.55
					C7150.84-2742.05,7155.6-2746.81,7161.47-2746.81z"/>
				<g id="g8673" transform="matrix(0.30106207,0,0,0.30106207,6829.277,-2295.2794)">
					<path id="path7108" inkscape:connector-curvature="0" sodipodi:nodetypes="cssccacccccszsss" class="st1" d="M1095.47-1380.22
						c-1.36-9.13-1.33-32.7-0.22-39.67c3.42-21.35,11.73-31.12,25.65-34.32c13.51-3.11,32.51,0.35,36.68,18.21l-11.31,0.21
						c-6.11-12.07-21.57-8.84-30.28-3.59c-6.95,4.19-10.09,21.66-8.75,22.73c-0.01,0,13.14-9.56,23.5-8.85
						c22.15,2.26,31.28,21.11,30.51,38.92c-0.7,21.42-7.62,38.54-31.09,39.68C1107.85-1347.74,1097.61-1359.69,1095.47-1380.22z
						 M1150.51-1385.88c0.12-14.87-6.76-25.98-19.76-27.21c-13.01-1.23-26.12,11.23-25.21,26.38c0.91,15.2,6.9,28.01,22.67,27.94
						C1145.18-1358.85,1150.43-1375.3,1150.51-1385.88L1150.51-1385.88z"/>
					<path id="path7161" inkscape:connector-curvature="0" sodipodi:nodetypes="cssccacccccszsss" class="st1" d="M1782.21-583.67
						c1.36,9.13,1.33,32.7,0.22,39.67c-3.42,21.35-11.73,31.12-25.65,34.32c-13.51,3.11-32.51-0.35-36.68-18.21l11.31-0.21
						c6.11,12.07,21.57,8.84,30.28,3.59c6.95-4.19,10.09-21.66,8.75-22.73c0.01,0-13.14,9.56-23.5,8.85
						c-22.15-2.26-31.28-21.11-30.51-38.92c0.7-21.42,7.62-38.54,31.09-39.68C1769.83-616.15,1780.06-604.2,1782.21-583.67
						L1782.21-583.67z M1727.17-578.01c-0.12,14.87,6.76,25.98,19.76,27.21c13.01,1.23,26.12-11.23,25.21-26.38
						c-0.91-15.2-6.9-28.01-22.67-27.94C1732.5-605.04,1727.25-588.58,1727.17-578.01L1727.17-578.01z"/>
				</g>
			</g>
		</g>
		<path id="path8642" inkscape:connector-curvature="0" sodipodi:nodetypes="cccccccc" class="st1" d="M2475.62,231.5
			c-1.58-3.47-1.76-9.41,2.97-10.21c3.56-0.46,5.01,1.2,5.3,3.74c0.14,0.74,0.56,0.79,0.69-0.06c0.2-2.61,2.79-4.13,4.81-3.75
			c5.53,0.95,5.2,7.03,3.4,11.16c-2.73,5.48-5.6,8.94-8.25,14.45C2481.51,241.09,2478.04,236.43,2475.62,231.5L2475.62,231.5z"/>
		<path id="path8530" inkscape:connector-curvature="0" sodipodi:nodetypes="ccccsccssc" class="st1" d="M2510.91,200.49
			c7.14-0.47,10.87,5.63,11.6,10.44c0.43,0.76,0.67,0.55,0.84-0.04c0.35-6.17,5.88-11.22,10.99-10.53
			c8.33,0.11,13.39,9.38,11.97,17.22c-1.74,9.58-6.9,15.35-10.81,21.29c-4.42,6.15-10.37,15.04-12.29,19.32
			c0,0-6.05-9.2-13.92-20.03c-5.26-7.24-9.47-15.08-9.86-21.84C2498.97,208.6,2502.14,201.68,2510.91,200.49L2510.91,200.49z"/>
		<path id="path8532" inkscape:connector-curvature="0" sodipodi:nodetypes="ccccsccssc" class="st1" d="M2622.44,200.49
			c7.14-0.47,10.87,5.63,11.6,10.44c0.43,0.76,0.67,0.55,0.84-0.04c0.35-6.17,5.88-11.22,10.99-10.53
			c8.33,0.11,13.39,9.38,11.97,17.22c-1.74,9.58-6.9,15.35-10.81,21.29c-4.42,6.15-10.37,15.04-12.29,19.32
			c0,0-6.05-9.2-13.92-20.03c-5.26-7.24-9.47-15.08-9.86-21.84C2610.5,208.6,2613.67,201.68,2622.44,200.49L2622.44,200.49z"/>
		<path id="path8534" inkscape:connector-curvature="0" sodipodi:nodetypes="ccccsccssc" class="st1" d="M2622.44,299.38
			c7.14-0.47,10.87,5.63,11.6,10.44c0.43,0.76,0.67,0.55,0.84-0.04c0.35-6.17,5.88-11.22,10.99-10.53
			c8.33,0.11,13.39,9.38,11.97,17.22c-1.74,9.58-6.9,15.35-10.81,21.29c-4.42,6.15-10.37,15.04-12.29,19.32
			c0,0-6.05-9.2-13.92-20.03c-5.26-7.24-9.47-15.08-9.86-21.84C2610.5,307.49,2613.67,300.58,2622.44,299.38L2622.44,299.38z"/>
		<path id="path8536" inkscape:connector-curvature="0" sodipodi:nodetypes="ccccsccssc" class="st1" d="M2510.91,299.38
			c7.14-0.47,10.87,5.63,11.6,10.44c0.43,0.76,0.67,0.55,0.84-0.04c0.35-6.17,5.88-11.22,10.99-10.53
			c8.33,0.11,13.39,9.38,11.97,17.22c-1.74,9.58-6.9,15.35-10.81,21.29c-4.42,6.15-10.37,15.04-12.29,19.32
			c0,0-6.05-9.2-13.92-20.03c-5.26-7.24-9.47-15.08-9.86-21.84C2498.97,307.49,2502.14,300.58,2510.91,299.38L2510.91,299.38z"/>
		<path id="path8592" inkscape:connector-curvature="0" sodipodi:nodetypes="ccccsccssc" class="st1" d="M2510.91,455.47
			c7.14,0.47,10.87-5.63,11.6-10.44c0.43-0.76,0.67-0.55,0.84,0.04c0.35,6.17,5.88,11.22,10.99,10.53
			c8.33-0.11,13.39-9.38,11.97-17.22c-1.74-9.58-6.9-15.35-10.81-21.29c-4.42-6.15-10.37-15.04-12.29-19.32
			c0,0-6.05,9.2-13.92,20.03c-5.26,7.24-9.47,15.08-9.86,21.84C2498.97,447.36,2502.14,454.28,2510.91,455.47L2510.91,455.47z"/>
		<path id="path8594" inkscape:connector-curvature="0" sodipodi:nodetypes="ccccsccssc" class="st1" d="M2622.44,455.47
			c7.14,0.47,10.87-5.63,11.6-10.44c0.43-0.76,0.67-0.55,0.84,0.04c0.35,6.17,5.88,11.22,10.99,10.53
			c8.33-0.11,13.39-9.38,11.97-17.22c-1.74-9.58-6.9-15.35-10.81-21.29c-4.42-6.15-10.37-15.04-12.29-19.32
			c0,0-6.05,9.2-13.92,20.03c-5.26,7.24-9.47,15.08-9.86,21.84C2610.5,447.36,2613.67,454.28,2622.44,455.47L2622.44,455.47z"/>
		<path id="path8658" inkscape:connector-curvature="0" sodipodi:nodetypes="cccccccc" class="st1" d="M2664.43,422.36
			c-1.58,3.47-1.76,9.41,2.97,10.21c3.56,0.46,5.01-1.2,5.3-3.74c0.14-0.74,0.56-0.79,0.69,0.06c0.2,2.61,2.79,4.13,4.81,3.75
			c5.53-0.95,5.2-7.03,3.4-11.16c-2.73-5.48-5.6-8.94-8.25-14.45C2670.32,412.77,2666.85,417.43,2664.43,422.36L2664.43,422.36z"/>
	</g>
</g>
</svg>
