<?xml version="1.0" encoding="utf-8"?>
<!-- Generator: Adobe Illustrator 23.0.1, SVG Export Plug-In . SVG Version: 6.00 Build 0)  -->
<svg version="1.1"
	 id="svg4423" inkscape:version="0.91 r13725" sodipodi:docname="7H.svg" xmlns:cc="http://creativecommons.org/ns#" xmlns:dc="http://purl.org/dc/elements/1.1/" xmlns:inkscape="http://www.inkscape.org/namespaces/inkscape" xmlns:rdf="http://www.w3.org/1999/02/22-rdf-syntax-ns#" xmlns:sodipodi="http://sodipodi.sourceforge.net/DTD/sodipodi-0.dtd" xmlns:svg="http://www.w3.org/2000/svg"
	 xmlns="http://www.w3.org/2000/svg" xmlns:xlink="http://www.w3.org/1999/xlink" x="0px" y="0px" viewBox="0 0 224.22 312.8"
	 style="enable-background:new 0 0 224.22 312.8;" xml:space="preserve">
<style type="text/css">
	.st0***REMOVED***fill:#FFFFFF;stroke:#000000;stroke-width:0.99;stroke-miterlimit:3.8;***REMOVED***
	.st1***REMOVED***fill:#D40000;***REMOVED***
</style>
<sodipodi:namedview  bordercolor="#666666" borderopacity="1.0" fit-margin-bottom="0" fit-margin-left="0" fit-margin-right="0" fit-margin-top="0" id="base" inkscape:current-layer="layer1" inkscape:cx="-126.39768" inkscape:cy="120.56868" inkscape:document-units="px" inkscape:pageopacity="0.0" inkscape:pageshadow="2" inkscape:snap-bbox="true" inkscape:snap-global="true" inkscape:snap-page="true" inkscape:window-height="800" inkscape:window-maximized="0" inkscape:window-width="735" inkscape:window-x="29" inkscape:window-y="29" inkscape:zoom="0.69999999" pagecolor="#ffffff" showgrid="false">
	</sodipodi:namedview>
<g id="layer1" transform="translate(-259.93808,-369.78057)" inkscape:groupmode="layer" inkscape:label="7H">
	<g id="g9031" transform="translate(-1090.3923,-113.66123)">
		<g id="g8838">
			<g id="g8853" transform="translate(-4683.8753,2918.9368)">
				<path id="rect6359" class="st0" d="M6045.33-2435h201.97c5.87,0,10.63,4.76,10.63,10.63v290.55c0,5.87-4.76,10.63-10.63,10.63
					h-201.97c-5.87,0-10.63-4.76-10.63-10.63v-290.55C6034.7-2430.24,6039.46-2435,6045.33-2435z"/>
				<g id="g8660" transform="matrix(0.30106207,0,0,0.30106207,5449.5822,-1980.8821)">
					<path id="path7110" inkscape:connector-curvature="0" sodipodi:nodetypes="cccccccccc" class="st1" d="M1984.51-1353.9
						c7.08-36.84,14.64-64.47,34.48-94.49h-40.31v12.92h-10.71v-24.35h58.97l7.27,11.43c-21.06,22.58-40.35,95.56-36.93,94.49
						H1984.51z"/>
					<path id="path7126" inkscape:connector-curvature="0" sodipodi:nodetypes="cccccccccc" class="st1" d="M2643.99-627.17
						c-7.08,36.84-14.65,64.47-34.48,94.49h40.31v-12.92h10.71v24.35h-58.97l-7.27-11.43c21.06-22.58,40.35-95.56,36.93-94.49
						L2643.99-627.17z"/>
				</g>
			</g>
		</g>
		<path id="path8632" inkscape:connector-curvature="0" sodipodi:nodetypes="cccccccc" class="st1" d="M1359.65,545.9
			c-1.58-3.47-1.76-9.41,2.97-10.21c3.56-0.46,5.01,1.2,5.3,3.74c0.14,0.74,0.56,0.79,0.69-0.06c0.2-2.61,2.79-4.13,4.81-3.75
			c5.53,0.95,5.2,7.03,3.4,11.16c-2.73,5.48-5.6,8.94-8.24,14.45C1365.54,555.49,1362.07,550.82,1359.65,545.9L1359.65,545.9z"/>
		<path id="path8538" inkscape:connector-curvature="0" sodipodi:nodetypes="ccccsccssc" class="st1" d="M1394.01,513.74
			c7.14-0.47,10.87,5.63,11.6,10.44c0.43,0.76,0.67,0.55,0.84-0.04c0.35-6.17,5.87-11.22,10.99-10.53
			c8.33,0.11,13.39,9.38,11.97,17.22c-1.74,9.58-6.9,15.35-10.81,21.29c-4.42,6.15-10.37,15.04-12.29,19.32
			c0,0-6.05-9.2-13.92-20.03c-5.26-7.24-9.47-15.08-9.87-21.84C1382.08,521.86,1385.24,514.94,1394.01,513.74L1394.01,513.74z"/>
		<path id="path8540" inkscape:connector-curvature="0" sodipodi:nodetypes="ccccsccssc" class="st1" d="M1505.55,513.74
			c7.14-0.47,10.87,5.63,11.6,10.44c0.43,0.76,0.67,0.55,0.84-0.04c0.35-6.17,5.87-11.22,10.99-10.53
			c8.33,0.11,13.39,9.38,11.97,17.22c-1.74,9.58-6.9,15.35-10.81,21.29c-4.42,6.15-10.37,15.04-12.29,19.32
			c0,0-6.05-9.2-13.92-20.03c-5.26-7.24-9.47-15.08-9.87-21.84C1493.61,521.86,1496.78,514.94,1505.55,513.74L1505.55,513.74z"/>
		<path id="path8542" inkscape:connector-curvature="0" sodipodi:nodetypes="ccccsccssc" class="st1" d="M1450.45,563.87
			c7.14-0.47,10.87,5.63,11.6,10.44c0.43,0.76,0.67,0.55,0.84-0.04c0.35-6.17,5.87-11.22,10.99-10.53
			c8.33,0.11,13.39,9.38,11.97,17.22c-1.74,9.58-6.9,15.35-10.81,21.29c-4.42,6.15-10.37,15.04-12.29,19.32
			c0,0-6.05-9.2-13.92-20.03c-5.26-7.24-9.47-15.08-9.87-21.84C1438.51,571.98,1441.68,565.06,1450.45,563.87L1450.45,563.87z"/>
		<path id="path8544" inkscape:connector-curvature="0" sodipodi:nodetypes="ccccsccssc" class="st1" d="M1394.01,613.99
			c7.14-0.47,10.87,5.63,11.6,10.44c0.43,0.76,0.67,0.55,0.84-0.04c0.35-6.17,5.87-11.22,10.99-10.53
			c8.33,0.11,13.39,9.38,11.97,17.22c-1.74,9.58-6.9,15.35-10.81,21.29c-4.42,6.15-10.37,15.04-12.29,19.32
			c0,0-6.05-9.2-13.92-20.03c-5.26-7.24-9.47-15.08-9.87-21.84C1382.08,622.1,1385.24,615.19,1394.01,613.99L1394.01,613.99z"/>
		<path id="path8546" inkscape:connector-curvature="0" sodipodi:nodetypes="ccccsccssc" class="st1" d="M1505.55,613.99
			c7.14-0.47,10.87,5.63,11.6,10.44c0.43,0.76,0.67,0.55,0.84-0.04c0.35-6.17,5.87-11.22,10.99-10.53
			c8.33,0.11,13.39,9.38,11.97,17.22c-1.74,9.58-6.9,15.35-10.81,21.29c-4.42,6.15-10.37,15.04-12.29,19.32
			c0,0-6.05-9.2-13.92-20.03c-5.26-7.24-9.47-15.08-9.87-21.84C1493.61,622.1,1496.78,615.19,1505.55,613.99L1505.55,613.99z"/>
		<path id="path8666" inkscape:connector-curvature="0" sodipodi:nodetypes="cccccccc" class="st1" d="M1548.47,736.75
			c-1.58,3.47-1.76,9.41,2.97,10.21c3.56,0.46,5.01-1.2,5.3-3.74c0.14-0.74,0.56-0.79,0.69,0.06c0.2,2.61,2.79,4.13,4.81,3.75
			c5.53-0.95,5.2-7.03,3.4-11.16c-2.73-5.48-5.6-8.94-8.24-14.45C1554.36,727.16,1550.89,731.83,1548.47,736.75L1548.47,736.75z"/>
		<path id="path8620" inkscape:connector-curvature="0" sodipodi:nodetypes="ccccsccssc" class="st1" d="M1505.55,770.08
			c7.14,0.47,10.87-5.63,11.6-10.44c0.43-0.76,0.67-0.55,0.84,0.04c0.35,6.17,5.87,11.22,10.99,10.53
			c8.33-0.11,13.39-9.38,11.97-17.22c-1.74-9.58-6.9-15.35-10.81-21.29c-4.42-6.15-10.37-15.04-12.29-19.32
			c0,0-6.05,9.2-13.92,20.03c-5.26,7.24-9.47,15.08-9.87,21.84C1493.61,761.97,1496.78,768.89,1505.55,770.08L1505.55,770.08z"/>
		<path id="path8622" inkscape:connector-curvature="0" sodipodi:nodetypes="ccccsccssc" class="st1" d="M1394.01,770.08
			c7.14,0.47,10.87-5.63,11.6-10.44c0.43-0.76,0.67-0.55,0.84,0.04c0.35,6.17,5.87,11.22,10.99,10.53
			c8.33-0.11,13.39-9.38,11.97-17.22c-1.74-9.58-6.9-15.35-10.81-21.29c-4.42-6.15-10.37-15.04-12.29-19.32
			c0,0-6.05,9.2-13.92,20.03c-5.26,7.24-9.47,15.08-9.87,21.84C1382.08,761.97,1385.24,768.89,1394.01,770.08L1394.01,770.08z"/>
	</g>
</g>
</svg>
