<?xml version="1.0" encoding="utf-8"?>
<!-- Generator: Adobe Illustrator 23.0.1, SVG Export Plug-In . SVG Version: 6.00 Build 0)  -->
<svg version="1.1"
	 id="svg4423" inkscape:version="0.91 r13725" sodipodi:docname="8H.svg" xmlns:cc="http://creativecommons.org/ns#" xmlns:dc="http://purl.org/dc/elements/1.1/" xmlns:inkscape="http://www.inkscape.org/namespaces/inkscape" xmlns:rdf="http://www.w3.org/1999/02/22-rdf-syntax-ns#" xmlns:sodipodi="http://sodipodi.sourceforge.net/DTD/sodipodi-0.dtd" xmlns:svg="http://www.w3.org/2000/svg"
	 xmlns="http://www.w3.org/2000/svg" xmlns:xlink="http://www.w3.org/1999/xlink" x="0px" y="0px" viewBox="0 0 224.23 312.81"
	 style="enable-background:new 0 0 224.23 312.81;" xml:space="preserve">
<style type="text/css">
	.st0***REMOVED***fill:#FFFFFF;stroke:#000000;stroke-width:0.9967;***REMOVED***
	.st1***REMOVED***fill:#D40000;***REMOVED***
</style>
<sodipodi:namedview  bordercolor="#666666" borderopacity="1.0" fit-margin-bottom="0" fit-margin-left="0" fit-margin-right="0" fit-margin-top="0" id="base" inkscape:current-layer="layer1" inkscape:cx="-72.623523" inkscape:cy="5.6220393" inkscape:document-units="px" inkscape:pageopacity="0.0" inkscape:pageshadow="2" inkscape:snap-bbox="true" inkscape:snap-global="true" inkscape:snap-page="true" inkscape:window-height="800" inkscape:window-maximized="0" inkscape:window-width="735" inkscape:window-x="803" inkscape:window-y="66" inkscape:zoom="0.98994948" pagecolor="#ffffff" showgrid="false">
	</sodipodi:namedview>
<g id="layer1" transform="translate(-259.93473,-369.7772)" inkscape:groupmode="layer" inkscape:label="8H">
	<g id="g9013" transform="translate(-1313.6208,-113.66123)">
		<g id="g8854">
			<g id="g8836" transform="translate(-4683.8753,2918.9368)">
				<path id="rect6361" class="st0" d="M6268.56-2435h201.97c5.87,0,10.63,4.76,10.63,10.63v290.55c0,5.87-4.76,10.63-10.63,10.63
					h-201.97c-5.87,0-10.63-4.76-10.63-10.63v-290.55C6257.93-2430.24,6262.69-2435,6268.56-2435z"/>
				<g id="g8646" transform="matrix(0.30106207,0,0,0.30106207,5370.0941,-1979.9322)">
					<path id="path7112" inkscape:connector-curvature="0" sodipodi:nodetypes="zcszsczzzssssssssss" class="st1" d="
						M2971.74-1386.82c0.53-14.53,5.88-19.99,16.42-27.6c-8.41-5.96-11.95-14.74-11.23-22.21c1.73-18.09,15.98-27.14,31.51-26.75
						c15.53,0.39,28.91,12.5,29.96,25.65c0.91,11.44-2.56,16.95-10.82,22.97c9.81,8.11,16.08,13.45,15.84,27.77
						c-0.24,14.32-12.64,31.36-34.26,31.88C2987.53-1354.59,2971.21-1372.28,2971.74-1386.82L2971.74-1386.82z M3032.1-1386.77
						c0.93-13.16-10.92-22.04-24.29-22.18c-13.03-0.13-24.68,10.78-24.69,22.6c0,12.69,15.16,19.59,24.95,19.62
						C3019.97-1366.68,3031.31-1375.43,3032.1-1386.77L3032.1-1386.77z M3027.83-1433.85c0.26-11.09-10.15-19.03-20.89-18.71
						c-9.55,0.28-19.67,7.44-19.67,16.71c-0.01,11.59,11.5,17.38,21.31,17.6C3017.48-1418.05,3027.63-1425.47,3027.83-1433.85z"/>
					<path id="path7128" inkscape:connector-curvature="0" sodipodi:nodetypes="zcszsczzzssssssssss" class="st1" d="
						M3667.75-600.56c-0.53,14.53-5.88,19.99-16.42,27.6c8.41,5.96,11.95,14.74,11.23,22.21c-1.73,18.09-15.98,27.14-31.51,26.75
						c-15.53-0.39-28.91-12.5-29.96-25.65c-0.91-11.44,2.56-16.95,10.82-22.97c-9.81-8.11-16.08-13.45-15.84-27.77
						c0.24-14.32,12.64-31.36,34.26-31.88C3651.96-632.79,3668.28-615.1,3667.75-600.56L3667.75-600.56z M3607.39-600.61
						c-0.93,13.16,10.92,22.04,24.29,22.18c13.03,0.13,24.68-10.78,24.69-22.6c0-12.69-15.16-19.59-24.95-19.62
						C3619.52-620.7,3608.19-611.95,3607.39-600.61L3607.39-600.61z M3611.67-553.53c-0.26,11.09,10.15,19.03,20.89,18.71
						c9.55-0.28,19.67-7.44,19.67-16.71c0.01-11.59-11.5-17.38-21.31-17.6C3622.01-569.33,3611.86-561.91,3611.67-553.53z"/>
				</g>
			</g>
		</g>
		<path id="path8634" inkscape:connector-curvature="0" sodipodi:nodetypes="cccccccc" class="st1" d="M1583.64,546.85
			c-1.58-3.47-1.76-9.41,2.97-10.21c3.56-0.46,5.01,1.2,5.3,3.74c0.14,0.74,0.56,0.79,0.69-0.06c0.2-2.61,2.79-4.13,4.81-3.75
			c5.53,0.95,5.2,7.03,3.4,11.16c-2.73,5.48-5.6,8.94-8.24,14.45C1589.52,556.44,1586.05,551.77,1583.64,546.85L1583.64,546.85z"/>
		<path id="path8548" inkscape:connector-curvature="0" sodipodi:nodetypes="ccccsccssc" class="st1" d="M1618.61,511.57
			c7.14-0.47,10.87,5.63,11.6,10.44c0.43,0.76,0.67,0.55,0.84-0.04c0.35-6.17,5.87-11.22,10.99-10.53
			c8.33,0.11,13.39,9.38,11.97,17.22c-1.74,9.58-6.9,15.35-10.81,21.29c-4.42,6.15-10.37,15.04-12.29,19.32
			c0,0-6.05-9.2-13.92-20.03c-5.26-7.24-9.47-15.08-9.87-21.84C1606.68,519.69,1609.84,512.77,1618.61,511.57L1618.61,511.57z"/>
		<path id="path8550" inkscape:connector-curvature="0" sodipodi:nodetypes="ccccsccssc" class="st1" d="M1728.15,511.57
			c7.14-0.47,10.87,5.63,11.6,10.44c0.43,0.76,0.67,0.55,0.84-0.04c0.35-6.17,5.87-11.22,10.99-10.53
			c8.33,0.11,13.39,9.38,11.97,17.22c-1.74,9.58-6.9,15.35-10.81,21.29c-4.42,6.15-10.37,15.04-12.29,19.32
			c0,0-6.05-9.2-13.92-20.03c-5.26-7.24-9.47-15.08-9.87-21.84C1716.21,519.69,1719.38,512.77,1728.15,511.57L1728.15,511.57z"/>
		<path id="path8552" inkscape:connector-curvature="0" sodipodi:nodetypes="ccccsccssc" class="st1" d="M1672.8,561.7
			c7.14-0.47,10.87,5.63,11.6,10.44c0.43,0.76,0.67,0.55,0.84-0.04c0.35-6.17,5.87-11.22,10.99-10.53
			c8.33,0.11,13.39,9.38,11.97,17.22c-1.74,9.58-6.9,15.35-10.81,21.29c-4.42,6.15-10.37,15.04-12.29,19.32
			c0,0-6.05-9.2-13.92-20.03c-5.26-7.24-9.47-15.08-9.87-21.84C1660.86,569.81,1664.03,562.89,1672.8,561.7L1672.8,561.7z"/>
		<path id="path8554" inkscape:connector-curvature="0" sodipodi:nodetypes="ccccsccssc" class="st1" d="M1618.61,611.82
			c7.14-0.47,10.87,5.63,11.6,10.44c0.43,0.76,0.67,0.55,0.84-0.04c0.35-6.17,5.87-11.22,10.99-10.53
			c8.33,0.11,13.39,9.38,11.97,17.22c-1.74,9.58-6.9,15.35-10.81,21.29c-4.42,6.15-10.37,15.04-12.29,19.32
			c0,0-6.05-9.2-13.92-20.03c-5.26-7.24-9.47-15.08-9.87-21.84C1606.68,619.93,1609.84,613.02,1618.61,611.82L1618.61,611.82z"/>
		<path id="path8556" inkscape:connector-curvature="0" sodipodi:nodetypes="ccccsccssc" class="st1" d="M1728.15,611.82
			c7.14-0.47,10.87,5.63,11.6,10.44c0.43,0.76,0.67,0.55,0.84-0.04c0.35-6.17,5.87-11.22,10.99-10.53
			c8.33,0.11,13.39,9.38,11.97,17.22c-1.74,9.58-6.9,15.35-10.81,21.29c-4.42,6.15-10.37,15.04-12.29,19.32
			c0,0-6.05-9.2-13.92-20.03c-5.26-7.24-9.47-15.08-9.87-21.84C1716.21,619.93,1719.38,613.02,1728.15,611.82L1728.15,611.82z"/>
		<path id="path8614" inkscape:connector-curvature="0" sodipodi:nodetypes="ccccsccssc" class="st1" d="M1728.15,767.91
			c7.14,0.47,10.87-5.63,11.6-10.44c0.43-0.76,0.67-0.55,0.84,0.04c0.35,6.17,5.87,11.22,10.99,10.53
			c8.33-0.11,13.39-9.38,11.97-17.22c-1.74-9.58-6.9-15.35-10.81-21.29c-4.42-6.15-10.37-15.04-12.29-19.32
			c0,0-6.05,9.2-13.92,20.03c-5.26,7.24-9.47,15.08-9.87,21.84C1716.21,759.8,1719.38,766.72,1728.15,767.91L1728.15,767.91z"/>
		<path id="path8616" inkscape:connector-curvature="0" sodipodi:nodetypes="ccccsccssc" class="st1" d="M1672.8,718.61
			c7.14,0.47,10.87-5.63,11.6-10.44c0.43-0.76,0.67-0.55,0.84,0.04c0.35,6.17,5.87,11.22,10.99,10.53
			c8.33-0.11,13.39-9.38,11.97-17.22c-1.74-9.58-6.9-15.35-10.81-21.29c-4.42-6.15-10.37-15.04-12.29-19.32
			c0,0-6.05,9.2-13.92,20.03c-5.26,7.24-9.47,15.08-9.87,21.84C1660.86,710.5,1664.03,717.42,1672.8,718.61L1672.8,718.61z"/>
		<path id="path8618" inkscape:connector-curvature="0" sodipodi:nodetypes="ccccsccssc" class="st1" d="M1618.61,767.91
			c7.14,0.47,10.87-5.63,11.6-10.44c0.43-0.76,0.67-0.55,0.84,0.04c0.35,6.17,5.87,11.22,10.99,10.53
			c8.33-0.11,13.39-9.38,11.97-17.22c-1.74-9.58-6.9-15.35-10.81-21.29c-4.42-6.15-10.37-15.04-12.29-19.32
			c0,0-6.05,9.2-13.92,20.03c-5.26,7.24-9.47,15.08-9.87,21.84C1606.68,759.8,1609.84,766.72,1618.61,767.91L1618.61,767.91z"/>
		<path id="path8664" inkscape:connector-curvature="0" sodipodi:nodetypes="cccccccc" class="st1" d="M1772.45,737.7
			c-1.58,3.47-1.76,9.41,2.97,10.21c3.56,0.46,5.01-1.2,5.3-3.74c0.14-0.74,0.56-0.79,0.69,0.06c0.2,2.61,2.79,4.13,4.81,3.75
			c5.53-0.95,5.2-7.03,3.4-11.16c-2.73-5.48-5.6-8.94-8.24-14.45C1778.34,728.11,1774.87,732.78,1772.45,737.7L1772.45,737.7z"/>
	</g>
</g>
</svg>
