<?xml version="1.0" encoding="utf-8"?>
<!-- Generator: Adobe Illustrator 23.0.1, SVG Export Plug-In . SVG Version: 6.00 Build 0)  -->
<svg version="1.1"
	 id="svg4423" inkscape:version="0.91 r13725" sodipodi:docname="9H.svg" xmlns:cc="http://creativecommons.org/ns#" xmlns:dc="http://purl.org/dc/elements/1.1/" xmlns:inkscape="http://www.inkscape.org/namespaces/inkscape" xmlns:rdf="http://www.w3.org/1999/02/22-rdf-syntax-ns#" xmlns:sodipodi="http://sodipodi.sourceforge.net/DTD/sodipodi-0.dtd" xmlns:svg="http://www.w3.org/2000/svg"
	 xmlns="http://www.w3.org/2000/svg" xmlns:xlink="http://www.w3.org/1999/xlink" x="0px" y="0px" viewBox="0 0 224.23 312.81"
	 style="enable-background:new 0 0 224.23 312.81;" xml:space="preserve">
<style type="text/css">
	.st0***REMOVED***fill:#FFFFFF;stroke:#000000;stroke-width:0.9967;***REMOVED***
	.st1***REMOVED***fill:#D40000;***REMOVED***
</style>
<sodipodi:namedview  bordercolor="#666666" borderopacity="1.0" fit-margin-bottom="0" fit-margin-left="0" fit-margin-right="0" fit-margin-top="0" id="base" inkscape:current-layer="layer1" inkscape:cx="-64.720728" inkscape:cy="142.62344" inkscape:document-units="px" inkscape:pageopacity="0.0" inkscape:pageshadow="2" inkscape:snap-bbox="true" inkscape:snap-global="true" inkscape:snap-page="true" inkscape:window-height="800" inkscape:window-maximized="0" inkscape:window-width="735" inkscape:window-x="976" inkscape:window-y="63" inkscape:zoom="0.98994948" pagecolor="#ffffff" showgrid="false">
	</sodipodi:namedview>
<g id="layer1" transform="translate(-259.93475,-369.7772)" inkscape:groupmode="layer" inkscape:label="9H">
	<g id="g8993" transform="translate(-1536.8493,-113.66123)">
		<g id="g8871">
			<g id="g8817" transform="translate(-4683.8753,2918.9368)">
				<path id="rect6363" class="st0" d="M6491.79-2435h201.97c5.87,0,10.63,4.76,10.63,10.63v290.55c0,5.87-4.76,10.63-10.63,10.63
					h-201.97c-5.87,0-10.63-4.76-10.63-10.63v-290.55C6481.16-2430.24,6485.92-2435,6491.79-2435z"/>
				<g id="g8631" transform="matrix(0.30106207,0,0,0.30106207,5727.1309,-1950.5247)">
					<g id="g8685" transform="translate(-1267.7708,-112.90889)">
						<path id="path7114" inkscape:connector-curvature="0" sodipodi:nodetypes="ccsccccscccsssssss" class="st1" d="
							M3799.82-1365.61l10.05-3.13c3.79,9.95,11.46,12.88,19.57,12.25c14.56-1.13,19.39-17.1,20.48-31.22
							c-5.67,5.89-14.2,8.89-21.46,8.6c-23.19-1.23-29.13-19.45-29.34-38.53c-0.64-16.1,6.14-27.75,17.77-33.09
							c6.15-2.71,20.24-2.71,26.44,0.49c14.22,7.36,19.49,20.09,18.53,50.46c0.01,24.99-5.4,54.1-32.68,54.72
							C3813.41-1342.92,3801.43-1354.96,3799.82-1365.61L3799.82-1365.61z M3839.3-1392.99c4.73-2.94,7.4-5.7,9.53-9.84
							c1.74-3.4,2.33-5.16,1.83-12.19c-1.28-18.12-10.96-28.39-24.99-26.35c-7.83,1.14-12.1,5.44-14.56,13.45
							c-4.54,14.78,1.21,32.08,11.99,36.06C3827.95-1390.07,3835.43-1390.58,3839.3-1392.99z"/>
						<path id="path7130" inkscape:connector-curvature="0" sodipodi:nodetypes="ccsccccscccsssssss" class="st1" d="
							M4484.18-591.31l-10.05,3.13c-3.79-9.95-11.46-12.88-19.57-12.25c-14.56,1.13-19.39,17.1-20.48,31.22
							c5.67-5.89,14.2-8.89,21.46-8.6c23.19,1.23,29.13,19.45,29.34,38.53c0.64,16.1-6.14,27.75-17.77,33.09
							c-6.15,2.71-20.24,2.71-26.44-0.49c-14.22-7.36-19.49-20.09-18.53-50.46c-0.02-24.99,5.4-54.1,32.68-54.72
							C4470.59-614,4482.56-601.96,4484.18-591.31L4484.18-591.31z M4444.7-563.93c-4.73,2.94-7.4,5.7-9.52,9.84
							c-1.74,3.4-2.33,5.16-1.83,12.19c1.28,18.12,10.96,28.39,24.99,26.35c7.83-1.14,12.1-5.44,14.56-13.45
							c4.54-14.78-1.21-32.08-11.99-36.06C4456.04-566.86,4448.56-566.34,4444.7-563.93L4444.7-563.93z"/>
					</g>
				</g>
			</g>
		</g>
		<path id="path8636" inkscape:connector-curvature="0" sodipodi:nodetypes="cccccccc" class="st1" d="M1805.87,542.26
			c-1.58-3.47-1.76-9.41,2.97-10.21c3.56-0.46,5.01,1.2,5.3,3.74c0.14,0.74,0.56,0.79,0.69-0.06c0.2-2.61,2.79-4.13,4.81-3.75
			c5.53,0.95,5.2,7.03,3.4,11.16c-2.73,5.48-5.6,8.94-8.24,14.45C1811.75,551.85,1808.28,547.19,1805.87,542.26L1805.87,542.26z"/>
		<path id="path8558" inkscape:connector-curvature="0" sodipodi:nodetypes="ccccsccssc" class="st1" d="M1842.13,512.61
			c7.14-0.47,10.87,5.63,11.6,10.44c0.43,0.76,0.67,0.55,0.84-0.04c0.35-6.17,5.87-11.22,10.99-10.53
			c8.33,0.11,13.39,9.38,11.97,17.22c-1.74,9.58-6.9,15.35-10.81,21.29c-4.42,6.15-10.37,15.04-12.29,19.32
			c0,0-6.05-9.2-13.92-20.03c-5.26-7.24-9.47-15.08-9.87-21.84C1830.2,520.72,1833.36,513.81,1842.13,512.61L1842.13,512.61z"/>
		<path id="path8560" inkscape:connector-curvature="0" sodipodi:nodetypes="ccccsccssc" class="st1" d="M1951.67,512.61
			c7.14-0.47,10.87,5.63,11.6,10.44c0.43,0.76,0.67,0.55,0.84-0.04c0.35-6.17,5.87-11.22,10.99-10.53
			c8.33,0.11,13.39,9.38,11.97,17.22c-1.74,9.58-6.9,15.35-10.81,21.29c-4.42,6.15-10.37,15.04-12.29,19.32
			c0,0-6.05-9.2-13.92-20.03c-5.26-7.24-9.47-15.08-9.87-21.84C1939.73,520.72,1942.9,513.81,1951.67,512.61L1951.67,512.61z"/>
		<path id="path8562" inkscape:connector-curvature="0" sodipodi:nodetypes="ccccsccssc" class="st1" d="M1951.67,577.94
			c7.14-0.47,10.87,5.63,11.6,10.44c0.43,0.76,0.67,0.55,0.84-0.04c0.35-6.17,5.87-11.22,10.99-10.53
			c8.33,0.11,13.39,9.38,11.97,17.22c-1.74,9.58-6.9,15.35-10.81,21.29c-4.42,6.15-10.37,15.04-12.29,19.32
			c0,0-6.05-9.2-13.92-20.03c-5.26-7.24-9.47-15.08-9.87-21.84C1939.73,586.06,1942.9,579.14,1951.67,577.94L1951.67,577.94z"/>
		<path id="path8564" inkscape:connector-curvature="0" sodipodi:nodetypes="ccccsccssc" class="st1" d="M1896.85,611.1
			c7.14-0.47,10.87,5.63,11.6,10.44c0.43,0.76,0.67,0.55,0.84-0.04c0.35-6.17,5.87-11.22,10.99-10.53
			c8.33,0.11,13.39,9.38,11.97,17.22c-1.74,9.58-6.9,15.35-10.81,21.29c-4.42,6.15-10.37,15.04-12.29,19.32
			c0,0-6.05-9.2-13.92-20.03c-5.26-7.24-9.47-15.08-9.87-21.84C1884.91,619.21,1888.08,612.29,1896.85,611.1L1896.85,611.1z"/>
		<path id="path8566" inkscape:connector-curvature="0" sodipodi:nodetypes="ccccsccssc" class="st1" d="M1842.13,577.94
			c7.14-0.47,10.87,5.63,11.6,10.44c0.43,0.76,0.67,0.55,0.84-0.04c0.35-6.17,5.87-11.22,10.99-10.53
			c8.33,0.11,13.39,9.38,11.97,17.22c-1.74,9.58-6.9,15.35-10.81,21.29c-4.42,6.15-10.37,15.04-12.29,19.32
			c0,0-6.05-9.2-13.92-20.03c-5.26-7.24-9.47-15.08-9.87-21.84C1830.2,586.06,1833.36,579.14,1842.13,577.94L1842.13,577.94z"/>
		<path id="path8606" inkscape:connector-curvature="0" sodipodi:nodetypes="ccccsccssc" class="st1" d="M1951.67,702.33
			c7.14,0.47,10.87-5.63,11.6-10.44c0.43-0.76,0.67-0.55,0.84,0.04c0.35,6.17,5.87,11.22,10.99,10.53
			c8.33-0.11,13.39-9.38,11.97-17.22c-1.74-9.58-6.9-15.35-10.81-21.29c-4.42-6.15-10.37-15.04-12.29-19.32
			c0,0-6.05,9.2-13.92,20.03c-5.26,7.24-9.47,15.08-9.87,21.84C1939.73,694.22,1942.9,701.14,1951.67,702.33L1951.67,702.33z"/>
		<path id="path8608" inkscape:connector-curvature="0" sodipodi:nodetypes="ccccsccssc" class="st1" d="M1951.67,767.44
			c7.14,0.47,10.87-5.63,11.6-10.44c0.43-0.76,0.67-0.55,0.84,0.04c0.35,6.17,5.87,11.22,10.99,10.53
			c8.33-0.11,13.39-9.38,11.97-17.22c-1.74-9.58-6.9-15.35-10.81-21.29c-4.42-6.15-10.37-15.04-12.29-19.32
			c0,0-6.05,9.2-13.92,20.03c-5.26,7.24-9.47,15.08-9.87,21.84C1939.73,759.33,1942.9,766.24,1951.67,767.44L1951.67,767.44z"/>
		<path id="path8610" inkscape:connector-curvature="0" sodipodi:nodetypes="ccccsccssc" class="st1" d="M1842.13,767.44
			c7.14,0.47,10.87-5.63,11.6-10.44c0.43-0.76,0.67-0.55,0.84,0.04c0.35,6.17,5.87,11.22,10.99,10.53
			c8.33-0.11,13.39-9.38,11.97-17.22c-1.74-9.58-6.9-15.35-10.81-21.29c-4.42-6.15-10.37-15.04-12.29-19.32
			c0,0-6.05,9.2-13.92,20.03c-5.26,7.24-9.47,15.08-9.87,21.84C1830.2,759.33,1833.36,766.24,1842.13,767.44L1842.13,767.44z"/>
		<path id="path8612" inkscape:connector-curvature="0" sodipodi:nodetypes="ccccsccssc" class="st1" d="M1842.13,702.33
			c7.14,0.47,10.87-5.63,11.6-10.44c0.43-0.76,0.67-0.55,0.84,0.04c0.35,6.17,5.87,11.22,10.99,10.53
			c8.33-0.11,13.39-9.38,11.97-17.22c-1.74-9.58-6.9-15.35-10.81-21.29c-4.42-6.15-10.37-15.04-12.29-19.32
			c0,0-6.05,9.2-13.92,20.03c-5.26,7.24-9.47,15.08-9.87,21.84C1830.2,694.22,1833.36,701.14,1842.13,702.33L1842.13,702.33z"/>
		<path id="path8662" inkscape:connector-curvature="0" sodipodi:nodetypes="cccccccc" class="st1" d="M1994.68,733.12
			c-1.58,3.47-1.76,9.41,2.97,10.21c3.56,0.46,5.01-1.2,5.3-3.74c0.14-0.74,0.56-0.79,0.69,0.06c0.2,2.61,2.79,4.13,4.81,3.75
			c5.53-0.95,5.2-7.03,3.4-11.16c-2.73-5.48-5.6-8.94-8.24-14.45C2000.57,723.53,1997.1,728.19,1994.68,733.12L1994.68,733.12z"/>
	</g>
</g>
</svg>
