<?xml version="1.0" encoding="utf-8"?>
<!-- Generator: Adobe Illustrator 23.0.1, SVG Export Plug-In . SVG Version: 6.00 Build 0)  -->
<svg version="1.1"
	 id="svg4423" inkscape:version="0.91 r13725" sodipodi:docname="AH.svg" xmlns:cc="http://creativecommons.org/ns#" xmlns:dc="http://purl.org/dc/elements/1.1/" xmlns:inkscape="http://www.inkscape.org/namespaces/inkscape" xmlns:rdf="http://www.w3.org/1999/02/22-rdf-syntax-ns#" xmlns:sodipodi="http://sodipodi.sourceforge.net/DTD/sodipodi-0.dtd" xmlns:svg="http://www.w3.org/2000/svg"
	 xmlns="http://www.w3.org/2000/svg" xmlns:xlink="http://www.w3.org/1999/xlink" x="0px" y="0px" viewBox="0 0 224.23 312.81"
	 style="enable-background:new 0 0 224.23 312.81;" xml:space="preserve">
<style type="text/css">
	.st0***REMOVED***fill:#FFFFFF;stroke:#000000;stroke-width:0.9967;***REMOVED***
	.st1***REMOVED***fill:#D40000;***REMOVED***
</style>
<sodipodi:namedview  bordercolor="#666666" borderopacity="1.0" fit-margin-bottom="0" fit-margin-left="0" fit-margin-right="0" fit-margin-top="0" id="base" inkscape:current-layer="layer1" inkscape:cx="-21.712767" inkscape:cy="72.656164" inkscape:document-units="px" inkscape:pageopacity="0.0" inkscape:pageshadow="2" inkscape:snap-bbox="true" inkscape:snap-global="true" inkscape:snap-page="true" inkscape:window-height="800" inkscape:window-maximized="0" inkscape:window-width="735" inkscape:window-x="784" inkscape:window-y="63" inkscape:zoom="0.98994948" pagecolor="#ffffff" showgrid="false">
	</sodipodi:namedview>
<g id="layer1" transform="translate(-259.93472,-369.77721)" inkscape:groupmode="layer" inkscape:label="Layer 1">
	<g id="g8889" transform="translate(-1090.3923,198.14981)">
		<g id="g8763">
			<g id="g8869" transform="translate(-4683.8753,2918.9368)">
				<path id="rect3232" class="st0" d="M6045.33-2746.81h201.97c5.87,0,10.63,4.76,10.63,10.63v290.55
					c0,5.87-4.76,10.63-10.63,10.63h-201.97c-5.87,0-10.63-4.76-10.63-10.63v-290.55
					C6034.7-2742.05,6039.46-2746.81,6045.33-2746.81z"/>
				<g id="g8567" transform="matrix(0.30106207,0,0,0.30106207,5730.6419,-1948.1116)">
					<path id="path7183" inkscape:connector-curvature="0" sodipodi:nodetypes="ccccccccccccccccccccc" class="st1" d="
						M1033.99-2499.93v-9.09h8.84l18.81-97.23h10.7l20.74,97.23h7.13v9.09h-24.31v-9.09h6.57l-2.62-14.9h-24.53l-1.89,14.9h6.57
						v9.09H1033.99z M1077.76-2534.53l-10.66-52.05l-9.99,52.05H1077.76z"/>
					<path id="path7186" inkscape:connector-curvature="0" sodipodi:nodetypes="ccccccccccccccccccccc" class="st1" d="
						M1727.39-1770.25v9.09h-8.84l-18.81,97.23h-10.7l-20.74-97.23h-7.13v-9.09h24.31v9.09h-6.57l2.62,14.9h24.53l1.89-14.9h-6.57
						v-9.09H1727.39z M1683.62-1735.65l10.66,52.05l9.99-52.05H1683.62z"/>
				</g>
			</g>
		</g>
		<path id="path8626" inkscape:connector-curvature="0" sodipodi:nodetypes="cccccccc" class="st1" d="M1359.11,232.88
			c-1.58-3.47-1.76-9.41,2.97-10.21c3.56-0.46,5.01,1.2,5.3,3.74c0.14,0.74,0.56,0.79,0.69-0.06c0.2-2.61,2.79-4.13,4.81-3.75
			c5.53,0.95,5.2,7.03,3.4,11.16c-2.73,5.48-5.6,8.94-8.24,14.45C1364.99,242.47,1361.53,237.81,1359.11,232.88L1359.11,232.88z"/>
		<path id="path8512" inkscape:connector-curvature="0" sodipodi:nodetypes="ccccsccssc" class="st1" d="M1450.39,299.28
			c7.14-0.47,10.87,5.63,11.6,10.44c0.43,0.76,0.67,0.55,0.84-0.04c0.35-6.17,5.87-11.22,10.99-10.53
			c8.33,0.11,13.39,9.38,11.97,17.22c-1.74,9.58-6.9,15.35-10.81,21.29c-4.42,6.15-10.37,15.04-12.29,19.32
			c0,0-6.05-9.2-13.92-20.03c-5.26-7.24-9.47-15.08-9.87-21.84C1438.45,307.4,1441.62,300.48,1450.39,299.28L1450.39,299.28z"/>
		<path id="path8648" inkscape:connector-curvature="0" sodipodi:nodetypes="cccccccc" class="st1" d="M1547.49,423.57
			c-1.58,3.47-1.76,9.41,2.97,10.21c3.56,0.46,5.01-1.2,5.3-3.74c0.14-0.74,0.56-0.79,0.69,0.06c0.2,2.61,2.79,4.13,4.81,3.75
			c5.53-0.95,5.2-7.03,3.4-11.16c-2.73-5.48-5.6-8.94-8.24-14.45C1553.37,413.98,1549.9,418.64,1547.49,423.57L1547.49,423.57z"/>
	</g>
</g>
</svg>
