<?xml version="1.0" encoding="utf-8"?>
<!-- Generator: Adobe Illustrator 23.0.1, SVG Export Plug-In . SVG Version: 6.00 Build 0)  -->
<svg version="1.1"
	 id="svg4423" inkscape:version="0.91 r13725" sodipodi:docname="2H.svg" xmlns:cc="http://creativecommons.org/ns#" xmlns:dc="http://purl.org/dc/elements/1.1/" xmlns:inkscape="http://www.inkscape.org/namespaces/inkscape" xmlns:rdf="http://www.w3.org/1999/02/22-rdf-syntax-ns#" xmlns:sodipodi="http://sodipodi.sourceforge.net/DTD/sodipodi-0.dtd" xmlns:svg="http://www.w3.org/2000/svg"
	 xmlns="http://www.w3.org/2000/svg" xmlns:xlink="http://www.w3.org/1999/xlink" x="0px" y="0px" viewBox="0 0 224.23 312.81"
	 style="enable-background:new 0 0 224.23 312.81;" xml:space="preserve">
<style type="text/css">
	.st0{fill:#FFFFFF;stroke:#000000;stroke-width:0.9967;}
	.st1{fill:#D40000;}
	.st2{fill:#FF009C;}
	.st3{fill:#00FF0A;}
	.st4{fill:#FF9E00;}
	.st5{fill:#0072FF;}
	.st6{fill:#FFFF00;}
</style>
<sodipodi:namedview  bordercolor="#666666" borderopacity="1.0" fit-margin-bottom="0" fit-margin-left="0" fit-margin-right="0" fit-margin-top="0" id="base" inkscape:current-layer="layer1" inkscape:cx="-11.449893" inkscape:cy="122.30866" inkscape:document-units="px" inkscape:pageopacity="0.0" inkscape:pageshadow="2" inkscape:snap-bbox="true" inkscape:snap-global="true" inkscape:snap-page="true" inkscape:window-height="800" inkscape:window-maximized="0" inkscape:window-width="690" inkscape:window-x="935" inkscape:window-y="42" inkscape:zoom="0.98994948" pagecolor="#ffffff" showgrid="false">
	</sodipodi:namedview>
<g>
	<path id="rect6347" class="st0" d="M11.13,0.5H213.1c5.87,0,10.63,4.76,10.63,10.63v290.55c0,5.87-4.76,10.63-10.63,10.63H11.13
		c-5.87,0-10.63-4.76-10.63-10.63V11.13C0.5,5.26,5.26,0.5,11.13,0.5z"/>
	<path class="st1" d="M15.83,12.1h1.47v19.82c0,2.04-0.09,3.43-0.26,4.18c-0.17,0.74-0.47,1.11-0.9,1.11c-0.34,0-0.6-0.22-0.77-0.66
		c-0.17-0.44-0.26-1.12-0.28-2.06h-0.85v3.53c0.38,0.34,0.75,0.59,1.12,0.76c0.37,0.17,0.74,0.25,1.11,0.25
		c1.2,0,2.07-0.56,2.61-1.68c0.54-1.12,0.81-2.89,0.81-5.31V12.1h1.28v-1.82h-5.35V12.1z"/>
	<path class="st1" d="M27.64,9.85c-1.68,0-2.99,1.03-3.95,3.09c-0.95,2.06-1.43,4.9-1.43,8.52c0,3.62,0.48,6.45,1.43,8.51
		c0.95,2.06,2.27,3.09,3.95,3.09c1.68,0,3-1.03,3.95-3.09c0.96-2.06,1.44-4.89,1.44-8.51c0-3.62-0.48-6.47-1.43-8.52
		C30.65,10.88,29.33,9.85,27.64,9.85z M29.55,28.83c-0.41,1.61-1.05,2.41-1.91,2.41c-0.85,0-1.48-0.81-1.89-2.43
		c-0.41-1.62-0.62-4.07-0.62-7.34c0-3.28,0.21-5.73,0.62-7.36c0.41-1.62,1.04-2.43,1.89-2.43c0.86,0,1.49,0.8,1.91,2.41
		c0.41,1.61,0.62,4.07,0.62,7.38C30.17,24.76,29.96,27.22,29.55,28.83z"/>
	<polygon class="st1" points="39.39,30.81 38.11,30.81 38.11,21.77 42.55,32.63 45.93,32.63 45.93,30.81 44.96,30.81 40.07,18.99 
		43.66,12.1 44.99,12.1 44.99,10.28 41.27,10.28 41.27,12.1 42.34,12.1 38.11,20.25 38.11,12.1 39.39,12.1 39.39,10.28 34.27,10.28 
		34.27,12.1 35.55,12.1 35.55,30.81 34.27,30.81 34.27,32.63 39.39,32.63 	"/>
	<polygon class="st1" points="55.24,27.36 54.31,27.36 54.31,30.58 50.01,30.58 50.01,21.55 52.6,21.55 52.6,24.38 53.53,24.38 
		53.53,16.67 52.6,16.67 52.6,19.5 50.01,19.5 50.01,12.33 54.19,12.33 54.19,15.55 55.12,15.55 55.12,10.28 46.17,10.28 
		46.17,12.1 47.45,12.1 47.45,30.81 46.17,30.81 46.17,32.63 55.24,32.63 	"/>
	<path class="st1" d="M61.72,30.81h-1.28v-8.17h0.42c0.38,0,0.68,0.19,0.9,0.58c0.22,0.38,0.48,1.27,0.8,2.67l1.6,6.75h3.28v-1.82
		h-1.03l-1.45-6.22c-0.2-0.87-0.43-1.53-0.71-1.98c-0.27-0.46-0.6-0.75-0.99-0.88c0.89-0.26,1.56-0.84,2.01-1.75
		c0.45-0.9,0.67-2.14,0.67-3.69c0-1.92-0.32-3.4-0.95-4.44c-0.63-1.04-1.53-1.57-2.69-1.57h-5.7v1.82h1.28v18.71h-1.28v1.82h5.11
		V30.81z M60.44,12.1h0.88c0.63,0,1.12,0.38,1.47,1.12c0.35,0.75,0.52,1.83,0.52,3.24s-0.17,2.49-0.52,3.25
		c-0.35,0.76-0.84,1.14-1.47,1.14h-0.88V12.1z"/>
	<polygon class="st1" points="132.16,256.13 131.2,257.98 132.19,264.42 134.76,263.97 139.87,260.51 134.19,255.11 	"/>
	<path class="st1" d="M115.68,190.16l5.61-4.26l5.07-6.5l-0.04-4.04l0.18-3.36l2.56-1.84l2.55-0.4l2.33,2.02l-0.31,3.59l-4.13,3.23
		l0.45,6.82l1.75,4.57l1.39,0.81l7.58-6.41l2.02-3.63l-1.88-6.14l1.84-2.82l2.51-0.81l3.27,2.65l0.04,1.84l-1.93,4.57l2.06,7.04
		l3.72,5.29l1.88-0.04l3.59-6.64l0.9-4.98l-1.97-3.23l-0.22-1.97l1.52-2.42l2.42-0.04l1.44,2.51l-1.03,3.36l0.31,4.3l5.47,5.65
		l6.05,2.83l0.99-0.81l-2.6-4.66l-7.4-18.39l-0.9-8.25l-1.12-6.64l-3.54-5.7l-7.8-5.16l0.09-7.89l0.9-4.71l8.07-5.47l3.32,0.18
		l4.08,3l1.79,4.62l-0.4,0.67l-2.29,0.04l-2.55,1.44l-0.94,3.81l1.88,3.27l3.05,1.3l3.27-1.39l0.94-2.42l-0.18-4.75l1.52-2.15
		l0.99-6.01l-2.02-5.56l-1.34-5.43l1-3.85l6.43-8.85l0.38,0.46l2.33-5.29l1.26-8.7l-1.26-6.82l-3.32-5.78l-0.27-1.75l0.54-4.13
		c0,0-1.75-2.15-2.06-2.42c-0.31-0.27-2.6-0.63-2.96-0.63l-2.78,1.3l-1.75,3.95l2.51,3.72l4.31,0.54l0.4,0.49l-0.94,4.62l-4.13,4.22
		l-4.27,1.36l-0.04-0.05l-4.25,0.77l-9-2.28l-0.23,0.21l-0.42-0.49l-0.56,0.5c0.22-0.25,0.33-0.41,0.29-0.43l-3.59-0.04l-9.42,2.38
		l-2.56-1.53l-1.17-3.95l0.58-4.57l0.81-0.31l4.13,1.66l3.59-1.52l0.94-4.31l-1.88-3l-2.96-0.81l-2.42,1.12l-2.33,3.5l-5.79,2.51
		l-2.47,3.41l-1.26,3.54l-0.09,6.32l2.82,5.97l-0.04,2.06l-4.39,6.82l-2.2,7.76l-2.92,2.51l-0.18,3.95l-0.27,0.67l-5.38,1.03
		l-1.7,2.2l0.09,2.65l-4.13-2.47l-5.43-1.12l-5.34,1.03l-12.25,5.65l-6.23,1.66l-5.43-0.14l-0.99,0.49l1.57,2.6l4.17,4.04l2.2-0.14
		l4.22-1.25l2.56,1.66l0.22,1.79l-0.63,1.75l-1.88,1.97l-4.71,0.4l-2.87,3.19l-1.75,1.52l-1.8,3.35l2.35-11.31l-2.79-4.75
		l-3.96-0.89l-4.3,15.13l-0.54,0.88l3.72-14.27l-3.59-4.16l1.77-23.34l-1.4-2.08l-6.08,1.92l-1.09,1.77l-4.99,14.14l-4.11,20.06
		l0.52,4.37l10.76,4.05l4.13-1.87l-10.1,16.5l-13.74,12.4l1.73,2.35h10.78l12.23-12.56l6.96-12.96l-0.09,0.33l10.27-1.88l4.26-2.78
		l2.29-5.02l2.87-1.39l3.05,1.34l0.99,3.36l-2.06,3.54l-5.07,0.72l-4.3,4.26l-3.27,9.46l1.57,1.48l10.99-3.36l4.22-2.92l0.58-3.05
		l1.08-2.06l3.09-1.75l3.41,1.52l0.94,2.56l-1.71,3.27l-5.29,1.57l-2.33,3.36l-2.78,8.83l-0.04,5.11l3.5-0.54l7.94-3.77l3.05-2.56
		l2.06-2.29l-0.94-4.04l1.26-2.96l2.82-1.79l3.23,0.99l1.57,2.51l-1.44,2.82l-4.93,2.6l0.18,12.38l0.99,2.96L115.68,190.16z
		 M127.57,111.14l3.25-7.2l4.33-6.39l7.27-4.04c0.15,0,0.45-0.17,0.85-0.44l0.49,0.57l0.33-0.29l5.21-0.34l2.93,2.34l-0.62,3.46
		l0.24,1.44l3.42,0.32l4.01,1.93l0.6,3.77l-1.69,5.66l-4.47,5.79l-8.82,5.61l-8.05,1.41l-6.44-1.32l-3.03-4.3L127.57,111.14z"/>
	<polygon class="st1" points="147.23,190.12 145.65,188.69 140.7,189.91 138.97,191.2 139.12,194.29 142.85,200.96 144.15,210.3 
		143.21,218.62 140.56,230.33 137.61,239.01 134.31,244.47 132.59,247.27 132.16,250.14 138.12,246.05 143,239.73 146.01,232.41 
		150.1,215.82 150.82,205.63 149.89,200.18 	"/>
	<polygon class="st1" points="107.04,67.19 109.16,62.63 106.4,56.37 101.38,55.93 98.99,59.87 100.11,66.34 	"/>
	<polygon class="st1" points="118.13,59.33 122.19,55.68 123.37,52.32 123.35,50.33 122.77,48.2 121.13,47.63 117,49.63 116.5,54.8 
		113.03,58.2 110.49,58.99 111,60.96 	"/>
	<path class="st1" d="M79.37,81.83c0.94-0.57,1.34-1.6,0.9-2.32s-1.55-0.84-2.49-0.27c-0.94,0.57-1.34,1.6-0.9,2.32
		C77.32,82.27,78.44,82.39,79.37,81.83z"/>
	<path class="st1" d="M86.47,75.9c0.58,0,1.05-0.54,1.05-1.21c0-0.67-0.47-1.21-1.05-1.21s-1.05,0.54-1.05,1.21
		C85.42,75.36,85.89,75.9,86.47,75.9z"/>
	<path class="st1" d="M71.26,87.82c0.39-0.16,0.82-0.46,1.1-0.78c0.28-0.32,0.38-0.61,0.26-0.75c-0.09-0.17-0.39-0.18-0.78-0.02
		c-0.39,0.16-0.82,0.46-1.1,0.78c-0.28,0.32-0.38,0.61-0.26,0.75C70.57,87.97,70.87,87.98,71.26,87.82z"/>
	<polygon class="st1" points="52.61,103.22 57.56,98.63 55.25,96.3 50.3,100.9 	"/>
	<polygon class="st1" points="42.2,110.83 49.41,105.02 47.35,102.65 40.15,108.46 	"/>
	<path class="st1" d="M36.86,114.36c0.44-0.12,0.85-0.45,1.06-0.87c0.21-0.41,0.19-0.84-0.05-1.11c-0.2-0.3-0.61-0.41-1.05-0.29
		c-0.44,0.12-0.85,0.45-1.06,0.87c-0.21,0.41-0.19,0.84,0.05,1.11C36.02,114.36,36.42,114.48,36.86,114.36z"/>
	<polygon class="st1" points="41.79,188.48 39.04,187.02 37.13,187.7 36.59,188.97 36.33,194.25 38.99,196.02 44.3,193.26 
		44.27,190.8 	"/>
	<path class="st1" d="M72.62,223.03c1.19-2.58,0.15-5.6-2.31-6.72c-2.47-1.13-5.43,0.04-6.61,2.62c1.18-2.6,0.15-5.6-2.31-6.72
		c-2.46-1.14-5.42,0.05-6.61,2.62c-2.49,5.49,2.56,12.61,2.59,17.87C61.39,229.31,70.07,228.49,72.62,223.03z"/>
	<path class="st1" d="M82.13,245.73c-2.25-1.08-4.33-2.51-6.19-4.17c-0.71-0.7-1.52-1.43-1.8-2.42c0.3,1.25-0.12,2.55-0.54,3.72
		c-0.94,2.35-2.33,4.51-3.91,6.49c-0.72,0.8-1.46,1.74-2.53,2.07c1.39-0.31,2.78,0.26,4.04,0.8c2.25,1.08,4.33,2.51,6.19,4.17
		c0.71,0.7,1.52,1.43,1.8,2.42c-0.33-1.48,0.24-2.97,0.79-4.32c1.02-2.26,2.37-4.37,3.97-6.25c0.64-0.67,1.3-1.44,2.22-1.7
		C84.78,246.84,83.38,246.27,82.13,245.73z"/>
	<path class="st1" d="M204.05,273.28c-0.37-0.17-0.74-0.25-1.11-0.25c-1.2,0-2.07,0.56-2.61,1.68c-0.54,1.12-0.81,2.89-0.81,5.31
		v19.94h-1.28v1.82h5.35v-1.82h-1.47v-19.82c0-2.04,0.09-3.43,0.26-4.18c0.17-0.74,0.47-1.11,0.9-1.11c0.34,0,0.6,0.22,0.77,0.66
		c0.17,0.44,0.26,1.12,0.28,2.06h0.85v-3.53C204.79,273.7,204.42,273.45,204.05,273.28z"/>
	<path class="st1" d="M191.77,279c-1.68,0-3,1.03-3.95,3.09c-0.96,2.06-1.44,4.89-1.44,8.51c0,3.62,0.48,6.47,1.43,8.52
		c0.95,2.06,2.27,3.09,3.96,3.09c1.68,0,2.99-1.03,3.95-3.09c0.95-2.06,1.43-4.9,1.43-8.52c0-3.62-0.48-6.45-1.43-8.51
		C194.76,280.03,193.44,279,191.77,279z M193.66,297.95c-0.41,1.62-1.04,2.43-1.89,2.43c-0.86,0-1.49-0.8-1.91-2.41
		c-0.41-1.61-0.62-4.07-0.62-7.38c0-3.3,0.21-5.76,0.62-7.37c0.41-1.61,1.05-2.41,1.91-2.41c0.85,0,1.48,0.81,1.89,2.43
		c0.41,1.62,0.62,4.07,0.62,7.34C194.28,293.88,194.07,296.33,193.66,297.95z"/>
	<polygon class="st1" points="180.03,281.25 181.3,281.25 181.3,290.28 176.86,279.42 173.48,279.42 173.48,281.25 174.45,281.25 
		179.34,293.06 175.76,299.96 174.42,299.96 174.42,301.78 178.14,301.78 178.14,299.96 177.07,299.96 181.3,291.8 181.3,299.96 
		180.03,299.96 180.03,301.78 185.14,301.78 185.14,299.96 183.86,299.96 183.86,281.25 185.14,281.25 185.14,279.42 180.03,279.42 
			"/>
	<polygon class="st1" points="164.17,284.69 165.1,284.69 165.1,281.48 169.4,281.48 169.4,290.5 166.81,290.5 166.81,287.68 
		165.88,287.68 165.88,295.39 166.81,295.39 166.81,292.56 169.4,292.56 169.4,299.72 165.22,299.72 165.22,296.51 164.29,296.51 
		164.29,301.78 173.24,301.78 173.24,299.96 171.96,299.96 171.96,281.25 173.24,281.25 173.24,279.42 164.17,279.42 	"/>
	<path class="st1" d="M157.69,281.25h1.28v8.17h-0.42c-0.38,0-0.68-0.19-0.9-0.58c-0.22-0.38-0.48-1.27-0.8-2.67l-1.6-6.75h-3.28
		v1.82H153l1.45,6.22c0.2,0.87,0.43,1.53,0.71,1.98c0.27,0.46,0.6,0.75,0.99,0.88c-0.89,0.26-1.56,0.84-2.01,1.75
		s-0.67,2.14-0.67,3.69c0,1.92,0.32,3.4,0.95,4.44c0.63,1.04,1.53,1.57,2.69,1.57h5.7v-1.82h-1.28v-18.71h1.28v-1.82h-5.11V281.25z
		 M158.97,299.96h-0.88c-0.63,0-1.12-0.38-1.47-1.12c-0.35-0.75-0.52-1.83-0.52-3.24s0.17-2.49,0.52-3.25
		c0.35-0.76,0.84-1.14,1.47-1.14h0.88V299.96z"/>
	<g id="use3245" transform="matrix(0.79970259,0,0,0.79970259,-150.56829,-578.44249)">
		<g>
			<path d="M329.59,789.11l1.3,2.27C333.01,790.08,331.86,788.03,329.59,789.11z"/>
			<path d="M356.64,888.2c1.31-1.44-6.02-3.61-7.01-2.67c-0.77,0.72,0.56,1.67,1.06,1.98C352.07,888.28,355.23,889.74,356.64,888.2z
				"/>
			<path d="M383.33,848.82c-1.81-0.49-3.84-0.31-5.05-0.31c0.24-1.89,1.36-4.29,0.65-6.17c-2.3-6.58-14.09-2.27-17.85-0.07
				c-9.13,5.38-15.26,16.81-13.77,27.34c0.21,1.45-0.19,2.77,0.37,4.22c2.53,6.49,11.37,5.86,16.97,5.25
				c12.44-1.36,26.82-15.25,23.05-28.3C387.7,850.79,385.68,849.45,383.33,848.82z M360.95,846.14c0.68-0.68,1.07-0.41,1.43-0.28
				c0.37,0.13,1.25,0.65,1.25,0.65s-0.78-0.11-1.68,0.7c-0.9,0.81-0.94,1.52-0.94,1.52s-0.4-0.86-0.45-1.31
				C360.48,846.8,360.26,846.83,360.95,846.14z M364.2,847.18c0,0,0.49,0.56,1.05,2.25c0.3,0.91,0.64,2.66,0.57,3.04
				c-0.07,0.39-0.2,0.73-0.43,0.9c-0.23,0.17-0.44-0.02-0.83-0.14c-0.39-0.13-1.28-1.06-1.76-1.62c-0.48-0.55-1.52-2.05-1.52-2.05
				s0.98,0.32,1.92-0.53C364.16,848.17,364.2,847.18,364.2,847.18z M383.24,865.72c-6.3,8.49-21.27,17.32-31.9,10.71
				c-2.65-1.7-3.25-5.19-3.25-8.12c-0.01-6.3,1.6-10.62,4.96-15.91c1.1-1.73,2.83-5.67,5.08-6.11c0.99-0.2,1.45,1.89,1.74,2.54
				c1.07,2.52,2.34,4.7,5.09,5.52l-3.57,3.57c3.38-0.58,7.74-2.59,9.23-5.84c1.48-3.36-1.6-9.09-5.33-9.41
				c0.85,3.06,7.03,8.76,1.3,10.71c0-4.02-0.65-8.32-5.52-8.44c1.42-4.73,13.63-6.42,16.64-2.49c1.53,1.99-1.5,4.94,0.38,6.5
				c2.7,2.24,7.97-0.58,9.41,4.43C388.76,857.72,385.67,862.47,383.24,865.72z"/>
			<path d="M374.39,856.3l4.87,2.61l3.9,2.91C382.91,857.36,378.4,855.12,374.39,856.3z"/>
			<path d="M371.79,859.87h-1.62c0.31,4.26,5.99,6.91,9.74,7.47c-0.01-2.11-0.09-5.77-1.71-7.33
				C376.62,858.49,372.31,856.7,371.79,859.87z M372.4,860.11c0.29-0.52,0.93-1.13,1.84-1.22c0.91,0,1.61,0.66,1.61,0.66
				s-1.08,0.28-1.85,1.14c-0.77,0.86-0.96,2.44-0.96,2.44C372.13,862.93,371.97,861.02,372.4,860.11z M378.8,865.94
				c-0.48,0.48-2.14-0.3-3.18-0.78c-0.85-0.39-1.87-1.43-1.87-1.43s1.42-0.29,2.26-1.1c0.89-0.87,0.87-2.21,0.87-2.21
				s1,0.73,1.48,2.07C378.85,863.87,379.28,865.46,378.8,865.94z"/>
			<path d="M414.1,823.85c-0.93-2.37-3.03-4.22-3.88-6.48c-0.45-1.13,0.74-2.42,0.81-3.59c0.26-4.14-2.24-8.06-6.78-7.66
				c-4.7,0.41-7.94,6.15-5.28,10.26c1.71,2.7,4.89,3.47,7.88,2.92c-0.08,9.12-10.31,14.06-18.5,12.85
				c-4.7-0.69-8.33-3.31-13.31-3.09c-3.63,0.16-6.89,1.48-10.39,2.26c-1.15,0.2-2.97,0.97-4.07,0.32c-4.41-2.46-2.49-7.72-2.1-11.36
				c2.6,1.82,5.65,3.25,8.76,1.42c4.63-2.71,3.68-10.68-1.62-11.98c-2.48-0.61-5.41,0.38-6.93,2.46c-0.7,0.96-0.74,2.5-1.68,3.25
				c-1.85,1.49-4.87,1.67-6.91,3.29c-4.33,3.43-5.77,10.33-5.21,15.52c0.23,2.14,0.92,4.55,1.89,6.49c0.74,1.46,2.23,2.69,1.55,4.49
				c-1.29,3.43-4.28,6.46-5.84,9.85c-1.24,2.6-1.04,5.88-2.35,8.32c-0.65,1.2-2.14,1.75-3,2.8c-1.42,1.72-1.14,3.98-0.76,6.02
				c-4.54-1.07-10.27,2.18-9.09,7.14c-1.96-1.36-4.48-3.25-6.82-3.85c-9.94-2.31-20.48,5.89-29.57,8.73
				c-2.15,0.68-4.86,1.37-7.11,1.29c-1.62-0.08-3.98-0.92-5.43,0.01c-2.47,1.61,1.21,3.83,1.86,5.04c0.73,1.33-1.43,0.84-1.95,0.6
				c-1.95-0.91-7.14-3.2-8.12-5.11c-0.71-1.47,0-4.71-0.01-6.39c-0.13-6.65,1.55-13.22,1.63-19.81c0-2.02,0.45-4.17,0.29-6.17
				c-0.09-1.18-0.8-2.36-0.23-3.52c0.82-1.68,2.47-2.98,3.39-4.65c1.28-2.3,1.7-4.94,3.58-6.89c2.05-2.15,6.06-4.08,7.47-6.78
				c0.63-1.21-0.55-2.33-0.03-3.42c0.43-1,2.51-1.89,3.38-2.5c2.92-2.02,5.65-4.22,8.43-6.41c0.96-0.76,2.42-3.05,3.74-1.75
				c2.56,2.53,0.95,11.94-2.53,13.19c-1.85,0.65-3.68-2.01-6.07-0.97c-1.72,0.67-2.6,2.45-2.6,4.22c-0.1,6.29,10.23,5.24,8.44-0.97
				c7.7-2.1,6.1-12,7.86-17.85c0.68-2.25,3.14-3.84,3.5-5.84c1.39-0.41,2.67-2.36,3.97-0.57c1.22,1.73-0.17,7.39-0.08,9.66
				c0.27,5.61,1.95,10.71-0.19,16.23c-0.49,1.23-0.93,3.25-2.15,3.93c-0.86,0.92-3.6,0.39-5.33,1.19c-3.22,2.29-2.48,9.6,3.92,7.34
				c3.45-1.22,1.59-3.55,3.24-5.72c1.72-2.26,4.47-3.65,6.03-6.09c3.55-5.5,1.72-12,0.65-17.85c-0.32-1.71-1.08-8.37,1.93-8.37
				c1.14,0,1.63,1.68,1.94,2.53c1.07,2.92,2.14,5.76,2.8,8.76c1.43,6.61,2.23,15.8-1.92,21.75c-1.37,1.95-4.32,1.01-5.4,3.58
				c-1.09,2.81,0.21,5.96,3.25,6.64c3.25,0.74,5.65-1.93,5.51-5.02c-0.05-1.14-0.97-2.52-0.4-3.57c0.91-1.7,2.65-2.79,3.54-4.54
				c2.88-5.7,3.31-13.8,1.19-19.8c-1.72-4.74-9.52-10.39-7.92-15.58c1.33-4.3,6.38-3.54,9.77-5.32c7.67-4.03,9.47-9.59,6.83-17.02
				c-0.18-1.3,1.41-2.56,0.63-3.9c-0.7-1.2-2.26-1.02-2.99,0c-1.45,2.06,1.2,3.52-1.43,5.53c-1.64,1.27-3.77,0.8-5.63,1.46
				c-0.86,0.31-1.47,1.27-2.36,1.43c-1.39,0.29-2.65-0.8-3.96,0.29c-2.13,1.63-1.47,6.38-5.37,6.82c-6.02,0.54-5.56-4.09-8.59-7.79
				c-2.36-2.88-6.02-4.6-9.59-5.44c-5.31-1.25-11.3,0.19-14.62,4.85c-1.94,2.7-2.82,9.29-7.13,9.14c-1.68-0.06-5.95-1.39-6.61-3.1
				c-0.86-2.1,0.56-4.15-1.86-5.77c-2.29-1.49-5.7-0.47-6.33,2.28c-0.59,2.59,0.52,5.46,3.44,5.77c1.18,0.13,2.42-0.58,3.52-0.04
				c2.92,1.55,5.15,4.22,8.82,3.53c4.78-0.9,6.17-7.31,9.74-10.14c4.4-3.47,12.52-0.51,16.88,1.67c1.57,0.84,4.11,2.14,4.44,4.08
				c0.36,2.14-4.11,0.74-5.09,0.65c-5.4-0.77-11.69,0.88-14.53,5.85c-2.06,3.59-0.53,7.47-5.6,8.99c-1.39,0.42-3.49,1.07-4.7-0.08
				c-1.57-1.44-0.91-3.99-3.42-4.8c-2.69-0.86-5.69,0.35-6.09,3.36c-0.08,0.65,0,1.32,0.2,1.95c1.67,5.28,5.84,1.38,9.14,1.8
				c3.19,0.41,6.16,1.35,9.08-0.96c3.66-2.9,2.93-7.33,8.13-9.17c2.15-0.75,8.86-2.57,9.85,0.54c0.71,2.27-2.43,3.7-3.82,4.78
				c-3.23,2.5-6.39,5.15-9.6,7.76c-1.01,0.88-5.89,4.66-7.25,5.7c-3.87,3.01-8.1,8.39-12.67,10.16c-1.82,0.69-5.01-4.38-6.69-0.17
				c-2.7-0.77-4.74,0.44-4.87,3.25c-3.02,0.01-6.83,2.31-8.52,4.88c-1.69,2.58,1.19,5.44-0.89,7.8c-4.87,5.51-12.33,9.8-17.99,14.49
				c-1.92,1.57-5.73,3.58-5.21,6.58c0.71,4.1,7.18-1.3,8.51-2.43c3.87-3.17,7.85-6.84,12.09-9.44c0.84-0.52,2.85-2.73,3.85-2.53
				c1.11,0.25,3.35,5.83,3.58,6.94c0.36,1.95-1.92,4.98-2.56,6.82c-2.17,6.23-4.57,12.47-6.3,18.83c-1.82,6.7-1.89,14.29-4.34,20.78
				c-1.26,3.28-3.9,5.92-5.46,9.09c-2.61,5.3-4.73,11.81-6.17,17.53c-1.36,5.44-1.52,11.93-1.1,17.53c0.1,1.02,1.3,1.7,1.28,2.6
				c-0.02,0.97-1.83,1.22-2.11,2.29c-0.37,1.39,0.71,2.58,0.69,3.88c-0.09,4.99-2.22,10.84,0.79,15.58
				c2.26,3.35,11.36-1.06,12.66-3.74c0.75-1.41-0.32-2.82-0.87-4.05c-1.79-3.71-4.69-5.77-7.9-8.19c-0.91-0.7-1.56-3.93-0.74-4.92
				c0.74-0.84,2.12-0.19,3.01-0.02c2.27,0.49,5.1,0.2,7.47,0.15c8.1-0.2,15.37-1.22,23.05-4.12c2.23-0.84,6.24-1.84,7.47-4
				c-6.94,0.32-13.14,5.05-20.45,3.9c0.11,0.02,5.22-5.14,5.22-5.14c2.3-2.9,9.83-11.74,11.52-14.99c1.2-2.27,2.37-6.15,4.28-7.92
				c1.12-1.04,4.11-0.61,5.6-0.91c3.57-0.72,7.3-2.05,10.24-4.32c2.92-2.26,1.42-6.93,5.99-8.06c2.53-0.63,4.81,1.59,5.01,4.01
				c0.17,2.03-1.63,4.08-3.39,4.87c-1.8,0.81-3.65-0.13-5.52,0.99c-4.54,2.71-7.01,8.81-8.48,13.61c-0.42,1.36-1.32,4.37-0.29,5.64
				c1.23,1.5,7.23-0.45,8.76-0.99c3.96-1.3,9.21-2.99,12.15-6.13c1.01-1.08,0.83-2.71,1.3-4.04c1.22-3.44,4.18-5.4,7.59-3.52
				c2.66,1.49,2.16,4.49,0.35,6.44c-2.46,2.63-6.01,0.98-8.12,3.91c-3.07,4.28-4.25,10.49-5.27,15.57
				c-0.24,1.21-0.87,4.63,0.31,5.52c0.97,0.76,2.69,0,3.7-0.32c3.35-0.98,6.55-2.37,9.55-4.19c2.94-1.79,5.13-3.93,7.66-6.2
				c-3.9,7.37-7.15,15.14-10.61,22.72c-1.23,2.69-2.3,7.59-4.48,9.61c-2.11,1.95-7.78-3.17-9.9-3.96c-1.06-0.4-3.13-0.89-3.9,0.31
				c-1.95,3.05,4.86,7.27,6.49,8.99c-5.35-0.23-10.89-1.51-16.23-1.29c-1.62,0.07-4.33-0.01-5.52,1.22c-1.3,1.3-0.18,2.57,1.3,2.9
				c3.98,0.88,8.6,1.63,12.66,2.04v0.32c-3.4,0.81-6.96-0.09-10.39,0.52c-1.18,0.21-2.98,0.58-3.57,1.79
				c-0.78,1.72,1.62,2.67,2.92,2.83c4.32,0.55,8.97,0.38,13.31,0.38v0.65c-4.32,0.34-8.45,1.16-12.66,2.2
				c-1.3,0.31-4.28,1.27-2.72,3.14c1.1,1.36,3.37,1.21,5,1.16c4.45-0.21,8.87-1.86,13.31-1.95c-2.09,2.75-6.29,3.46-8.76,6.17
				c-4.16,4.66,3.31,2.8,5.52,1.62c-1.22,3.58-3.06,6.92-4.54,10.39c-0.51,1.18-1.66,2.82-1.46,4.22c0.16,1.1,1.14,0.65,1.61,0
				c1.04-1.68,1.71-3.73,2.44-5.52h0.32l-0.65,3.25c1.79-0.29,3.25-3.16,4.31-5.93c-0.33,1.05-0.44,1.96,0.09,2.3
				c0.79,0.54,1.44-1.06,1.67-1.56c1.07-2.47,2.37-4.93,3.34-7.47h0.32l-2.27,7.14c3.74-1.11,4.05-8.33,6.49-11.04l-3.25,8.76
				c2.6-0.21,3.8-4.87,4.54-7.14h0.32l-1.62,5.52c2.35-0.38,3.31-3.79,3.9-5.84h0.32l-0.97,4.22c2.11-0.32,2.65-2.74,3.25-4.54h0.32
				c-1.21,3.9,1.3,2.39,2.27-0.32h0.32v1.95c2.05-0.32,2.6-2.46,3.25-4.22h0.32l-0.32,2.92c1.79-0.31,2.22-1.95,2.6-3.57h0.32
				l-0.32,2.27c2.08-0.17,2.72-2.08,3.25-3.9h0.32l-0.32,2.92c1.58-0.28,2.03-1.87,2.6-3.25h0.32v1.95c1.95-0.32,2.5-2.13,2.92-3.9
				h0.32c-0.76,4.33,1.57,0.8,2.98,0.19c1.3-0.52,3.38-0.34,4.81-0.52c0,13.5-1.08,26.13,3.18,39.28c0.54,1.66,1.53,3.18,1.95,4.87
				c0.6,2.42-0.95,5.89,2.66,6.17c-0.23,5.4-0.41,10.62,3.11,15.26c2.52,3.25,9.54-0.55,11.06-3.25c2.79-4.96-2.54-9.41-6.38-12.12
				c-1.37-0.95-4.95-3.1-4.11-5.34c0.51-1.37,2.94-2.4,4.11-3.13c3.13-1.95,6.06-4.25,8.75-6.77c7.06-6.64,11.92-14.98,16.12-23.6
				c5-10.29,8.57-22.6,8.57-34.08c0-2.92-0.05-5.84-0.09-8.76c-0.01-0.64-0.04-2.51-1.14-2.27c-1.07,0.18-0.71,2.42-0.71,3.15
				c0.09,3.34-0.23,6.59-0.69,9.83c-1.12,8-2.64,16.23-5.8,23.7c-2.14,5.19-5.52,10.06-7.47,15.26h-0.32
				c4.22-13.29,4.98-28.24,2.21-41.88c-0.76-3.71-2.02-7.53-4.16-10.71c-0.49-0.8-1.03-2.27-2.02-2.6c-1.03-0.4-3.36,0.73-4.34,1.15
				c-3.27,1.44-6.63,2.67-9.87,4.04c2.91-2.5,10.12-7.32,10.03-11.68c-0.06-2.6-2.56-4.55-2.18-7.47c0.25-1.95,2.42-3.9,4.48-3.73
				c0.79,0.07,1.42,0.52,2.04,0.98c4.37,3.3-0.31,6.01-0.32,9.56c-0.01,3.26,1.86,7.81,3.46,10.61c0.99,1.79,3.33,6.85,6.04,5.76
				c1.45-0.59,2.23-2.72,2.85-4.02c1.72-3.58,4.04-7.9,3.37-12.02c-0.46-2.8-5.13-6.17-0.35-8.44c1.59-0.78,3.22,0.74,3.48,2.27
				c0.33,1.99-1.34,3.9-1.41,5.84c-0.08,4.92,4.43,8.89,7.93,11.6c1.16,0.92,8.13,5.45,9.01,2.28c0.4-1.42-1.04-3.58-1.62-4.79
				c-2.01-4.1-4.15-8.07-5.77-12.34c-2.08-5.47-4.47-10.71-5.51-16.56c-0.96-5.4-0.33-11.36-2.69-16.5
				c-1.61-3.48-4.33-6.35-7.53-8.44c-1.69-1.1-4.06-1.84-5.38-3.43c-0.97-1.17,0.07-2.78,0.16-4.1c0.24-3.49-1.04-6.81,0.55-10.3
				c0.57-1.25,2.95-2.21,4.03-3.01c2.18-1.75,3.95-3.68,6.82-4.06c4.75-0.62,9.36,5.3,9.74,9.58c-1.48,0-2.84,0.09-4.22,0.7
				c-8.29,3.68,0.06,17.56,7.72,10.71c2.99-2.7,0.57-5.4,0.96-8.49c0.16-1.26,1.31-2.15,1.85-3.25c1.01-2.03,1.48-5.19,1.35-7.47
				c-0.37-4.93-4.2-9.29-4.01-14.28c0.24-6.15,8.18-11.81,10.85-17.2C416.58,841.61,417.19,831.76,414.1,823.85z M296.14,837.26
				c-3.97,1.21-6.56-4.98-2.58-6.14C298.1,829.81,300.56,835.91,296.14,837.26z M309.73,846.8c-4.81,1.06-5.93-5.39-1.24-6.57
				C313.28,839.02,313.47,845.99,309.73,846.8z M325.66,851.14c-4.4,1.84-6.89-4.76-2.89-6.33
				C327.06,843.14,329.34,849.6,325.66,851.14z M270.51,792.28c-4.29,0.6-5.19-6.07-0.97-6.62
				C273.49,785.15,274.53,791.72,270.51,792.28z M335.72,785.65c0.88-1.32,4.76-3.15,5.81-1.38c3.43,5.82-3.86,13.01-9.02,13.65
				c-1.62,0.2-4.54,1.53-5.19-0.69c3.21-0.32,7.05-4.11,7.93-7.14C335.63,788.78,334.94,786.84,335.72,785.65z M326.67,792.57
				c-0.12,0.12-0.62,0.39-0.83,0.31c-0.21-0.08-0.5-2.36-0.5-2.36S326.78,792.45,326.67,792.57z M325.04,791.06
				c-0.11,0.99,0.32,2.96,1.77,1.81c0.59-0.48-2.32-3.43-0.6-5.18c0.98-0.97,2.53-0.09,3.7-0.25c1.12-0.16,2.27-1.49,3.47-1.03
				c1.5,0.58,0.67,3.7,0.1,4.68c-1.46,2.61-5.1,6.32-8.44,5.72C321.39,796.14,322.76,792.43,325.04,791.06z M313.03,799.82
				c0.38-2.15,3.09,0,3.87-1.39c0.75-1.29-1.83-3.93,0.68-4.54c3.8-0.89,7.1,6.92,5.93,9.82c-1,2.44-2.62,0.48-4.3,0.89
				c-0.97,0.24-1.3,1.39-2.29,1.58c-0.63,0.12-1.34-0.18-1.36-0.85c-0.04-1.37,2.12-1.79,1.55-3.24
				C316.5,800.58,312.71,801.64,313.03,799.82z M277.97,810.13c-3.99,0.64-5.43-5.21-1.3-5.98
				C280.85,803.39,282.58,809.4,277.97,810.13z M296.15,815.32c1.62-0.48,2.13,2.37,0.6,2.76
				C295.03,818.52,294.5,815.81,296.15,815.32z M234.15,866.18c-1.82,0.19-1.34-2.41,0.32-2.54
				C236.61,863.53,235.88,866.04,234.15,866.18z M243.43,963.75c-0.35,2.1-2.06,1.07-3.27,1.86c-0.66,0.44-0.93,1.3-1.64,1.71
				c-4.23,2.32-6.08-7.76-2.97-9.22C238.02,956.94,243.89,961.03,243.43,963.75z M286.74,822.38c3.12-0.59,2.54,3.21-0.32,3.64
				C283.28,826.49,284.45,822.81,286.74,822.38z M278.95,831.31c-0.24,1.34-1,1.51-2.27,1.62
				C276.91,831.52,277.59,831.35,278.95,831.31z M271.58,829.27c2.8-0.99,3.86,7.56,1.8,7.91
				C271.58,837.49,269.53,830.01,271.58,829.27z M266.53,831.4c1.28-2.65,2.91,1.41,3.01,2.51c0.11,0.87,0.27,1.72,0.31,2.6
				c0.01,1.3,0.01,2.6,0.01,3.9C267.26,839.96,265.43,833.67,266.53,831.4z M262.52,833.82c1.04-0.3,1.58,0.94,1.81,1.7
				c0.47,1.54,2.37,7.83,0.27,8.68c-1.04,0.42-1.75-0.76-2.07-1.54C261.91,841.16,260.09,834.55,262.52,833.82z M257.52,837.57
				c1.3-2.04,2.6,0.63,2.82,1.86c0.1,0.86,0.1,1.73,0.23,2.6c0.17,1.3,0.09,2.33-0.14,3.57
				C258.17,844.84,256.13,839.75,257.52,837.57z M246.81,857.14c-0.74,0.62-1.5,1.22-2.27,1.8c-1.17,0.88-2.41,1.67-3.57,2.56
				c-3.7-2.36,3.11-7.63,5.84-8.28C250.33,852.41,247.85,856.3,246.81,857.14z M254.01,851.43c-1.03,0-2.33-1.46-1.81-2.43
				c0.52-1.05,3.96-4.23,5.07-4.39c1.15-0.21,1.88,1.37,1.56,2.29C258.39,848.39,255.63,851.31,254.01,851.43z M259.32,852.73
				c-0.37-0.97-1.15-2.11-0.99-3.19c0.14-1.11,2.59-3.73,3.73-3.76c0.97-0.02,1.56,0.84,2.58,0.48c1.71-0.61,1.31-2.59,2.36-3.72
				c1.65-1.8,3.62-0.27,4.15-3.77c5.67,0.68,7.03-7.46,12.98-8.11c-0.88,2.92-4.54,4.13-6.4,6.23c-2.17,2.4-2.79,6.29-4.96,8.94
				c-1.17,1.52-4.05,2.24-4.9,3.51c-0.62,0.91,1.32,1.32,1.78,1.78c0.99,0.97,0.52,3.14-0.31,4.04c-1.2,1.22-6.31,3.43-7.83,2.26
				C260.22,856.4,259.87,854.17,259.32,852.73z M250.99,896.56c1.3-9.02,4.02-17.85,6.49-26.62c1.35-4.83,2.63-11.25,8.49-12.23
				c5.07-0.84,3.21,7.05,2.87,10.28c-0.59,5.1-0.92,10.13-1.27,15.26c-0.12,1.77-0.94,3.79-0.78,5.52c0.23,2.92,2.6,2.71,3.54,4.65
				c0.84,1.76,0.06,4.89-0.27,6.72c-0.55,3.02-2.25,11.3-5.74,12.23c-1.5,0.43-3.1-0.33-4.52-0.73c-3.58-1.02-9.41-1.72-9.96-6.31
				C249.5,902.61,250.6,899.26,250.99,896.56z M246.8,920.63c0.87-2.32,2.28-6.32,4.1-8.05c0.98-0.94,3.25-0.63,3.5,0.88
				c0.34,2.11-2.16,4.88-2.91,6.8c-2.36,6.07-4.13,11.89-5.7,18.18c-0.45,1.78-2.05,3.82-3.86,3.25
				C240.13,941.1,245.7,923.59,246.8,920.63z M257.67,945.76c-3.81,3.26-7.82,4.68-12.81,4.68c-1.03,0-3.9,0.49-4.33-0.75
				c-0.56-1.48,10.44-10.54,13.88-14.18c7.41-8.01,12.74-17.17,16.42-27.27c1.95-5.26,3.88-10.55,3.9-16.23
				c1.28,0,7.63,3.53,7.13,10.04C277.15,920.69,269.15,935.96,257.67,945.76z M280.57,892.34c1.94,0.53,3.51,2.69,5.52,2.92
				c3.25,0.34,6.49-3.55,9.88-0.08c0.96,0.99,0.59,2.57,0,3.65c-2.57,4.73-5.99,1.4-9.23,3.63c-1.83,1.27-2.47,4.16-4.54,4.81
				l1.62-9.74L280.57,892.34z M326.3,936.81c-0.38-2.72,1.01-5.49,3.93-6.06c3.34-0.66,6.45,1.9,4.87,5.41
				c-0.86,1.95-4.42,3.92-6.49,4.33C326.84,940.84,326.48,938.11,326.3,936.81z M346.73,939.73c0.79-2.69,4.17-4.54,6.79-3.15
				c2.68,1.47,2.17,4.77,0.35,6.72c-1.29,1.35-3.37,1.78-4.48,3.31c-1.95,2.68-3.09,6.35-4.47,9.35
				c-3.66,7.96-6.89,16.37-11.11,24.02c-0.65-2.27,2.48-6.94,3.5-9.09c3.51-7.43,7.54-15,10.37-22.72
				C348.62,945.57,345.82,942.68,346.73,939.73z M353.38,992.32c3.47-1.62,1.8,6.62,1.99,8.12c0.49,3.9-0.05,7.8,0.19,11.69
				c0.19,2.4,1.38,5.08,1.12,7.47c-0.3,2.65-2.23,4.91-2.74,7.47c-1.62-0.97-1.32-4.7-1.53-6.49c-0.8-6.77-0.42-13.63-0.42-20.45
				C351.99,998.49,351.62,993.09,353.38,992.32z M356.53,974.14c0.28-2.69,1.95-5.35,4.22-6.82
				C362.68,970.94,360.1,973.67,356.53,974.14z M361,966.4c-0.01,0-0.02,0-0.02,0l0.02-0.01V966.4z M344.87,977.74l-0.03,0.01
				c0.01-0.01,0.03-0.02,0.04-0.02L344.87,977.74z M339,978.68l7.21-16.23l4.15-8.44c-0.65,5.95-5.4,13.07-7.89,18.5
				C341.59,974.46,340.82,977.49,339,978.68z M346.61,957.91l-9.87,21.42h-0.32c1.14-6.39,5.64-13.25,8.34-19.15
				c1.61-3.52,2.81-8.04,5.29-11.04L346.61,957.91z M357.18,961.16h-0.97l0.97-0.32V961.16z M352.63,961.48h-0.31l-7.47,16.23h-0.32
				c0.79-5.36,4.74-12.21,7.47-16.88c0,0,0.29,0.24,0.69,0.53L352.63,961.48z M348.7,964.08c-1.98,4.44-5.27,9.5-6.12,14.28
				c0.01,0,0.02,0,0.03,0l-0.64,0.14c0.21-3.07,2.18-6.12,3.48-8.9c2-4.28,3.72-8.59,5.25-12.98
				C351.21,959.44,349.82,961.55,348.7,964.08z M331.21,980.63h-0.32c-0.32-2.39,1.94-5.65,3-7.79c2.44-4.87,4.58-9.99,6.98-14.93
				c1.06-2.19,1.77-4.87,3.66-6.49L331.21,980.63z M335.71,965.38l-7.42,16.23h-0.32l7.01-15.91l4.36-8.76L335.71,965.38z
				 M326.34,980.31h-0.32l6.37-14.28l2.72-5.19C333.71,967.35,329.2,974.27,326.34,980.31z M324.39,979.33l-1.21-1l0.88,0.35
				l5.72-12.34l2.72-4.87L324.39,979.33z M322.55,977.81l-0.2-0.17l2.69-6.48l4.54-10.01h0.65L322.55,977.81z M321.47,968.3
				c2.27-4.39,4.22-9.08,6.17-13.63h0.65l-5.71,13.31l-4.03,8.44C318.23,973.92,320.4,970.5,321.47,968.3z M315.95,975.76l7.98-18.5
				l4.36-10.06C328.29,947.2,320.38,972.86,315.95,975.76z M328.61,958.23c-0.24,4.61-4.03,10.12-5.99,14.28
				c-0.72,1.54-1.28,3.64-2.78,4.54C321.47,971.3,325.01,963,328.61,958.23z M328.29,942.98l-4.44,11.04l-9.84,22.07h-0.32
				C314.11,971.22,324.33,947.88,328.29,942.98z M297.13,1012.44h-0.32c0.41-2.71,2.47-8.93,4.87-10.39L297.13,1012.44z
				 M300.89,1008.63c0.47-1.32,0.84-2.54,1.11-3.32h0.32C302.17,1005.89,301.45,1007.26,300.89,1008.63z M302.65,1005.3h-0.32
				l2.27-4.54L302.65,1005.3z M293.88,1003.36c1.88-3.57,9.17-3.52,10.14-7.78c0.46-2.04-3.18-1.7-4.3-1.58
				c-5.28,0.59-10.19,2.57-15.58,1.57v-0.32l17.85-3.9c-1.14-3.57-4.02-2.38-6.83-2.27c-3.56,0.06-8.6,0.03-12-0.97v-0.32
				c3.78-1.61,8.31-1.3,12.34-1.3c1.3,0,4.33,0.35,5.19-0.84c1.23-1.58-2.82-2.04-3.57-2.28c-4.26-1.34-9.15-2.08-13.63-2.08
				c0.63-1.8,2.66-1.1,4.22-1.22c4.53-0.34,8.57,0.89,12.98,1.22c1.46,0.08,5.29,0.55,5.51-1.62c0.13-1.26-1.41-2.1-2.26-2.71
				c-1.95-1.35-4.68-2.91-4.87-5.41l11.36,5.52l11.04,2.6l6.82,4.54v0.32c-1.35,1.55-0.8,5.07-2.14,6.17
				c-4.19,3.37-11.72,3.25-16.69,5.04C304.09,997.73,299.69,1002.45,293.88,1003.36z M306.22,1003.03h-0.32l1.62-3.57
				L306.22,1003.03z M310.44,999.14h-0.32l0.32-0.97V999.14z M312.06,1000.11l0.61-2.45l0.66-0.09l-0.95,2.54H312.06z
				 M314.66,1000.43h-0.32l1.62-3.25L314.66,1000.43z M317.25,1000.11h-0.32l1.87-3.74l0.01,0L317.25,1000.11z M319.85,999.78h-0.32
				l1.3-2.6L319.85,999.78z M322.12,995.56l-0.97,1.3l0.97-1.62V995.56z M323.42,997.51h-0.32l0.65-1.3L323.42,997.51z
				 M324.07,995.89h-0.32l0.92-1.84l0.02,0L324.07,995.89z M325.69,996.86l1.22-2.75l0.01,0l0.01,0l-0.92,2.75H325.69z
				 M329.26,995.24h-0.32l0.97-1.95L329.26,995.24z M331.54,994.92l0.51-1.28l0.06,0.04l-0.25,1.25H331.54z M355.88,1043.31
				c1.23,0.21,6.55,4.68,5.78,5.93c-0.44,0.72-2.13,0.86-2.86,1.18c-1.55,0.65-2.79,1.67-3.9,2.92
				C352.96,1051.6,351.01,1042.45,355.88,1043.31z M354.26,1034.19c0.75-4.11,4.87-7.96,6.46-12.01
				c4.03-10.39,7.35-21.61,8.12-32.79c0.35-5.03,0.19-10.52-1.66-15.26c-1.25-3.18-4.62-7.39-4.93-10.71
				c-0.22-2.34,5.84-3.56,7.59-3.41c2.19,0.19,2.68,2.99,3.21,4.7c1.56,5.03,2.5,10.06,3.05,15.26c1.32,12.66-6.55,36.04-7.44,38.3
				S361.16,1030.98,354.26,1034.19z M401.11,865.08c-0.86,5.54,3.21,10.23,3.74,15.58c0.21,2.14-0.15,5.14-1.01,7.14
				c-0.47,1.07-1.58,1.71-1.78,2.93c-0.52,3.24,1.79,6.34-1.75,8.89c-3.61,2.6-9.26-1.43-8.26-5.65c0.37-1.55,1.55-3.31,3.11-3.82
				c1.23-0.4,3.11-0.21,3.89-1.46c0.9-1.43-0.24-3.8-1-5.1c-2.29-3.76-5.74-6.55-10.35-5.92c-2.05,0.28-3.62,1.87-5.19,3.07
				c-1.62,1.23-4.06,2.39-5.32,3.95c-2.4,2.97-1.19,7.66-1.18,10.91c0.01,1.53-1.18,3.4-0.74,4.87c0.65,2.12,4.52,3.45,6.27,4.54
				c3.33,2.01,5.95,4.93,7.67,8.44c3.12,6.39,2.01,15.16,3.99,22.07c1.75,6.1,4.45,12.15,7.17,17.85c1.42,2.91,3.33,5.67,4.22,8.75
				c-6.17-1.19-13.04-6.29-14.68-12.66c-0.92-3.57,4.1-8.24-1.55-10.54c-2.76-1.14-5.01,2.76-5.01,5.02c0,2.37,1.97,3.42,2.54,5.52
				c0.9,3.29-2.08,8.23-3.52,11.04c-0.52,0.97-1.18,2.78-2.46,2.95c-1.95,0.3-4.28-5.05-4.91-6.52c-0.97-2.26-2.69-5.6-2.45-8.12
				c0.14-1.45,1.3-2.52,1.68-3.9c0.93-3.38-0.31-6.82-3.73-8.07c-2.4-0.88-5.52,1.26-6.24,3.53c-1.23,3.61,2.08,6.02,1.63,9.09
				c-0.68,4.54-8.12,8.92-11.3,11.69h-0.32c-2.84-2.54-2.6-6.17-3.06-9.74c-0.19-1.3-0.62-3.5,0.14-4.68
				c1.86-2.79,5.84-3.21,5.04-7.66c-0.86-4.72-6.66-5.33-9.46-1.93c-2.72,3.3,0.17,6.7-1.33,10.05c-2.43,5.43-8.21,9.55-12.43,13.31
				c0,0-1.65-0.01-1.97-0.34c-0.32-0.32-1.04-1.15-1.33-1.99c-0.81-2.31-1.11-5.64-0.83-8.06c0.23-2.39-0.56-6.17,0.43-8.35
				c0.85-1.85,4.67-2.35,6.13-3.89c3.3-3.47-0.82-9.1-5.03-8.46c-3.17,0.48-5.71,3.92-5.46,7.07c0.12,1.48,1.3,3.31,0.45,4.7
				c-3.58,5.9-12.94,9.35-19.34,10.55c0-5.84,1.86-15.83,6.34-20.02c2.38-2.23,6.06-0.31,8.27-4c2.36-3.9-0.56-8.42-4.87-8.69
				c-3.02-0.19-5.41,2.85-6.17,5.44c-0.25,0.97,0,2.27-0.55,3.04c-2.48,3.2-7.89,4.56-11.46,5.91c-1.36,0.51-6.69,2.33-7.79,0.92
				c-1.06-1.41,0.94-4.93,1.47-6.29c1.45-3.74,3.46-8.31,7.29-10.28c2.85-1.47,5.7,0.3,7.88-3.03c2.83-4.41-0.8-10.95-6.26-9.07
				c-4.22,1.45-3.25,5.4-5.66,7.94c-3.92,4.1-11.13,4.7-16.42,4.7c0.61-4.87,5.62-12.49,9.79-15.06c1.35-0.83,2.75-0.03,4.16-0.35
				c2.92-0.67,5.5-4.29,4.73-7.3c-0.73-2.87-4.84-3.91-7.33-2.93c-0.99,0.4-1.84,1.53-2.92,1.65c-1.11,0.12-1.95-1.22-2.63-1.88
				c-1.83-1.7-4.76-3.3-5.16-5.94c4.71,0,9.09,0,13.59-1.62c7.29-2.68,14.57-7.73,22.44-8.7c5.34-0.66,8.33,4.16,13.31,4.16
				c-0.02-1.1-0.45-2.5-0.07-3.56c1.31-3.67,6.83-1.86,8.64-4.23c0.9-1.25,0.26-2.89,0.8-4.22c0.69-1.76,2.64-2.34,3.48-3.9
				c1.22-2.35,1.11-5.35,2.2-7.79c1.66-3.77,5.08-7.47,6.21-11.36c0.74-2.6-1.98-5.64-2.76-8.12c-1.62-5.08-1.19-10.26,1.52-14.93
				c2.38-4.16,5.74-3.86,9.19-6.08c2.69-1.71,4.31-7.06,8.77-4.8c3.43,1.73,3.51,7.42,0,9.16c-3.03,1.51-4.87-1.39-7.47-0.87
				c-4.66,0.83-1.95,10.11-0.12,12.23c1.36,1.6,3.12,1.42,4.99,1.07c3.96-0.87,7.61-2.2,11.69-2.54c3.9-0.32,6.82,2.22,10.39,3.04
				c7.52,1.83,19.7-1.47,21.75-9.91c0.32-1.38,0.97-3.57-0.14-4.73c-1.01-1.03-2.48-0.65-3.75-0.9c-2.61-0.52-4.58-3.08-4.11-5.73
				c0.8-4.54,6.9-6.03,9.5-2.27c1.86,2.68-0.57,5.11,0.07,7.79c0.32,1.3,1.78,2.37,2.43,3.57c1.51,2.77,2.44,5.65,2.99,8.76
				c1.44,8.21-0.7,16.23-5.4,23.05C406.46,856.88,401.86,860.22,401.11,865.08z"/>
			<path d="M351.34,862.15l3.9-5.19C352.53,857.13,350.68,859.44,351.34,862.15z"/>
			<path d="M367.24,868.64c-3.16-0.48-6.35-3.89-8.44-6.17c-0.73-0.85-1.62-3.04-2.92-3.04c-3.66,0-3,7.37-1.46,9.13
				c2.71,3.1,9.25,2.36,12.82,1.69l-2.27,3.57c5.78-0.9,3.57-6.15,1.95-9.74C365.3,865.64,366.77,866.89,367.24,868.64z
				 M355.88,860.85l7.47,8.44C359.23,869.29,352.37,866.04,355.88,860.85z"/>
			<path d="M366.27,863.12c-0.16-2.11-2.07-2.92-3.9-3.57C362.05,861.71,364.32,862.91,366.27,863.12z"/>
			<path d="M335.11,887.47c1.95,8.38,11.66,12.77,19.15,14.53c2.92,0.73,7.9,1.25,10.06-1.22c-6.63-1.72-12.7-1.62-18.83-5.39
				C342.25,893.41,338.84,887.79,335.11,887.47z"/>
			<path d="M328.24,1038.58c-1.35-0.75-2.88-0.86-4.23-0.46l0.03-0.06c-0.66,0.19-1.32,0.28-1.97,0.31c0.98-0.87,2.22-1.69,3.7-2.11
				l-0.05-0.03c1.41-0.32,2.67-1.18,3.41-2.52c1.4-2.53,0.43-5.76-2.19-7.21c-2.62-1.45-5.87-0.56-7.27,1.97
				c-0.74,1.34-0.8,2.87-0.33,4.23l-0.02-0.01c0.44,1.53,0.41,3.05,0.2,4.34c-0.33-0.57-0.61-1.19-0.82-1.87
				c-0.38-1.34-1.28-2.54-2.62-3.28c-2.62-1.45-5.87-0.56-7.27,1.97c-1.4,2.53-0.43,5.76,2.19,7.21c1.48,0.82,3.18,0.89,4.62,0.34
				c0.83-0.19,1.65-0.25,2.42-0.22c-0.97,1.47-4.83,6.75-8.88,4.52l11.01,6.1c-2.34-1.3-2.51-3.88-2.1-6.14
				c0.29-1.59,0.87-3.01,1.18-3.72c0.49,0.74,0.91,1.59,1.19,2.54l0.06-0.1c0.37,1.37,1.27,2.61,2.63,3.37
				c2.62,1.45,5.87,0.56,7.27-1.97C331.83,1043.26,330.86,1040.03,328.24,1038.58z"/>
			<path d="M279.38,976.22l12.08-3.48c-2.57,0.74-4.71-1.61-6.2-4.14c-0.58-0.98-1.06-1.99-1.43-2.85c1.29,0.99,3.13,1.37,4.96,0.84
				c2.87-0.83,4.59-3.54,3.86-6.06c-1.55-5.33-10.67-6.89-14.24-10.43c-1.13,4.9-8.02,11.08-6.51,16.41
				c0.73,2.52,3.64,3.9,6.51,3.07c1.78-0.51,3.13-1.76,3.71-3.24C282.64,969.69,282.9,975.21,279.38,976.22z M282.28,963.53
				L282.28,963.53C282.28,963.52,282.28,963.52,282.28,963.53C282.28,963.52,282.28,963.52,282.28,963.53z"/>
		</g>
		<g id="g596" transform="translate(-924.12,211.4)">
			<path id="path602" class="st2" d="M1197.33,577.51c0,1.98-1.51,3.58-3.37,3.58c-1.86,0-3.37-1.6-3.37-3.58s1.51-3.58,3.37-3.58
				C1195.82,573.93,1197.33,575.54,1197.33,577.51z"/>
			<path id="path604" class="st3" d="M1205.21,595.67c0,1.84-1.57,3.32-3.51,3.32c-1.94,0-3.51-1.49-3.51-3.32
				c0-1.84,1.57-3.32,3.51-3.32C1203.64,592.34,1205.21,593.83,1205.21,595.67z"/>
			<path id="path606" class="st4" d="M1222.82,622.81c0,1.91-1.71,3.47-3.81,3.47s-3.81-1.55-3.81-3.47c0-1.91,1.71-3.47,3.81-3.47
				S1222.82,620.9,1222.82,622.81L1222.82,622.81z"/>
			<path id="path608" class="st5" d="M1236.95,632.13c0,2.11-1.67,3.82-3.73,3.82s-3.73-1.71-3.73-3.82s1.67-3.82,3.73-3.82
				S1236.95,630.03,1236.95,632.13z"/>
			<path id="path610" class="st6" d="M1251.85,636.84c0,2.32-1.69,4.21-3.78,4.21s-3.78-1.88-3.78-4.21s1.69-4.21,3.78-4.21
				S1251.85,634.51,1251.85,636.84z"/>
		</g>
	</g>
	<polygon class="st1" points="140.81,210.74 140.73,203.2 139.9,201.67 136.73,201.97 132.37,203.84 115.57,207.69 113.13,210.21 
		113.3,213.44 115.74,213.87 139.47,212.01 	"/>
</g>
</svg>
