<?xml version="1.0" encoding="utf-8"?>
<!-- Generator: Adobe Illustrator 23.0.1, SVG Export Plug-In . SVG Version: 6.00 Build 0)  -->
<svg version="1.1" id="Ebene_1" xmlns="http://www.w3.org/2000/svg" xmlns:xlink="http://www.w3.org/1999/xlink" x="0px" y="0px"
	 viewBox="0 0 968.3 807.1" style="enable-background:new 0 0 968.3 807.1;" xml:space="preserve">
<style type="text/css">
	.st0{opacity:0.85;}
	.st1{fill:#E7D6BB;}
	.st2{fill-rule:evenodd;clip-rule:evenodd;fill:#CC2800;}
	.st3{fill:#F7EDDE;}
	.st4{fill:#CC2800;}
	.st5{fill-rule:evenodd;clip-rule:evenodd;fill:#2D9334;}
	.st6{fill:#2D9334;}
	.st7{fill-rule:evenodd;clip-rule:evenodd;fill:#DBB60C;}
	.st8{fill:#DBB60C;}
	.st9{fill-rule:evenodd;clip-rule:evenodd;fill:#4770C9;}
	.st10{fill:#4770C9;}
	.st11{fill:#FFB6A3;}
	.st12{fill:#BEEECA;}
	.st13{fill:#575438;}
	.st14{fill:#FFFFFF;}
	.st15{fill:#C8B800;}
	.st16{fill:#3E7A4D;}
	.st17{fill:#68AF72;}
	.st18{fill:#4A8E00;}
	.st19{fill:#3D8500;}
	.st20{fill:#68B065;}
	.st21{fill:#528E00;}
	.st22{fill:#4D361D;}
	.st23{fill:#3C7A39;}
	.st24{fill:#C2D1CC;}
	.st25{fill:#EFDD82;}
	.st26{fill:#CC6300;}
	.st27{fill:#BB7400;}
	.st28{fill:#C88E00;}
	.st29{fill:#EAB40C;}
	.st30{fill:#BF5400;}
	.st31{fill:#9D6500;}
	.st32{fill:#CC8600;}
	.st33{fill:#724313;}
	.st34{fill:#4C89B3;}
	.st35{fill:#455CA0;}
	.st36{fill:#47775E;}
	.st37{fill:#397045;}
	.st38{fill:#43856A;}
	.st39{fill:#296088;}
	.st40{fill:#4F5997;}
	.st41{fill:#314C95;}
	.st42{fill:#22275E;}
	.st43{fill:#181D4A;}
	.st44{fill:#D4BD89;}
	.st45{fill:#2F436A;}
	.st46{fill:#CA9E00;}
	.st47{fill:#9B7000;}
	.st48{fill:#5795BB;}
	.st49{fill:#D25157;}
	.st50{fill:#943D2C;}
	.st51{fill:#BE4636;}
	.st52{fill:#D66B5E;}
	.st53{fill:#CB5955;}
	.st54{fill:#DDACAB;}
	.st55{fill:#7A5E48;}
	.st56{fill:#D0687A;}
	.st57{fill:#5C322F;}
	.st58{fill:#FFA08B;}
	.st59{fill:#2C709F;}
</style>
<g id="Ebene_3">
	<g class="st0">
		<g>
			<polygon class="st1" points="726.5,125.1 632.5,125.1 503.4,125.1 503.4,166.1 520.9,183.6 520.9,217.4 503.4,234.8 503.4,300.6 
				572.7,300.6 632.5,360.5 645.6,373.5 645.6,407.4 711.4,407.4 728.8,424.9 762.7,424.9 780.1,407.5 821.1,407.5 821.1,219.7 			
				"/>
			<g>
				<circle class="st2" cx="689.1" cy="217.3" r="17.6"/>
				<circle class="st2" cx="689.6" cy="256.6" r="17.6"/>
				<circle class="st2" cx="659.4" cy="286.8" r="17.6"/>
				<circle class="st2" cx="629" cy="317.2" r="17.6"/>
			</g>
			<circle class="st2" cx="689" cy="158.8" r="17.6"/>
			<g id="RFinish_3_">
				<circle id="f92_3_" class="st3" cx="689.1" cy="217.3" r="13.8"/>
				<circle id="f93_3_" class="st3" cx="689.6" cy="256.6" r="13.8"/>
				<circle id="f94_3_" class="st3" cx="659.4" cy="286.8" r="13.8"/>
				<circle id="f95_3_" class="st3" cx="629" cy="317.2" r="13.8"/>
			</g>
			<g id="RBase_3_">
				<circle id="f77_3_" class="st4" cx="590.7" cy="156.6" r="13.8"/>
				<circle id="f76_3_" class="st4" cx="625.5" cy="156.6" r="13.8"/>
				<circle id="f79_3_" class="st4" cx="521.2" cy="156.6" r="13.8"/>
				<circle id="f78_3_" class="st4" cx="556" cy="156.6" r="13.8"/>
			</g>
			<circle id="f54_3_" class="st3" cx="521.1" cy="257.1" r="13.8"/>
			<circle id="f53_3_" class="st3" cx="555.9" cy="257.1" r="13.8"/>
			<circle id="f52_3_" class="st3" cx="590.6" cy="257.1" r="13.8"/>
			<circle id="f51_3_" class="st3" cx="615.2" cy="232.5" r="13.8"/>
			<circle id="f50_3_" class="st3" cx="639.8" cy="207.9" r="13.8"/>
			<circle id="f49_3_" class="st3" cx="664.4" cy="183.4" r="13.8"/>
			<circle id="f48_3_" class="st3" cx="689" cy="158.8" r="13.8"/>
			<circle id="f47_3_" class="st3" cx="713.6" cy="183.4" r="13.8"/>
			<circle id="f46_3_" class="st3" cx="738.2" cy="207.9" r="13.8"/>
			<circle id="f45_3_" class="st3" cx="762.8" cy="232.5" r="13.8"/>
			<circle id="f44_3_" class="st3" cx="787.3" cy="257.1" r="13.8"/>
			<circle id="f43_3_" class="st3" cx="762.8" cy="281.7" r="13.8"/>
			<circle id="f42_3_" class="st3" cx="738.2" cy="306.3" r="13.8"/>
			<circle id="f41_3_" class="st3" cx="713.6" cy="330.9" r="13.8"/>
			<circle id="f40_3_" class="st3" cx="689" cy="355.5" r="13.8"/>
			<circle id="f39_3_" class="st3" cx="689" cy="390.2" r="13.8"/>
		</g>
		<g>
			<path class="st1" d="M780.1,447.5l-17.4,17.4h-33.8l-17.4-17.4h-65.8v69.2l-59.8,59.8l-13.1,13.1h-33.9v65.8l-17.4,17.4v33.8
				l17.4,17.4v41h187.8l94.6-94.6v-94V447.5H780.1z M789.6,451.4c7.6,0,13.8,6.2,13.8,13.8c0,7.6-6.2,13.8-13.8,13.8
				s-13.8-6.2-13.8-13.8S782,451.4,789.6,451.4z M789.6,486.2c7.6,0,13.8,6.2,13.8,13.8c0,7.6-6.2,13.8-13.8,13.8
				s-13.8-6.2-13.8-13.8C775.8,492.4,782,486.2,789.6,486.2z M789.6,520.9c7.6,0,13.8,6.2,13.8,13.8s-6.2,13.8-13.8,13.8
				s-13.8-6.2-13.8-13.8C775.8,527.1,782,520.9,789.6,520.9z M789.6,583.3c-5.1,0-9.5-2.7-11.9-6.8c-1.2-2.1-1.9-4.4-1.9-7
				c0-7.6,6.2-13.8,13.8-13.8s13.8,6.2,13.8,13.8c0,2.6-0.7,4.9-1.9,7C799.1,580.6,794.7,583.3,789.6,583.3z"/>
			<g>
				<g>
					<circle class="st5" cx="728.9" cy="633.1" r="17.6"/>
					<circle class="st5" cx="689.6" cy="633.6" r="17.6"/>
					<circle class="st5" cx="659.4" cy="603.4" r="17.6"/>
					<circle class="st5" cx="629" cy="573.1" r="17.6"/>
				</g>
				<circle class="st5" cx="787.3" cy="632.9" r="17.6"/>
			</g>
			<circle class="st6" cx="789.6" cy="534.8" r="13.8"/>
			<circle class="st6" cx="789.6" cy="465.2" r="13.8"/>
			<circle class="st6" cx="789.6" cy="500" r="13.8"/>
			<path class="st6" d="M789.6,555.7c-7.6,0-13.8,6.2-13.8,13.8c0,2.6,0.7,4.9,1.9,7c2.4,4.1,6.8,6.8,11.9,6.8s9.5-2.7,11.9-6.8
				c1.2-2.1,1.9-4.4,1.9-7C803.4,561.9,797.2,555.7,789.6,555.7z"/>
			<g id="GFinish_3_">
				<ellipse id="f88_3_" class="st3" cx="728.9" cy="633.2" rx="13.8" ry="13.8"/>
				<circle id="f89_3_" class="st3" cx="689.6" cy="633.6" r="13.8"/>
				<circle id="f90_3_" class="st3" cx="659.4" cy="603.4" r="13.8"/>
				<circle id="f91_3_" class="st3" cx="629" cy="573.1" r="13.8"/>
			</g>
			<circle id="f38_3_" class="st3" cx="689" cy="465" r="13.8"/>
			<circle id="f37_3_" class="st3" cx="689" cy="499.8" r="13.8"/>
			<circle id="f36_3_" class="st3" cx="689" cy="534.6" r="13.8"/>
			<circle id="f35_3_" class="st3" cx="713.6" cy="559.1" r="13.8"/>
			<circle id="f34_3_" class="st3" cx="738.2" cy="583.7" r="13.8"/>
			<circle id="f33_3_" class="st3" cx="762.8" cy="608.3" r="13.8"/>
			<circle id="f32_3_" class="st3" cx="787.3" cy="632.9" r="13.8"/>
			<circle id="f31_3_" class="st3" cx="762.8" cy="657.5" r="13.8"/>
			<circle id="f30_3_" class="st3" cx="738.2" cy="682.1" r="13.8"/>
			<circle id="f29_3_" class="st3" cx="713.6" cy="706.7" r="13.8"/>
			<circle id="f28_3_" class="st3" cx="689" cy="731.3" r="13.8"/>
			<circle id="f27_3_" class="st3" cx="664.4" cy="706.7" r="13.8"/>
			<circle id="f26_3_" class="st3" cx="639.8" cy="682.1" r="13.8"/>
			<circle id="f25_3_" class="st3" cx="615.2" cy="657.5" r="13.8"/>
			<circle id="f24_3_" class="st3" cx="590.6" cy="632.9" r="13.8"/>
			<circle id="f23_3_" class="st3" cx="555.9" cy="632.9" r="13.8"/>
		</g>
		<g>
			<polygon class="st1" points="498.8,655.4 498.8,589.6 429.5,589.6 369.7,529.8 356.6,516.7 356.6,482.8 290.8,482.8 273.4,465.3 
				239.5,465.3 222.1,482.8 181.1,482.8 181.1,670.6 275.7,765.1 369.7,765.1 498.7,765.1 498.7,724.1 481.3,706.7 481.3,672.8 			
				"/>
			<g>
				<g>
					<circle class="st7" cx="313.1" cy="673" r="17.6"/>
					<circle class="st7" cx="312.6" cy="633.6" r="17.6"/>
					<circle class="st7" cx="342.8" cy="603.4" r="17.6"/>
					<circle class="st7" cx="373.1" cy="573.1" r="17.6"/>
				</g>
				<circle class="st7" cx="313.2" cy="731.3" r="17.6"/>
			</g>
			<g id="YFinish_3_">
				<circle class="st3" cx="313.1" cy="673" r="13.8"/>
				<circle class="st3" cx="312.6" cy="633.6" r="13.8"/>
				<circle class="st3" cx="342.8" cy="603.4" r="13.8"/>
				<circle class="st3" cx="373.1" cy="573.1" r="13.8"/>
			</g>
			<g id="YBase_3_">
				<circle id="f69_3_" class="st8" cx="411.5" cy="733.6" r="13.8"/>
				<circle id="f68_3_" class="st8" cx="376.7" cy="733.6" r="13.8"/>
				<circle id="f70_3_" class="st8" cx="481" cy="733.6" r="13.8"/>
				<circle id="f71_3_" class="st8" cx="446.2" cy="733.6" r="13.8"/>
			</g>
			<circle id="f22_3_" class="st3" cx="481.1" cy="632.9" r="13.8"/>
			<circle id="f21_3_" class="st3" cx="446.3" cy="632.9" r="13.8"/>
			<circle id="f20_3_" class="st3" cx="411.5" cy="632.9" r="13.8"/>
			<circle id="f19_3_" class="st3" cx="387" cy="657.5" r="13.8"/>
			<circle id="f18_3_" class="st3" cx="362.4" cy="682.1" r="13.8"/>
			<circle id="f17_3_" class="st3" cx="337.8" cy="706.7" r="13.8"/>
			<circle id="f16_3_" class="st3" cx="313.2" cy="731.3" r="13.8"/>
			<circle id="f15_3_" class="st3" cx="288.6" cy="706.7" r="13.8"/>
			<circle id="f14_3_" class="st3" cx="264" cy="682.1" r="13.8"/>
			<circle id="f13_3_" class="st3" cx="239.4" cy="657.5" r="13.8"/>
			<circle id="f12_3_" class="st3" cx="214.8" cy="632.9" r="13.8"/>
			<circle id="f11_3_" class="st3" cx="239.4" cy="608.3" r="13.8"/>
			<circle id="f10_3_" class="st3" cx="264" cy="583.7" r="13.8"/>
			<circle id="f9_3_" class="st3" cx="288.6" cy="559.1" r="13.8"/>
			<circle id="f8_3_" class="st3" cx="313.2" cy="534.6" r="13.8"/>
			<circle id="f7_3_" class="st3" cx="313.2" cy="499.8" r="13.8"/>
		</g>
		<g>
			<polygon class="st1" points="463.4,166.1 463.4,125.1 275.7,125.1 181.1,219.7 181.1,313.7 181.1,442.8 222.1,442.8 239.5,425.3 
				273.4,425.3 290.8,442.8 356.6,442.8 356.6,373.5 416.4,313.7 429.5,300.6 463.4,300.6 463.4,234.8 480.9,217.4 480.9,183.6 			
				"/>
			<g>
				<g>
					<circle class="st9" cx="273.2" cy="257.1" r="17.6"/>
					<circle class="st9" cx="312.6" cy="256.6" r="17.6"/>
					<circle class="st9" cx="342.8" cy="286.8" r="17.6"/>
					<circle class="st9" cx="373.1" cy="317.2" r="17.6"/>
				</g>
				<circle class="st9" cx="214.8" cy="257.1" r="17.6"/>
			</g>
			<g id="BFinish_3_">
				<circle id="f80_3_" class="st3" cx="273.2" cy="257.1" r="13.8"/>
				<circle id="f81_3_" class="st3" cx="312.6" cy="256.6" r="13.8"/>
				<circle id="f82_3_" class="st3" cx="342.8" cy="286.8" r="13.8"/>
				<circle id="f83_3_" class="st3" cx="373.1" cy="317.2" r="13.8"/>
			</g>
			<g id="BBase_3_">
				<circle id="f65_3_" class="st10" cx="212.6" cy="355.5" r="13.8"/>
				<circle id="f64_3_" class="st10" cx="212.6" cy="320.7" r="13.8"/>
				<circle id="f67_3_" class="st10" cx="212.6" cy="425" r="13.8"/>
				<circle id="f66_3_" class="st10" cx="212.6" cy="390.2" r="13.8"/>
			</g>
			<circle id="f63_3_" class="st3" cx="239.4" cy="232.5" r="13.8"/>
			
				<ellipse id="f62_3_" transform="matrix(0.6 -0.8 0.8 0.6 -60.7114 294.3736)" class="st3" cx="264" cy="207.9" rx="13.8" ry="13.8"/>
			<circle id="f61_3_" class="st3" cx="288.6" cy="183.4" r="13.8"/>
			<circle id="f60_3_" class="st3" cx="313.2" cy="158.8" r="13.8"/>
			<circle id="f59_3_" class="st3" cx="337.8" cy="183.4" r="13.8"/>
			<circle id="f58_3_" class="st3" cx="362.4" cy="207.9" r="13.8"/>
			<circle id="f57_3_" class="st3" cx="387" cy="232.5" r="13.8"/>
			<circle id="f56_3_" class="st3" cx="411.5" cy="257.1" r="13.8"/>
			<circle id="f55_3_" class="st3" cx="446.3" cy="257.1" r="13.8"/>
			<circle id="f6_3_" class="st3" cx="313.2" cy="425" r="13.8"/>
			<circle id="f5_3_" class="st3" cx="313.2" cy="390.2" r="13.8"/>
			<circle id="f4_3_" class="st3" cx="313.2" cy="355.5" r="13.8"/>
			<circle id="f3_3_" class="st3" cx="288.6" cy="330.9" r="13.8"/>
			<circle id="f2_3_" class="st3" cx="264" cy="306.3" r="13.8"/>
			<circle id="f1_3_" class="st3" cx="239.4" cy="281.7" r="13.8"/>
			<circle id="f0_3_" class="st3" cx="214.8" cy="257.1" r="13.8"/>
		</g>
	</g>
	<rect x="424" y="439.8" width="166.7" height="5"/>
</g>
<g>
	<ellipse class="st11" cx="762.8" cy="185.9" rx="138.3" ry="11.9"/>
	<g>
		<path class="st12" d="M791.6,762.9c0,0,207.1,1.6,172.9,8.3c-34.2,6.8-323.8,20.6-309.2,7.7C669.8,766,791.6,762.9,791.6,762.9z"
			/>
		<path class="st13" d="M864.8,682.5H787c-2.3,0-4.1-1.8-4.1-4.1v-43.6c0-2.3,1.8-4.1,4.1-4.1h77.8c2.3,0,4.1,1.8,4.1,4.1v43.6
			C868.9,680.6,867.1,682.5,864.8,682.5z"/>
		<path class="st14" d="M862.1,680.1h-72.3c-2.3,0-4.1-1.8-4.1-4.1v-38.8c0-2.3,1.8-4.1,4.1-4.1h72.3c2.3,0,4.1,1.8,4.1,4.1V676
			C866.2,678.2,864.3,680.1,862.1,680.1z"/>
		<path class="st15" d="M817.1,658c0,0,3.4,11.8,1.1,15.3c-2.2,3.5,16.6-2.8,17-3.7s1.1-8.2-1-12.4s-13.3-4.8-14.3-3.4
			C819.1,655.4,817.1,658,817.1,658z"/>
		<rect x="734.7" y="700.6" class="st16" width="14.5" height="70.6"/>
		<rect x="896.4" y="700.6" class="st16" width="14.5" height="70.6"/>
		<rect x="734.7" y="693.7" class="st16" width="176.3" height="6.9"/>
		<path class="st17" d="M745.2,693.7c0,0-7.6-21.1-4.1-21.6s26.3-2.8,26.8-0.5c0.4,2.3-2.1,22.1-2.1,22.1H745.2z"/>
		<path class="st18" d="M751.9,671c0,0-2.3-2.9-3.3-9.4c-1.1-6.4-1.8-11.5-1.8-11.5s6.1,2.7,7.4,8.2c1.3,5.4,1.6,12.4,1.6,12.4
			L751.9,671z"/>
		<path class="st19" d="M758.3,670.6c0,0,5.2-9.4,5.2-14.1s1.1-14.9-0.8-14.5c-1.9,0.4-6.3,10-6.8,14.3s-0.8,14.6-0.8,14.6
			L758.3,670.6z"/>
		<rect x="806.6" y="734" class="st20" width="46.8" height="7.4"/>
		<path class="st21" d="M805.1,703.9c0,0-8.1-26.3-5.2-29c2.9-2.7,12.2-1.2,18.3-3s20.6-6.8,25.4-5.7c4.9,1.1,9.5,3,9.7,11.8
			s4.8,59.1-3.7,59.4c-8.4,0.3-35.3,3.8-37.8,0.2C809.4,733.9,805.1,703.9,805.1,703.9z"/>
		<path class="st22" d="M813.8,649.8c-0.5-7.3-3.3-16.7,1.7-18.7s13.3-3.8,16.9-1.8c3.7,2,7.5,1.6,6.9,10.5
			c-0.6,9-0.4,27.3-3.9,24.7s-4.8-5.5-9.8-3.3s-11.2,1-11.5-2.3S813.8,649.8,813.8,649.8z"/>
		<path class="st16" d="M932.2,630.7h-46c-2.4,0-4.4-2-4.4-4.4V566c0-2.4,2-4.4,4.4-4.4h46c2.4,0,4.4,2,4.4,4.4v60.3
			C936.6,628.7,934.6,630.7,932.2,630.7z"/>
		<rect x="803.6" y="703.9" class="st23" width="3" height="67.3"/>
		<rect x="853.4" y="703.9" class="st23" width="3" height="67.3"/>
		<rect x="806.6" y="703.9" class="st20" width="46.8" height="18"/>
		<path class="st24" d="M928.2,627h-38c-2.4,0-4.4-2-4.4-4.4v-53c0-2.4,2-4.4,4.4-4.4h38c2.4,0,4.4,2,4.4,4.4v53
			C932.6,625.1,930.6,627,928.2,627z"/>
	</g>
	<g>
		<path class="st25" d="M175.4,779.1c0,0,180.1-3.9,158,4.2c-6.3,2.3-34.7,2.8-35.4,6.4c-1.1,6.3,27.8,15.8,13.8,17
			c-31.7,2.5-103.5-6-123.7-6.9c-34.2-1.6-121.4-11.6-85-16.1C139.7,779.2,175.4,779.1,175.4,779.1z"/>
		<path class="st26" d="M134.8,760.7c-0.4-1-12.8-36.4-16.1-38.9s-6.5-8-6.1-9.9c0.4-1.8,3.6,0.9,6.3-0.4c2.7-1.3,8.1-7.7,12.2-6.6
			c4.1,1.2,12,9.1,14.6,7.9c2.6-1.2,3.6-5.3,4.8-4.2c1.2,1.2,2.1,6.5,1.8,7.4s7.8,7.6,7.3,9.1s-1.1,18.9-1.1,18.9L134.8,760.7z"/>
		<path class="st27" d="M146.3,790.1c0,0-13.7-22.8-13.8-30.5c-0.2-7.7,1.1-21.5,0.6-23.6s-3.7-13.3-2.2-12.3s6.5,8.6,8.3,8
			s6.8-1.7,9-0.2s8.5,7.6,8.5,7.6l13.6,40.6c0,0-22.4,12.1-23.2,11.8C146.5,791.2,146.3,790.1,146.3,790.1z"/>
		<path class="st28" d="M186,688.5c2.4,2.8,0.3,9.1,0.9,12.8c0.6,3.7,1.4,6.2-0.9,6.2c-2.3,0-2.3,0.2-2.9,2.2c-0.6,2,0,5.1-2.6,5.4
			c-2.7,0.3,4,5.3,1.3,5.8c-2.7,0.6-18.5,1.6-17.8,0c0.8-1.6,4.5-7.5,1.9-11.7c-2.9-4.7-1-15.4,3.5-17.8
			C173.9,689.1,186,688.5,186,688.5z"/>
		<path class="st29" d="M157.7,722.5c0,0-6.5,24.3,0,41.9c6.5,17.6,13.3,27,25,25s25.5-6.8,29.3-12.8s11.8-22,20.2-17.2
			c8.3,4.8,15.7,14.8,18.7,20.7s1.2,9.9,10.8,9.6c9.7-0.3,21.7,0.2,19.7-4.9c-2-5.2-13.3-1.5-17.2-4.7c-3.8-3.2-1.2-3.2-5.2-14.7
			s-16.6-31.5-27.1-32.2S214.7,733,210,738s-9.5,13.8-12.7,6.5s0.5-13.8-5.5-17.7c-6-3.8-8.1-10-11.8-9.7c-1.2,0.1,0.2,2.2-1.9,3
			c-7.4,2.9-11,0.3-13.5-0.8C162.2,718.2,157.7,722.5,157.7,722.5z"/>
		<path class="st30" d="M185.5,689.5c-5,3.6-7.7,5.4-11.3,5.4c-3.7,0-5.4,3.3-5.6,5.8c-0.1,2.6,1.6,11.3-2,11.9s-8.3,2.4-9.3-0.8
			s-3.1-18.6-0.5-21.7c2.6-3.1,11-13.1,15.1-13s13.2,6,15.8,6s9.6-4.7,7.9-2c-1.7,2.7-5,7.7-6.7,7.9
			C187.2,689.3,185.5,689.5,185.5,689.5z"/>
		<path class="st31" d="M222.7,736.7c0,0,18.3-32.8,20.5-31.7c2.3,1.2,5.8,0.8,4.3,2.8S226,740.7,224.6,740
			C223.2,739.3,222.7,736.7,222.7,736.7z"/>
		<path class="st32" d="M190.9,758.3c3.1,3.4,7.3,7.1,10.6,4.1c3.3-2.9,15.7-19.1,17.5-20.2c1.8-1.1,14.3,3.8,12.8,0.1
			s-8.2-5.3-6.1-6.7c2.1-1.3,5.1-3,2.3-3.3s-11,2.2-13.3,4.7c0,0-6.9,9.8-11,10.2s-7.6-4.3-9-9.6c-1.4-5.2-3.8-7.9-5.2-9.7
			c-3.7-4.5-14.1-0.8-13.3,7.3C176.6,739.4,187.5,754.7,190.9,758.3z"/>
		<path class="st33" d="M182.7,711.9c-0.3,0-0.6,0-1-0.1c-1.9-0.3-3.5-1.3-5-2.1c-0.2-0.1-0.3-0.4-0.2-0.7c0.1-0.2,0.4-0.3,0.7-0.2
			c1.5,0.9,3,1.7,4.7,2c1.5,0.2,3.3-0.2,4.2-1.5c0.2-0.2,0.5-0.3,0.7-0.1s0.3,0.5,0.1,0.7C186,711.2,184.4,711.9,182.7,711.9z"/>
		<ellipse class="st33" cx="181.6" cy="698.9" rx="1.4" ry="2.3"/>
	</g>
	<g>
		<path class="st34" d="M155.6,172.4c36.2,0,183.5-1.8,162.9,7.6c-20.7,9.4-82.5,16.3-130.3,19c-46.6,2.6-182.3-3.4-188-12.2
			S155.6,172.4,155.6,172.4z"/>
		<polygon class="st35" points="80.6,184.6 83.3,153.3 39.3,154.6 44.6,184.6 		"/>
		<path class="st36" d="M54.3,154.2c0,0-8.8-35.7-9.5-48.2s-3.5-54.5,0-52.7s13.5,45,14.2,53.8s5.7,46.7,5.7,46.7L54.3,154.2z"/>
		<path class="st37" d="M68.8,153.7c0,0,2.2-128,1-139.1c-1.2-11-3.4-17-4.2-13.7s-3.7,88.4-4.3,100.9s0.8,51.9,0.8,51.9H68.8
			L68.8,153.7z"/>
		<path class="st38" d="M70.4,153.7c0,0,6.2-40.7,4.5-43.7s-7.3-4.2-8,1.1c-0.7,5.3-1.3,42.7-1.3,42.7L70.4,153.7z"/>
		<path class="st39" d="M131.6,137.9v14.4c0,0-14.1,0.4-16.1,10.1c-2,9.7-1.1,15.4-1.1,15.4h3.4c0,0,0.2-14.9,1.9-17.1
			c1.8-2.2,3.7-4.4,6.5-4.4s5.9-1.1,5.9,2.4s0,18.4,0,18.4h2.8c0,0,0.4-16.4,0-18.9c-0.3-2.3,0.3-2.4,0.3-2.4s7.5-0.4,9.1,1.7
			s0.8,20.3,0.8,20.3h3.3c0,0,0.6-18.2-0.9-20.8s-5.3-4.1-7.4-4.3c-2.1-0.2-4.6-0.4-4.6-0.4v-14L131.6,137.9z"/>
		<path class="st40" d="M122.1,96.6c0,0-2.4,35.7,3.8,38.2s41.2,10.2,45.7,12.2c4.4,2,13.2,34.6,18.6,34.8c5.3,0.2,10.9,0,10.9,0
			s5.4-0.8,4.4-2.9c-1-2.1-5.6-2-8.2-3.9c-2.6-1.9-10.9-34.3-16.8-38.2c-5.9-3.9-32-9.7-33.8-14.4c-1.8-4.7-8.8-20.7-8.6-25.5
			S122.1,96.6,122.1,96.6z"/>
		<path class="st41" d="M126.4,108.2c0,0-2.5-8.9,1.8-9c4.3,0,11.6,12.1,16.2,10.8c4.6-1.3,18.2-11.5,24.3-10.8s13.6,6.9,10,6
			s-7.9-3.6-9-1.5s-2.3,2-4,1.1c-1.6-0.9-23.9,15.2-27.3,12C135.3,113.6,126.4,108.2,126.4,108.2z"/>
		<rect x="162.2" y="108.2" class="st42" width="29.9" height="2.9"/>
		<polygon class="st43" points="192,111.1 210.6,86.8 207.3,86.8 192,108.2 		"/>
		<path class="st44" d="M134.7,76.5c0,0,0.1,6.6,0.7,8s1.7,2.8,0.8,2.8s-0.5,2.2-1,3.6s-3,0.8-2.8,2.1c0.1,1.2,1.3,3.2,0.6,3.4
			c-0.6,0.3-8.3,1.2-8.3,1.2s-1-0.4-2.1-3.1s-2.3-14.2-2.3-14.2L134.7,76.5z"/>
		<rect x="158.8" y="115" class="st45" width="9.4" height="69.7"/>
		<rect x="270.9" y="115" class="st45" width="9.4" height="69.7"/>
		<rect x="158.8" y="111.1" class="st45" width="121.5" height="3.8"/>
		<path class="st43" d="M117.8,177.9c0,0,0.7,6.2-1.4,6.2s-4.5-1.2-4.3-2.5s-0.1-2.9,1-3.3c1.1-0.3,1.3-0.4,1.3-0.4H117.8z"/>
		<path class="st43" d="M145.2,177.9c0,0-0.7,6.2,1.4,6.2s4.5-1.2,4.3-2.5s0.1-2.9-1-3.3c-1.1-0.3-1.3-0.4-1.3-0.4H145.2z"/>
		<path class="st43" d="M132.3,177.3c0,0-1.6,0.7-1.5,2.5s-0.1,4.3,1.8,4.3c1.8,0,3-0.7,3-1.9s0.6-4,0.2-4.3c-0.4-0.3-1-0.7-1-0.7
			L132.3,177.3L132.3,177.3z"/>
		<path class="st45" d="M118.8,111.7c0,0-0.6-6.1,0.4-6.6s3.2-1.7,3,1.7c-0.2,3.4,0,26.4,3.5,27.4c3.5,1,26.2,5.8,22.3,6.1
			s-23.5-1.8-25.1-3.5s-3.2-12.6-3.4-14.9C119.3,119.6,118.8,111.7,118.8,111.7z"/>
		<path class="st46" d="M139.5,75.8c-3.2-0.1-5,2.8-8.9,4.5c-3.9,1.7-8.8,0.9-8.4,6s2.5,21.8,0,19.3s-3.9-2-4.2-7.6s0.5-7.2-1.8-8.6
			s-0.9-7.4-1.2-10.7c-0.3-3.4,2.8-8.7,7.1-8.2s6,3.1,9.6,1.7s7.6-3.1,8.3-1.7C140.8,71.9,139.5,75.8,139.5,75.8z"/>
		<path class="st47" d="M133.9,90.7c-1.1,0-2.1-0.3-3-1c-0.2-0.2-0.3-0.5-0.1-0.7s0.5-0.3,0.7-0.1c0.8,0.6,1.8,0.8,2.7,0.8
			c1-0.1,1.9-0.5,2.6-1.2c0.2-0.2,0.5-0.2,0.7,0s0.2,0.5,0,0.7c-0.9,0.8-2,1.4-3.2,1.4C134.1,90.7,134,90.7,133.9,90.7z"/>
		<ellipse class="st47" cx="132.5" cy="83" rx="0.9" ry="1.8"/>
	</g>
	<g>
		<path class="st48" d="M106.3,220.5l-1.9-0.5c0.5-1.9,0.9-3.9,1.4-5.8l1.9,0.5C107.2,216.6,106.8,218.6,106.3,220.5z"/>
		<path class="st48" d="M115,652c-1.6-3.6-3.1-7.4-4.6-11.3l1.9-0.7c1.4,3.9,2.9,7.7,4.5,11.2L115,652z M106.6,629.1
			c-1.1-3.7-2.2-7.6-3.2-11.7l1.9-0.5c1,4.1,2.1,8,3.2,11.7L106.6,629.1z M100.6,605.5c-0.6-2.9-1.2-5.7-1.8-8.6
			c-0.2-1.1-0.4-2.2-0.7-3.3l2-0.4c0.2,1.1,0.4,2.2,0.7,3.3c0.6,2.9,1.2,5.7,1.8,8.6L100.6,605.5z M95.8,581.7
			c-0.7-3.9-1.5-8-2.1-12l2-0.3c0.7,4,1.4,8,2.1,11.9L95.8,581.7z M91.7,557.7c-0.6-4-1.2-8-1.8-12l2-0.3c0.6,4,1.2,8,1.8,12
			L91.7,557.7z M88.3,533.7c-0.5-4-1-8.1-1.5-12.1l2-0.2c0.5,4,0.9,8,1.5,12L88.3,533.7z M85.5,509.6c-0.4-4-0.8-8.1-1.1-12.1l2-0.2
			c0.3,4,0.7,8.1,1.1,12.1L85.5,509.6z M83.4,485.4c-0.3-4-0.6-8.1-0.8-12.1l2-0.1c0.2,4,0.5,8.1,0.8,12.1L83.4,485.4z M82,461.1
			c-0.2-4-0.3-8.1-0.5-12.1l2-0.1c0.1,4,0.3,8.1,0.5,12.1L82,461.1z M81.2,436.9c-0.1-4-0.1-8.1-0.1-12.1h2c0,4,0.1,8.1,0.1,12.1
			H81.2z M83.1,412.6h-2c0-4.1,0.1-8.1,0.2-12.1h2C83.2,404.5,83.2,408.5,83.1,412.6z M83.7,388.4l-2-0.1c0.2-4,0.3-8.1,0.5-12.1
			l2,0.1C84,380.3,83.8,384.3,83.7,388.4z M84.9,364.2l-2-0.1c0.3-4,0.6-8.1,0.9-12.1l2,0.2C85.5,356.1,85.2,360.2,84.9,364.2z
			 M86.8,340l-2-0.2c0.4-4,0.8-8.1,1.2-12.1l2,0.2C87.6,331.9,87.2,336,86.8,340z M89.4,315.9l-2-0.2c0.5-4,1-8,1.5-12l2,0.3
			C90.4,307.9,89.9,311.9,89.4,315.9z M92.6,291.9l-2-0.3c0.6-4,1.2-8,1.9-12l2,0.3C93.8,283.9,93.2,287.9,92.6,291.9z M96.5,268
			l-2-0.3c0.7-4,1.4-8,2.2-11.9l2,0.4C98,260,97.2,264,96.5,268z M101.1,244.2l-2-0.4c0.8-3.9,1.7-7.9,2.5-11.9l2,0.4
			C102.7,236.3,101.9,240.3,101.1,244.2z"/>
		<path class="st48" d="M123.5,668.1c-1-1.7-2.1-3.4-3.1-5.2l1.7-1c1,1.7,2,3.5,3,5.1L123.5,668.1z"/>
	</g>
	<g>
		<path class="st49" d="M706.1,105.7c0,0-8.2,3.6-9.2,10.4s-2.8,22.3,0.1,23.4c2.9,1.1,29.1,8.3,30.7,4.6c1.6-3.7-0.2-19.6-0.2-19.6
			L706.1,105.7z"/>
		<rect x="660" y="94.4" class="st50" width="23.9" height="87.6"/>
		<rect x="683.9" y="154.5" class="st51" width="55.6" height="27.6"/>
		<rect x="807" y="145.2" class="st52" width="63.8" height="36.8"/>
		<rect x="834.7" y="135.7" class="st53" width="29.9" height="9.7"/>
		<rect x="683.9" y="139.2" class="st50" width="59.9" height="15.2"/>
		<path class="st51" d="M852.4,112.3c2.8,3.1,4.5,15.4,7.8,17.8c3.3,2.3,4.9,4.1,3.5,6.2c-1.4,2.1-2.3,1.5-2.3,1.5s3.5-2.6,1.1-4.5
			s-3.3-2.1-4.7-4.3s-4.2-11.5-4.9-13.1c-0.8-1.7-1.4-2.9-1.4-2.9L852.4,112.3z"/>
		<path class="st54" d="M710.4,107.5c0,0,1.3,10.4,4.2,11.9s7.7,2.8,9.4,1.4s4.7-4.4,5-6.3c0.3-2,0.8-17.8-1.3-19
			s-13.2-2.4-14.9,0.1c-1.8,2.5-2.4,8.1-2.4,8.1V107.5z"/>
		<path class="st55" d="M709.2,110.5c-3.4-6.4-8-8.6-5.7-13.7s0.3-6.9,6.5-8.2c6.2-1.3,12.5-2.5,13.3-3.9c0.9-1.4,4.8-1.2,6.4,2.1
			c1.7,3.3,5,11.5,0.6,11.7s-17.9-2.3-18.7,0.6S709.2,110.5,709.2,110.5z"/>
		<path class="st56" d="M724,121.8c-0.4-3.7-3.7-8-1.4-7.3c2.2,0.7,4.9,6.7,4.7,3.1s-3.2-8.1-0.7-7.8c2.5,0.3,5.1,2,4.8,6
			s4.5,23.8-1.6,23.6c-5.7-0.2-3.8-2.2-4.3-7.1C724.9,127.4,724,121.8,724,121.8z"/>
		<ellipse class="st55" cx="717.5" cy="104.4" rx="1.2" ry="2.4"/>
		<path class="st55" d="M725.2,102.7c0.8,0,1.3,0.7,1.3,1.8c0,1.1-0.4-0.8-1.4-0.5c-0.3,0.1-0.9,1-1.1,0.6
			C723.8,104.2,724.6,102.7,725.2,102.7z"/>
		<path class="st55" d="M721,114.2c-1.7,0-3.4-0.6-4.7-1.6c-0.2-0.2-0.3-0.5-0.1-0.7s0.5-0.3,0.7-0.1c1.2,0.9,2.8,1.4,4.3,1.4
			s3-0.6,4.2-1.6c0.2-0.2,0.5-0.2,0.7,0.1c0.2,0.2,0.2,0.5-0.1,0.7c-1.3,1.1-3.1,1.8-4.8,1.9C721.1,114.2,721.1,114.2,721,114.2z"/>
		<rect x="846.8" y="55" class="st57" width="5.6" height="80.7"/>
	</g>
	<path class="st58" d="M242.6,91.6l-0.4-2l11.7-2.6l0.4,2L242.6,91.6z M266,86.3l-0.4-2c3.9-0.9,7.8-1.8,11.7-2.6l0.4,2
		C273.8,84.5,269.9,85.4,266,86.3z M289.4,81.1l-0.4-2c3.9-0.9,7.8-1.7,11.7-2.6l0.4,2C297.2,79.3,293.3,80.2,289.4,81.1z M312.9,76
		l-0.4-2c3.9-0.8,7.8-1.7,11.7-2.5l0.4,2C320.7,74.3,316.8,75.1,312.9,76z M336.4,71.1l-0.4-2c3.9-0.8,7.8-1.6,11.8-2.4l0.4,2
		C344.2,69.5,340.3,70.3,336.4,71.1z M359.9,66.4l-0.4-2c3.9-0.7,7.9-1.5,11.8-2.2l0.4,2C367.8,65,363.8,65.7,359.9,66.4z M681,62.6
		c-3.9-0.9-7.8-1.8-11.7-2.6l0.4-2c3.9,0.8,7.9,1.7,11.7,2.6L681,62.6z M383.5,62.1l-0.3-2c3.9-0.7,7.9-1.4,11.8-2l0.3,2
		C391.4,60.8,387.4,61.5,383.5,62.1z M407.2,58.2l-0.3-2c4-0.6,7.9-1.2,11.9-1.8l0.3,2C415.1,57,411.1,57.6,407.2,58.2z M657.5,57.7
		c-3.9-0.7-7.9-1.5-11.8-2.1l0.3-2c3.9,0.7,7.9,1.4,11.8,2.1L657.5,57.7z M430.9,54.8l-0.3-2c4-0.5,8-1.1,11.9-1.5l0.2,2
		C438.9,53.7,434.9,54.3,430.9,54.8z M633.9,53.7C630,53.1,626,52.5,622,52l0.3-2c4,0.5,8,1.1,11.9,1.7L633.9,53.7z M454.7,51.9
		l-0.2-2c4-0.4,8-0.9,12-1.2l0.2,2C462.7,51,458.7,51.4,454.7,51.9z M610.2,50.6c-3.9-0.4-8-0.8-11.9-1.2l0.2-2c4,0.4,8,0.8,12,1.2
		L610.2,50.6z M478.6,49.6l-0.2-2c4-0.3,8-0.6,12-0.9l0.1,2C486.6,48.9,482.6,49.2,478.6,49.6z M586.3,48.4c-4-0.3-8-0.5-12-0.7
		l0.1-2c4,0.2,8,0.5,12,0.7L586.3,48.4z M502.5,47.9l-0.1-2c4-0.2,8.1-0.4,12-0.6l0.1,2C510.5,47.5,506.5,47.7,502.5,47.9z
		 M562.4,47.2c-4-0.1-8-0.2-12-0.3v-2c4,0.1,8,0.1,12,0.3V47.2z M526.4,47v-2c4-0.1,8-0.1,12-0.2v2C534.4,46.9,530.4,46.9,526.4,47z
		"/>
	<path class="st48" d="M300.5,113.8l-0.6-1.9l11.5-3.5l0.6,1.9L300.5,113.8z M323.5,106.9l-0.6-1.9c3.8-1.1,7.7-2.3,11.5-3.4
		l0.6,1.9C331.2,104.6,327.3,105.8,323.5,106.9z M346.5,100.2l-0.6-1.9c3.8-1.1,7.7-2.2,11.6-3.3l0.5,1.9
		C354.2,98,350.4,99.1,346.5,100.2z M369.6,93.7l-0.5-1.9c3.9-1,7.7-2.1,11.6-3.1l0.5,1.9C377.3,91.6,373.5,92.7,369.6,93.7z
		 M392.8,87.7l-0.5-1.9c3.9-1,7.9-1.9,11.7-2.8l0.5,1.9C400.7,85.8,396.7,86.7,392.8,87.7z M665.4,84.2c-3.9-1-7.8-1.9-11.7-2.8
		l0.4-2c3.9,0.9,7.8,1.8,11.7,2.8L665.4,84.2z M416.2,82.2l-0.4-2c4-0.9,7.9-1.7,11.8-2.5l0.4,2C424.1,80.6,420.1,81.4,416.2,82.2z
		 M642.1,78.9c-3.9-0.8-7.9-1.5-11.8-2.2l0.3-2c3.9,0.7,7.9,1.4,11.8,2.2L642.1,78.9z M439.7,77.5l-0.4-2c4-0.7,8-1.4,11.8-2l0.3,2
		C447.6,76.1,443.6,76.8,439.7,77.5z M618.5,74.8c-3.9-0.6-7.9-1.2-11.9-1.7l0.3-2c3.9,0.5,8,1.1,11.9,1.7L618.5,74.8z M463.3,73.7
		l-0.3-2c2.1-0.3,4.2-0.6,6.3-0.8c1.9-0.2,3.8-0.5,5.6-0.7l0.2,2c-1.9,0.2-3.7,0.5-5.6,0.7C467.5,73.1,465.4,73.4,463.3,73.7z
		 M594.7,71.6c-3.9-0.4-8-0.8-11.9-1.2l0.2-2c4,0.3,8,0.7,12,1.2L594.7,71.6z M487.1,70.9l-0.2-2c4-0.4,8-0.7,12-1l0.1,2
		C495.1,70.2,491.1,70.5,487.1,70.9z M570.9,69.6c-4-0.3-8-0.5-12-0.6l0.1-2c4,0.2,8,0.4,12,0.6L570.9,69.6z M511,69.2l-0.1-2
		c4-0.2,8-0.4,12-0.5l0.1,2C519,68.8,515,69,511,69.2z M546.9,68.6c-4-0.1-8-0.1-12-0.1v-2c4,0,8,0,12,0.1V68.6z"/>
	<g>
		<path d="M423.6,372.8h16.1c6.6,0,11.4,0.9,14.6,2.7c3.2,1.8,6.1,4.7,8.6,8.6s3.8,8.9,3.8,14.9c0,7.5-2.2,13.8-6.7,18.9
			c-4.4,5.1-10.6,7.6-18.4,7.6h-18.1v-52.7H423.6z M435.7,382.5v33.1h5.1c4.5,0,7.8-1.7,10-5c2.2-3.4,3.3-7.3,3.3-11.8
			c0-3.2-0.6-6.1-1.9-8.9c-1.2-2.7-2.8-4.6-4.6-5.7c-1.8-1.1-4.1-1.6-6.7-1.6h-5.2L435.7,382.5L435.7,382.5z"/>
		<path d="M506.5,426.3c-7.1,0-12.6-2.7-16.5-8s-5.8-11.8-5.8-19.3c0-7.7,2-14.1,5.9-19.2s9.5-7.7,16.8-7.7c7.3,0,12.9,2.7,16.6,8.2
			s5.6,11.8,5.6,18.8c0,7.6-1.9,14.1-5.8,19.3C519.5,423.7,513.9,426.3,506.5,426.3z M506.8,382.1c-6.5,0-9.7,5.7-9.7,17
			c0,11.4,3.2,17.1,9.7,17.1c6.3,0,9.4-5.7,9.4-17C516.2,387.8,513.1,382.1,506.8,382.1z"/>
		<path d="M590.1,397.3v28.2h-5.6c-0.4-2-1-4-1.8-6.1c-3.8,4.6-8.5,6.9-14.4,6.9c-6.9,0-12.2-2.5-16-7.4s-5.7-11.3-5.7-19.1
			c0-8.4,2-15.1,6.1-20.2s9.6-7.6,16.6-7.6c5.9,0,10.6,1.6,14.2,4.9c3.6,3.3,5.8,7.7,6.6,13.2l-11.7,1.5c-1-6.4-4-9.6-9.1-9.6
			c-3.3,0-5.9,1.5-7.6,4.5c-1.7,3-2.6,7.3-2.6,12.9c0,5.4,0.9,9.5,2.8,12.4s4.5,4.3,7.9,4.3c2.2,0,4.2-0.7,5.9-2.2
			c1.7-1.4,2.6-3.7,2.6-6.9h-9.9v-9.8h21.7V397.3z"/>
	</g>
	<g>
		<path d="M445.2,487.3h-13.5l-2.7,6.4h-3l11.2-24.8h2.9l11.2,24.8h-3L445.2,487.3z M444.1,484.7l-5.7-12.8l-5.6,12.8H444.1z"/>
		<path d="M468.4,468.8v2.6h-8.1v22.2h-2.8v-22.2h-8.1v-2.6H468.4z"/>
		<path d="M485.1,468.8V480h15v-11.3h2.8v24.8h-2.8v-11.1h-15v11.1h-2.8v-24.8H485.1z"/>
		<path d="M534.1,481.2c0,7-5.8,12.6-13,12.6c-7.3,0-13-5.6-13-12.6s5.8-12.5,13-12.5C528.4,468.8,534.1,474.2,534.1,481.2z
			 M510.9,481.2c0,5.5,4.7,9.9,10.1,9.9c5.6,0,10-4.5,10-9.9c0-5.5-4.6-9.8-10-9.8C515.6,471.4,510.9,475.7,510.9,481.2z"/>
		<path d="M542.8,468.8l9.1,18.1l9-18.1h3.4v24.8h-2.6v-20.7l-9,18.1H551l-9-18.1v20.7h-2.6v-24.8H542.8z"/>
		<path d="M588.8,468.8v2.6h-14v8.3h12.6v2.6h-12.6v8.6h14.5v2.6H572v-24.8L588.8,468.8L588.8,468.8z"/>
	</g>
	<path class="st21" d="M876.8,551.2l-2-0.3c0.5-4,1.1-7.9,1.6-11.9l2,0.3C877.8,543.3,877.3,547.2,876.8,551.2z M879.8,527.4l-2-0.2
		c0.3-2.3,0.5-4.5,0.8-6.8c0.2-1.7,0.4-3.4,0.6-5.2l2,0.2c-0.2,1.7-0.4,3.4-0.6,5.2C880.4,522.9,880.1,525.1,879.8,527.4z
		 M882.3,503.5l-2-0.2c0.3-4,0.7-8,0.9-11.9l2,0.1C883,495.5,882.7,499.5,882.3,503.5z M884,479.5l-2-0.1c0.2-3.9,0.4-8,0.5-12
		l2,0.1C884.4,471.5,884.2,475.5,884,479.5z M884.9,455.5h-2c0.1-4,0.1-8,0.1-12h2C885,447.4,884.9,451.5,884.9,455.5z M882.9,431.5
		c-0.1-4-0.1-8-0.3-12l2-0.1c0.1,4,0.2,8,0.3,12L882.9,431.5z M882.2,407.5c-0.2-3.9-0.4-8-0.6-12l2-0.1c0.2,4,0.4,8.1,0.6,12
		L882.2,407.5z M880.8,383.6c-0.3-3.9-0.6-7.9-0.9-12l2-0.2c0.3,4,0.6,8.1,0.9,12L880.8,383.6z M878.9,359.7c-0.4-4-0.8-8-1.2-11.9
		l2-0.2c0.4,4,0.8,8,1.2,11.9L878.9,359.7z M876.4,335.8c-0.5-4-0.9-7.9-1.4-11.9l2-0.2c0.5,4,1,7.9,1.4,11.9L876.4,335.8z
		 M873.4,312c-0.5-4-1.1-7.9-1.6-11.9l2-0.3c0.5,4,1.1,7.9,1.6,11.9L873.4,312z M870.2,288.3c-0.6-4-1.2-7.9-1.7-11.9l2-0.3
		c0.6,4,1.2,7.9,1.7,11.9L870.2,288.3z M866.6,264.6c-0.6-4-1.2-7.9-1.9-11.9l2-0.3c0.6,4,1.2,7.9,1.9,11.9L866.6,264.6z
		 M862.9,240.9c-0.6-3.9-1.3-7.9-1.9-11.8l2-0.3c0.6,3.9,1.3,7.9,1.9,11.8L862.9,240.9z M859,217.2l-1.3-7.9l2-0.3l1.3,7.9
		L859,217.2z"/>
	<path class="st25" d="M476.1,792.3v-2c4,0,8,0,12,0v2C484.1,792.3,480.1,792.3,476.1,792.3z M464.1,792.3c-4,0-8,0-12-0.1v-2
		c4,0,8,0.1,12,0.1V792.3z M500.1,792.2v-2c4,0,8-0.1,12-0.2v2C508.1,792.1,504.1,792.2,500.1,792.2z M440.1,792.1
		c-4,0-8-0.1-12-0.2v-2c4,0.1,8,0.1,12,0.2V792.1z M524.1,791.8l-0.1-2c4-0.1,8-0.2,12-0.3l0.1,2
		C532.1,791.5,528.1,791.7,524.1,791.8z M416.1,791.7c-4-0.1-8-0.2-12-0.2v-2c4,0.1,8,0.2,12,0.2V791.7z M392.1,791.3l-12-0.3v-2
		l12,0.3V791.3z M548.1,791l-0.1-2c4-0.2,8-0.3,12-0.5l0.1,2C556.1,790.6,552.1,790.8,548.1,791z M368.1,790.7l-12-0.3v-2l12,0.3
		V790.7z M572.1,789.8l-0.1-2c4-0.2,8-0.5,12-0.8l0.1,2C580.1,789.3,576.1,789.5,572.1,789.8z M596.1,788.1l-0.2-2
		c4-0.3,8-0.7,11.9-1l0.2,2C604.1,787.4,600.1,787.8,596.1,788.1z M620,785.9l-0.2-2c4-0.4,8-0.9,11.9-1.3l0.2,2
		C628,785,624,785.5,620,785.9z M643.8,783.1l-0.3-2l2.2-0.3l0.3,2L643.8,783.1z"/>
</g>
</svg>
