<?xml version="1.0" encoding="utf-8"?>
<!-- Generator: Adobe Illustrator 23.0.1, SVG Export Plug-In . SVG Version: 6.00 Build 0)  -->
<svg version="1.1" id="Ebene_1" xmlns="http://www.w3.org/2000/svg" xmlns:xlink="http://www.w3.org/1999/xlink" x="0px" y="0px"
	 viewBox="0 0 482 327" style="enable-background:new 0 0 482 327;" xml:space="preserve">
<style type="text/css">
	.st0{fill:#F3DBA2;}
	.st1{opacity:0.59;fill:#C4A187;enable-background:new    ;}
	.st2{opacity:0.59;fill:#B59A77;enable-background:new    ;}
	.st3{display:none;}
	.st4{display:inline;fill:#CCCCCC;}
	.st5{fill:#279CAE;}
	.st6{fill:#3B65A4;}
	.st7{fill:#578BD1;}
	.st8{fill:#33BBD2;}
	.st9{fill:#3395A4;}
	.st10{fill:#909A9E;}
</style>
<g>
	<g>
		<ellipse class="st0" cx="241" cy="267" rx="241" ry="60"/>
		<ellipse class="st1" cx="145.7" cy="263.2" rx="94.3" ry="31.4"/>
		<path class="st2" d="M276.2,281.3l-31.4-1.9l-1.9-11.4l-15.5-4.7c0.8-0.9,1.2-1.9,1.2-2.9c0-7.4-21.3-13.3-47.6-13.3
			c-18.1,0-33.9,2.8-41.9,7l-14.3,1.6l-13.3,5.7l-23.8-3.8l23.8,5.7l12.4-4.8l10.3-0.5c-0.5,0.8-0.8,1.6-0.8,2.4
			c0,5.7,12.8,10.6,30.8,12.5l10.2,15.1l-17.1,9.5v20l5.7-19.1l21.9-10.5l-7.7-14.3c1.3,0,2.6,0,3.8,0c16.2,0,30.6-2.3,39.2-5.8
			l18,3.9l1.9,12.4h39.1l15.2-6.7L276.2,281.3z"/>
		<g class="st3">
			<polygon class="st4" points="159.6,266 174.3,287.9 157.2,297.5 157.2,317.5 162.9,298.4 184.8,287.9 175.2,270 			"/>
			<polygon class="st4" points="211.5,266 238.1,271.7 240,284.1 279.1,284.1 294.3,277.4 276.2,281.3 244.8,279.4 242.9,267.9 
				217.5,260.2 211.5,262.6 			"/>
			<polygon class="st4" points="145.5,257.3 123.8,258.4 111.5,263.2 87.6,257.4 111.5,261.3 124.8,255.5 143.9,253.4 			"/>
			<ellipse class="st4" cx="181" cy="260.3" rx="47.6" ry="13.3"/>
		</g>
	</g>
</g>
<g>
	<path class="st5" d="M148,254.3l-46.4-22.6c0,0-8.2-0.5-9.6-2.2c-1.4-1.8,8.4,1.4,7.9-1.5c-0.6-2.9-8.8-8.5-3.5-7.5
		s5.8,9.1,8.9,9.5s47.5,19.4,47.5,19.4L148,254.3z"/>
	<circle class="st6" cx="182" cy="192" r="77"/>
	<ellipse transform="matrix(0.318 -0.9481 0.9481 0.318 9.3263 305.442)" class="st7" cx="217" cy="146.2" rx="10" ry="16.5"/>
	<path class="st8" d="M153,267l-74-28c0,0-9,18-13,11s7-19,7-19l109,36H153z"/>
	<path class="st8" d="M273,233c6,0,14,4,11,1s-8-2-6-3c4-2,12-7,6-7s-10,3-16,6s-30,17-30,17l-25,16C213,263,267,233,273,233z"/>
	<path class="st8" d="M155.7,269c0,0-11.5-16.3-13.6-22.3c-2-5.9-2.5-24.3-2.5-24.3s-14.8,4.1-12.3,0s18.5-8.1,19.7-3
		s2.3,20.4,5,26.6c2.6,6,25,23,25,23H155.7z"/>
	<path class="st9" d="M148,268c12.1,1.8,22.6,4.5,34.8,4.2c12.2-0.2,24.6-2.7,35.1-8.9c2.8-1.7,5.5-3.6,8.6-4.7
		c4-1.4,2.3-4.5,6.5-4.7c4.2-0.1,5-5,6-6c0.7-0.7,0.8-2.6-2-1c-11.4,6.4-21.4,14.8-34,18c-4,1-6.4,0.7-10,1c-12,1-20.6,0.7-30.1-3.2
		c-7-2.8-14-5.9-21.4-7.2c-2.6-0.4-5.7-0.6-7.2,2c-1.5,2.5,1.8,2.4,3.8,4.3C140.7,264.6,144.4,267.4,148,268z"/>
	<path class="st10" d="M149.6,16.2c-0.4-1.8-2.9-1.5-3,0.3c-0.7,19.5,0.2,56.7,2.5,65.5c1.3,5.4,0.9,10.4,2.2,13.1
		c0.7,1.5,2.9,1,2.9-0.6c0.2-12.9-1.3-45.8-2.1-54.5C151.4,33.8,151.3,24.3,149.6,16.2z"/>
	<path class="st10" d="M180,88c0.4-15.5,0.3-61.4,0.1-86c0-2.6-4-2.7-4.1-0.1c0,0.3,0,0.7,0,1v88c0,0.6,0.3,1.2,0.8,1.6l0.2,0.1
		C178.3,93.7,180,89.6,180,88z"/>
	<path class="st10" d="M206.6,95c-0.7,3.1-5.1,2.6-5.2-0.5C200.7,67.5,200,27,202,29c3,3,7,55,5,64C206.9,93.6,206.7,94.3,206.6,95z
		"/>
</g>
</svg>
