<?xml version="1.0" encoding="utf-8"?>
<!-- Generator: Adobe Illustrator 23.0.1, SVG Export Plug-In . SVG Version: 6.00 Build 0)  -->
<svg version="1.1" id="Ebene_1" xmlns="http://www.w3.org/2000/svg" xmlns:xlink="http://www.w3.org/1999/xlink" x="0px" y="0px"
	 viewBox="0 0 650 650" style="enable-background:new 0 0 650 650;" xml:space="preserve">
<style type="text/css">
	.st0***REMOVED***fill:#FF0000;***REMOVED***
	.st1***REMOVED***fill:#EA1A00;***REMOVED***
	.st2***REMOVED***fill:#FFFFFF;***REMOVED***
	.st3***REMOVED***fill:#D40000;***REMOVED***
	.st4***REMOVED***fill:#5F376E;***REMOVED***
	.st5***REMOVED***fill:#333333;***REMOVED***
	.st6***REMOVED***fill:#13B02A;***REMOVED***
	.st7***REMOVED***fill:#7D009C;***REMOVED***
	.st8***REMOVED***fill:#3DC4A0;***REMOVED***
	.st9***REMOVED***fill:#405D91;***REMOVED***
	.st10***REMOVED***fill:#FEFFB8;***REMOVED***
	.st11***REMOVED***fill:#EDBF2F;***REMOVED***
	.st12***REMOVED***fill:#33912C;***REMOVED***
	.st13***REMOVED***fill:#E60000;***REMOVED***
	.st14***REMOVED***fill:#EAEAEA;***REMOVED***
	.st15***REMOVED***fill:#FECF05;***REMOVED***
</style>
<path class="st10" d="M325,650L325,650C145.5,650,0,504.5,0,325v0C0,145.5,145.5,0,325,0h0c179.5,0,325,145.5,325,325v0
	C650,504.5,504.5,650,325,650z"/>
<path class="st15" d="M561.7,222.4h-68.5c0.9-11.9,1.5-23.9,1.7-36c0-2.4-0.9-4.8-2.6-6.5c-1.7-1.7-4-2.7-6.5-2.7H188.5h-24.2h-0.1
	c-2.4,0-4.8,1-6.5,2.7c-1.7,1.7-2.6,4.1-2.6,6.5c0.3,12.1,0.8,24,1.7,35.9H88.3c-4.1,0-7.5,3.4-7.5,7.5c0,50.8,13.9,98.6,39.2,134.8
	c23.6,33.7,55,53.8,88.6,56.8c0.1,0,0.3,0,0.5,0c0.2,0,0.4,0,0.7,0c18.6,34,40.5,58.9,64.3,73.6h-0.4v35.6c0,3.5,2.8,6.4,6.4,6.4h22
	v40.4h-2.5h-23.2c-0.6,0-1.1,0.1-1.7,0.1c-0.6,0.1-1,0.2-1.6,0.5c-0.5,0.2-0.9,0.5-1.4,0.8c-0.7,0.5-1.3,1-1.7,1.6
	c-0.5,0.6-0.9,1.3-1.3,2c-0.5,1-0.7,2-0.7,3.2v33.9h23.1H382v-33.9c0.1-4.6-3.5-8.2-8.1-8.2h-25.7v-40.4h21.9c3.5,0,6.4-2.8,6.4-6.4
	v-35.6h-0.5c23.8-14.6,45.8-39.5,64.3-73.6c0.3,0,0.6,0.1,0.8,0.1c0.2,0,0.3,0,0.6,0c33.6-2.8,65-23.1,88.6-56.8
	c25.2-36.1,39-83.9,39-134.6C569.3,225.8,565.8,222.4,561.7,222.4z M151.2,347.7c-13.1-18.7-23.9-48.5-29.1-79.9
	c-0.3-1.8,0.1-3.6,1.4-5.1c1.3-1.5,3.1-2.3,4.9-2.3h32.4c6.2,46,17.1,88.9,32.3,125.9C178.9,380,164.5,366.7,151.2,347.7z
	 M527.8,268c-5.2,31.4-16.2,61.2-29.1,79.9c-13.3,19.1-27.7,32.3-41.9,38.6c15.3-37,26.3-79.9,32.5-125.9h32.3
	c1.9,0,3.6,0.8,4.9,2.3C527.6,264.2,528.2,266.1,527.8,268z"/>
<path class="st1" d="M442.9,323.6c-4.6,0-8.6-1.9-11.2-4.9c-16.7,9.7-36.4,28.3-36.4,62c-37.4-27.6-102.7-27.8-140.1,0
	c0-33.9-19.8-52.5-36.6-62.1c-9.1,10.7-28.9,2.1-24.9-10.7c3.8-12.3,24.7-11.6,27.4,1c33.8,4.5,57.3,27.3,57.3,27.3
	c0-34.4,28.5-76.3,40.9-93c-13.1-5.6-8.3-23.5,6.2-23.6c14.7-0.1,19.2,18.5,5.7,23.8c12.5,16.8,40.8,58.5,40.8,92.8
	c0,0,23.4-22.6,57-27.2c2.1-10.4,17.7-13.6,24.9-5.3C460.8,311.6,454.4,323.6,442.9,323.6z"/>
<g>
	<path class="st1" d="M325,50c37.1,0,73.2,7.3,107,21.6c32.7,13.8,62.2,33.7,87.4,59c25.3,25.3,45.1,54.7,59,87.4
		c14.3,33.9,21.6,69.9,21.6,107c0,37.1-7.3,73.2-21.6,107c-13.8,32.7-33.7,62.2-59,87.4c-25.3,25.3-54.7,45.1-87.4,59
		c-33.9,14.3-69.9,21.6-107,21.6s-73.2-7.3-107-21.6c-32.7-13.8-62.2-33.7-87.4-59c-25.3-25.3-45.1-54.7-59-87.4
		C57.3,398.2,50,362.1,50,325c0-37.1,7.3-73.2,21.6-107c13.8-32.7,33.7-62.2,59-87.4c25.3-25.3,54.7-45.1,87.4-59
		C251.8,57.3,287.9,50,325,50 M325,0L325,0C145.5,0,0,145.5,0,325v0c0,179.5,145.5,325,325,325h0c179.5,0,325-145.5,325-325v0
		C650,145.5,504.5,0,325,0L325,0z"/>
</g>
</svg>
