<?xml version="1.0" encoding="utf-8"?>
<!-- Generator: Adobe Illustrator 23.0.1, SVG Export Plug-In . SVG Version: 6.00 Build 0)  -->
<svg version="1.1" id="Ebene_1" xmlns="http://www.w3.org/2000/svg" xmlns:xlink="http://www.w3.org/1999/xlink" x="0px" y="0px"
	 viewBox="0 0 650 650" style="enable-background:new 0 0 650 650;" xml:space="preserve">
<style type="text/css">
	.st0{fill:#FF0000;}
	.st1{fill:#EA1A00;}
	.st2{fill:#FFFFFF;}
	.st3{fill:#D40000;}
	.st4{fill:#5F376E;}
	.st5{fill:#333333;}
	.st6{fill:#13B02A;}
	.st7{fill:#7D009C;}
	.st8{fill:#3DC4A0;}
	.st9{fill:#405D91;}
	.st10{fill:#EDBF2F;}
	.st11{fill:#EAEAEA;}
</style>
<path class="st7" d="M325,0L325,0C145.5,0,0,145.5,0,325v0c0,179.5,145.5,325,325,325h0c179.5,0,325-145.5,325-325v0
	C650,145.5,504.5,0,325,0z"/>
<path d="M442.6,41.1H193.9c-24,0-43.4,19.4-43.4,43.4v453.1c0,24,19.4,43.4,43.4,43.4h248.7c24,0,43.4-19.4,43.4-43.4V84.5
	C486,60.5,466.6,41.1,442.6,41.1z"/>
<g>
	<path class="st2" d="M345.1,127.2c0-11.1-8.7-17.6-23.8-17.6c-14.9,0-32.7,8.4-48.3,21.8l-15.4-29.2c21.3-16.1,44.8-25.8,69.3-25.8
		c34.7,0,59.2,17.6,59.2,44.8c0,18.6-14.1,37.9-33.2,57.7l-40.4,39.9h79.7v32.9H262.1v-27l64.1-66.1
		C337.4,147.5,345.1,135.6,345.1,127.2z"/>
</g>
<path class="st2" d="M451.1,266.7c1.4,0.2,2.7,0.4,4.1,0.6l-0.1,0C453.8,267.1,452.5,266.9,451.1,266.7c-1,0.1-1.9,0.3-2.9,0.4
	c-42.1,6.9-79.6,28.3-123.2,28.3s-81.1-21.4-123.2-28.3C109.6,252,15,340.4,46.1,435c22.7,69.1,93.6,104.9,163.5,94.4
	c58.2-8.9,75.5-42.7,115.4-42.7s57.2,33.8,115.4,42.7c1.9,0.3,3.9,0.5,5.8,0.8l0.1,0c0,0,0,0,0,0c14.4,1.6,28.8,1.3,42.7-0.9l0,0
	l0,0c51.8-8,97.5-41.4,114.9-94.3C634.6,341.3,542.4,253.9,451.1,266.7z M262.8,426.9c-3.9,23.9-154.2-0.9-150.2-24.8
	c3.9-23.9,40.8-37.7,82.3-30.8C236.3,378.1,266.7,403,262.8,426.9z M387.2,426.9c-3.9-23.9,26.5-48.8,68-55.7
	c41.5-6.9,78.3,7,82.3,30.8C541.4,425.9,391.2,450.7,387.2,426.9z"/>
</svg>
