<?xml version="1.0" encoding="utf-8"?>
<!-- Generator: Adobe Illustrator 23.0.1, SVG Export Plug-In . SVG Version: 6.00 Build 0)  -->
<svg version="1.1" id="Ebene_1" xmlns="http://www.w3.org/2000/svg" xmlns:xlink="http://www.w3.org/1999/xlink" x="0px" y="0px"
	 viewBox="0 0 371 369" style="enable-background:new 0 0 371 369;" xml:space="preserve">
<style type="text/css">
	.st0{fill-rule:evenodd;clip-rule:evenodd;fill:#4770C9;}
	.st1{fill-rule:evenodd;clip-rule:evenodd;fill:#CC2800;}
	.st2{fill-rule:evenodd;clip-rule:evenodd;fill:#DBB60C;}
	.st3{fill-rule:evenodd;clip-rule:evenodd;fill:#2D9334;}
</style>
<g>
	<path class="st0" d="M149.4,168H18.6C8.3,168,0,159.7,0,149.4V18.6C0,8.3,8.3,0,18.6,0h130.9C159.7,0,168,8.3,168,18.6v130.9
		C168,159.7,159.7,168,149.4,168z"/>
</g>
<g>
	<path class="st1" d="M352.1,168H221.9c-10.5,0-18.9-8.5-18.9-18.9V18.9C203,8.5,211.5,0,221.9,0H352c10.5,0,19,8.5,19,18.9V149
		C371,159.5,362.5,168,352.1,168z"/>
</g>
<g>
	<path class="st2" d="M149.2,369H18.8C8.4,369,0,360.6,0,350.2V219.8C0,209.4,8.4,201,18.8,201h130.4c10.4,0,18.8,8.4,18.8,18.8
		v130.4C168,360.6,159.6,369,149.2,369z"/>
</g>
<g>
	<path class="st3" d="M352.2,369H221.8c-10.4,0-18.8-8.4-18.8-18.8V219.8c0-10.4,8.4-18.8,18.8-18.8h130.4
		c10.4,0,18.8,8.4,18.8,18.8v130.4C371,360.6,362.6,369,352.2,369z"/>
</g>
<g>
	<path d="M94,113H82V64.6c0-5.8,0.1-10.4,0.4-13.7c-0.8,0.8-1.8,1.7-2.9,2.7s-5,4.1-11.5,9.4l-6-7.6L84,38h10V113L94,113z"/>
</g>
<g>
	<path d="M109.4,314.4H58.6v-9.1l19.3-19.4c5.7-5.8,9.5-10,11.4-12.4s3.2-4.7,4.1-6.9c0.9-2.1,1.3-4.5,1.3-6.9c0-3.4-1-6.1-3-8
		c-2-2-4.9-2.9-8.4-2.9c-2.9,0-5.6,0.5-8.3,1.6s-5.8,3-9.3,5.7l-6.5-8c4.2-3.5,8.2-6,12.1-7.5s8.1-2.2,12.6-2.2
		c7,0,12.6,1.8,16.8,5.5c4.2,3.6,6.3,8.5,6.3,14.7c0,3.4-0.6,6.6-1.8,9.6c-1.2,3-3.1,6.2-5.6,9.4s-6.7,7.6-12.5,13.1l-13,12.6v0.5
		h35.6L109.4,314.4L109.4,314.4z"/>
</g>
<g>
	<path d="M310,256.1c0,4.8-1.4,8.7-4.1,11.9c-2.8,3.2-6.7,5.3-11.7,6.4v0.4c6,0.8,10.5,2.6,13.5,5.6s4.5,7,4.5,11.9
		c0,7.2-2.6,12.8-7.6,16.7c-5.1,3.9-12.3,5.9-21.7,5.9c-8.3,0-15.3-1.4-21-4v-10.8c3.2,1.6,6.5,2.8,10.1,3.6c3.6,0.9,7,1.3,10.3,1.3
		c5.8,0,10.2-1.1,13-3.2s4.3-5.5,4.3-10c0-4-1.6-6.9-4.8-8.8c-3.2-1.9-8.2-2.8-15-2.8h-6.5v-9.8h6.6c12,0,17.9-4.1,17.9-12.4
		c0-3.2-1-5.7-3.1-7.4c-2.1-1.7-5.2-2.6-9.2-2.6c-2.8,0-5.6,0.4-8.2,1.2c-2.6,0.8-5.7,2.4-9.3,4.7l-5.9-8.4
		c6.9-5.1,14.8-7.6,23.9-7.6c7.5,0,13.4,1.6,17.7,4.9C307.9,245.9,310,250.4,310,256.1z"/>
</g>
<g>
	<path d="M315.1,96.8H305v16.4h-11.7V96.8H259v-9.3L293.3,38H305v48.8h10.1V96.8z M293.3,86.8V68c0-6.7,0.2-12.2,0.5-16.5h-0.4
		c-1,2.3-2.5,5-4.5,8.2l-18.6,27.1L293.3,86.8L293.3,86.8z"/>
</g>
</svg>
